<svg xmlns="http://www.w3.org/2000/svg" width="86" height="151"><defs><clipPath id="clip-path"><path id="Rectangle_567" data-name="Rectangle 567" fill="none" stroke="#707070" stroke-width="1" d="M0 370h86v151H0z"/></clipPath></defs><g id="Mask_Group_65" data-name="Mask Group 65" transform="translate(0 -370)" clip-path="url(#clip-path)"><path id="Path_13062" data-name="Path 13062" d="M64.271 0c.211.006.5.212.857.616s1.785 1.672 3.205 2.862c3.024 2.543 3.917 3.527 4.833 5.428a33 33 0 012.334 7.716c0 .71.183 1.1.961 1.992a92.767 92.767 0 008.932 9.024 42.676 42.676 0 017.236 7.648c.938 1.259 1.648 2.038 1.58 1.718-.091-.321-.275-1.649-.412-2.955a17.193 17.193 0 00-2.931-8.244 19.04 19.04 0 01-3.687-9.023 18.293 18.293 0 00-.686-2.885 2.7 2.7 0 01-.23-.916c0-.893.87-.527 2.543 1.053 4.145 3.917 5.564 7.947 5.953 16.785.275 6.641.664 8.085 3.5 13.145a41.344 41.344 0 014.419 12.962c.206 1.4.457 2.38.548 2.243a26.761 26.761 0 00.689-2.7c.48-2.152.525-3.022.548-8.359v-5.954l.87-3.091c.986-3.459 1.1-3.779 1.557-3.779.481 0 2.5 7.327 2.657 9.641a16.744 16.744 0 01-3.137 10.4 28.481 28.481 0 00-3 6.159 11.5 11.5 0 00-.436 4.1c0 5.839-.939 9.709-3.779 15.617a62.2 62.2 0 00-2.862 6.985c-.892 2.862-3.045 11.564-2.908 11.724.251.23 4.259-6.25 4.992-8.06 1.649-4.122 2.29-5.13 5.154-8.176a17.978 17.978 0 002.038-2.45c.228-.458.527-.71.825-.71.434 0 .457.093.343.733-.069.412-.3 1.832-.481 3.161-.939 6.6-2.062 8.587-6.732 11.884a24.157 24.157 0 00-5.931 6.137c-.779 1.489-.872 1.948-1.535 8.4a59.3 59.3 0 01-2.977 12.64 121.622 121.622 0 01-5.564 11.7c-1.672 3.229-1.924 3.871-1.444 3.527a13.7 13.7 0 011.627-.94 31.8 31.8 0 006.434-5.152c3.962-4.259 5.589-7.74 6.5-13.809a18.507 18.507 0 011.764-6.114c1.03-2.015 5.45-8.4 5.748-8.289.16.046.274.39.251.755-.069 1.741-.825 7.947-1.145 9.366a14.23 14.23 0 01-3.092 5.977 58.575 58.575 0 00-5.221 7.763 28.545 28.545 0 01-4.305 5.587 10.027 10.027 0 00-1.35 1.581c.183.16 2.816-1.306 4.167-2.313a26.042 26.042 0 017.42-3.6c2.885-.869 8.038-2.083 8.289-1.924.389.252.16.756-.641 1.351-.458.344-1.969 1.718-3.366 3.024-4.191 3.984-6.183 4.808-12.412 5.129-4.167.23-6.962.756-8.816 1.7a33.419 33.419 0 00-5.5 4.145 73.779 73.779 0 01-7.831 6.09c-1.648.986-1.328-.6 3.482-4.374a22.746 22.746 0 006.114-6.481 7.667 7.667 0 001.4-4.3c.366-3.253.344-3.893-.184-5.313a15.682 15.682 0 00-3.114-4.833c-.78-.939-1.718-2.152-2.062-2.7-.365-.551-2.061-2.519-3.777-4.351-3.32-3.573-4.558-5.428-4.994-7.443-.114-.642-.366-2.794-.5-4.763-.251-3.092-.227-3.641.047-3.824a1.276 1.276 0 01.481-.207 10.761 10.761 0 011.19 1.832 38.1 38.1 0 003.138 4.282 37.038 37.038 0 012.657 3.458 19.21 19.21 0 012.015 6.206c.32 3.39.778 4.351 4.237 8.679 1.076 1.352 1.122 1.4.985.688-.069-.411-.5-1.992-.939-3.5-2.222-7.648-2.359-8.633-2.4-16.373l-.047-5.382.756-1.809a18.837 18.837 0 001.191-4.786 18.97 18.97 0 011.946-6.343c.825-1.855 1.488-3.48 1.488-3.618 0-.3.709-.572.916-.345.366.391 1.145 6.137 1.145 8.382 0 3.229-.39 4.488-2.68 8.7a44.68 44.68 0 00-2.633 5.725 9.518 9.518 0 00-.572 4.74 29.424 29.424 0 001.741 8.816c1.464 4.6 1.694 5.885 1.58 9.641l-.069 3.3 1.534-3.091a55.307 55.307 0 006.252-21.984c.206-2.267.5-5.061.686-6.23a120.71 120.71 0 014.282-16.671c.389-.938.458-1.671.458-4.121-.022-5.451-.985-7.511-3.824-8.152a6.629 6.629 0 00-3.435.137 8.711 8.711 0 01-5.428-.344 7.653 7.653 0 01-4.762-3.824c-1.123-1.946-1.558-3.182-1.237-3.5.16-.16.825.046 1.992.572 1.7.779 2.7 1.054 6.755 1.832a15.022 15.022 0 016.207 2.427 5.5 5.5 0 001.306.848 52.435 52.435 0 00-4.168-6.5 60.448 60.448 0 00-4.809-5.244c-3.71-3.686-4.512-4.877-5.221-7.808a35.178 35.178 0 01-.688-6.779c.275-.457.893 0 3.687 2.725 4.19 4.145 4.671 5.016 6.022 11.06.688 3 .962 3.641 2.4 5.611 4.031 5.45 5.977 10.054 6.253 14.863l.16 2.5 1.191-2.5c2.175-4.535 2.93-9 2.747-16.19a31.566 31.566 0 00-1.872-11.349 55.285 55.285 0 00-7.877-14.311c-.848-1.168-.962-1.237-2.13-1.374-.664-.069-2.77-.481-4.648-.939-1.9-.458-4.259-1.007-5.291-1.26a24.172 24.172 0 01-7.19-3 18.684 18.684 0 01-5.037-3.893c-2.427-2.427-4.122-4.855-4.122-5.886 0-.664.32-.664 2.107.024.8.3 2.061.733 2.794.961 2.38.71 6.3 3.71 9.778 7.466a16.574 16.574 0 003.366 3c1.077.6 8.037 2.565 8.244 2.336.23-.228-2.152-2.679-4.809-4.946-1.6-1.374-4.534-4.282-6.526-6.435a276.883 276.883 0 00-6.962-7.281c-3.092-3.07-3.413-3.479-4.489-5.612-1.191-2.38-3.138-8.381-3-9.3.055-.375.184-.564.382-.57z" transform="rotate(147 1.437 251.098)" fill="#c784e1"/></g></svg>