<svg xmlns="http://www.w3.org/2000/svg" width="72.496" height="50.676"><g id="Group_1506" data-name="Group 1506" transform="translate(-1316.75 -2786.345)" fill="none" stroke="#c784e1" stroke-linecap="round" stroke-linejoin="round" stroke-width="2"><path id="Path_13008" data-name="Path 13008" d="M90.51 18.059A31.776 31.776 0 01100.749 2.75" transform="translate(1252.25 2785)"/><path id="Path_13009" data-name="Path 13009" d="M62.928 79.792h0a32.511 32.511 0 00-23.359-35.038 29.906 29.906 0 00-.839 16.786" transform="translate(1289.861 2754.966)"/><path id="Path_13010" data-name="Path 13010" d="M37.788 129.634l-.973-1.471a30.566 30.566 0 00-32.081-12.982l-1.984.438a30.566 30.566 0 0034.2 14.234z" transform="translate(1315 2705.125)"/><path id="Path_13011" data-name="Path 13011" d="M126.44 2.75a31.785 31.785 0 0110.236 15.309" transform="translate(1226.559 2785)"/><path id="Path_13012" data-name="Path 13012" d="M126.613 79.792h0a32.511 32.511 0 0123.359-35.038 29.906 29.906 0 01.839 16.786" transform="translate(1226.594 2754.966)"/><path id="Path_13013" data-name="Path 13013" d="M127.171 129.634l.973-1.471a30.566 30.566 0 0132.082-12.982l1.984.438a30.566 30.566 0 01-34.2 14.234z" transform="translate(1226.036 2705.125)"/></g></svg>