<svg xmlns="http://www.w3.org/2000/svg" xmlns:xlink="http://www.w3.org/1999/xlink" width="719.654" height="714.89"><defs><linearGradient id="linear-gradient" x1="1.028" y1="1.017" x2="1.022" y2="1.017" gradientUnits="objectBoundingBox"><stop offset="0" stop-color="#a87a57"/><stop offset=".064" stop-color="#ac7f5b"/><stop offset=".197" stop-color="#dfa176"/><stop offset=".341" stop-color="#af805e"/><stop offset="1" stop-color="#c8a37b"/></linearGradient><linearGradient id="linear-gradient-2" x1="15.082" y1="55.203" x2="14.707" y2="55.203" xlink:href="#linear-gradient"/><linearGradient id="linear-gradient-3" x1="1" y1="60.031" x2=".34" y2="60.031" xlink:href="#linear-gradient"/><linearGradient id="linear-gradient-4" x1="1.307" y1="28.346" x2="1.032" y2="28.346" xlink:href="#linear-gradient"/><linearGradient id="linear-gradient-5" x1="15.537" y1="42.35" x2="15.1" y2="42.35" xlink:href="#linear-gradient"/><linearGradient id="linear-gradient-6" x1="14.728" y1="27.01" x2="14.351" y2="27.01" xlink:href="#linear-gradient"/><linearGradient id="linear-gradient-7" x1="39.386" y1="11.947" x2="39.082" y2="11.947" xlink:href="#linear-gradient"/><linearGradient id="linear-gradient-8" x1="45.935" y1="17.345" x2="45.381" y2="17.345" xlink:href="#linear-gradient"/><linearGradient id="linear-gradient-9" x1="37.308" y1="10.692" x2="36.893" y2="10.692" xlink:href="#linear-gradient"/><linearGradient id="linear-gradient-10" x1="14.376" y1="9.919" x2="13.964" y2="9.919" xlink:href="#linear-gradient"/><linearGradient id="linear-gradient-11" x1="11.787" y1="7.711" x2="11.515" y2="7.711" xlink:href="#linear-gradient"/><linearGradient id="linear-gradient-12" x1="28.356" y1=".827" x2="28.064" y2=".827" xlink:href="#linear-gradient"/><clipPath id="clip-path"><path id="Path_2057" data-name="Path 2057" d="M419.948 0c.631.017 1.491.635 2.559 1.839 1.027 1.163 5.333 5 9.574 8.551 9.032 7.6 11.7 10.536 14.436 16.214 2.665 5.473 6.978 19.633 6.978 23.048 0 2.122.546 3.286 2.87 5.951 7.8 9.1 20.114 21.55 26.682 26.955a127.477 127.477 0 0121.614 22.842c2.8 3.76 4.924 6.087 4.719 5.132-.273-.959-.822-4.927-1.232-8.827a51.358 51.358 0 00-8.755-24.625c-6.909-10.192-8.892-15.119-11.014-26.952-.754-4.036-1.641-7.936-2.051-8.619a8.054 8.054 0 01-.686-2.736c0-2.668 2.6-1.573 7.6 3.146 12.382 11.7 16.62 23.737 17.783 50.14.822 19.838 1.982 24.15 10.468 39.266a123.5 123.5 0 0113.2 38.72c.614 4.169 1.365 7.111 1.638 6.7a79.963 79.963 0 002.057-8.073c1.433-6.428 1.569-9.028 1.638-24.969v-17.779l2.6-9.233c2.945-10.332 3.286-11.287 4.651-11.287 1.436 0 7.455 21.888 7.936 28.8.682 10.123-2.6 21.137-9.369 31.056a85.076 85.076 0 00-8.96 18.4c-1.03 2.876-1.3 5.678-1.3 12.249 0 17.442-2.8 29-11.287 46.649a185.822 185.822 0 00-8.55 20.865c-2.665 8.551-9.1 34.543-8.687 35.021.751.686 12.723-18.671 14.911-24.075 4.927-12.314 6.841-15.323 15.4-24.423a53.706 53.706 0 006.087-7.319c.682-1.368 1.573-2.122 2.463-2.122 1.3 0 1.365.276 1.024 2.191a436.42 436.42 0 00-1.436 9.441c-2.8 19.7-6.159 25.652-20.11 35.5-6.773 4.859-15.187 13.546-17.715 18.333-2.327 4.449-2.6 5.818-4.586 25.106a177.119 177.119 0 01-8.892 37.757c-2.873 7.527-7.524 17.377-16.62 34.956-5 9.646-5.746 11.563-4.313 10.536a40.912 40.912 0 014.859-2.808c4.654-2.392 14.293-10.052 19.22-15.388 11.836-12.723 16.695-23.12 19.428-41.248 1.232-8.209 2.6-12.928 5.268-18.265 3.078-6.019 16.279-25.106 17.169-24.761.478.136.819 1.164.751 2.255-.2 5.2-2.464 23.737-3.419 27.979a42.507 42.507 0 01-9.236 17.855c-3.419 3.76-11.284 15.456-15.6 23.188a85.27 85.27 0 01-12.86 16.688c-2.324 2.463-4.17 4.586-4.033 4.722.546.478 8.411-3.9 12.447-6.909 5.336-4.036 13.955-8.209 22.164-10.741 8.619-2.6 24.01-6.224 24.761-5.746 1.163.754.478 2.259-1.914 4.036-1.368 1.027-5.882 5.132-10.055 9.032-12.519 11.9-18.469 14.361-37.075 15.32-12.447.686-20.8 2.259-26.334 5.063-3.559 1.778-11.836 8.069-16.422 12.382-5.265 4.924-18.6 15.32-23.393 18.193-4.924 2.945-12.174 6.227-25.443 11.492l-8.209 3.282 3.828.754c2.8.618 5.678.618 10.536.137 8.411-.891 9.1-1.092 18.742-5.746 4.309-2.119 11.082-5.265 15.05-7.042 7.182-3.218 7.182-3.218 16.071-3.491 11.427-.409 16.35.273 16.623 2.259.14 1.16-.409 1.638-2.8 2.6-1.709.618-7.455 4.108-12.86 7.732-5.4 3.555-12.788 7.933-16.347 9.711-6.432 3.081-6.568 3.149-13.338 3.149-5.063 0-9.441-.614-16.76-2.191-23.806-5.132-23.942-5.2-28.46-3.7a264.506 264.506 0 00-34.335 14.433c-13.887 7.186-25.447 15.19-34.407 23.673-9.646 9.233-13.682 12.311-19.428 15.115l-4.787 2.327 10.26-.341c12.314-.413 30.92-3.968 38.1-7.182a41.859 41.859 0 0117.511-4.176 67.846 67.846 0 0010.192-1.024 73.057 73.057 0 0123.806 0 78.987 78.987 0 008.619 1.024c1.778 0 2.668.341 2.941 1.167.686 1.709-1.368 2.938-4.719 2.938-2.191 0-4.927 1.1-11.423 4.446-9.236 4.79-13.75 6.09-23.26 6.841-6.838.546-11.492-.273-18.879-3.146a21.229 21.229 0 00-15.187-.959c-14.023 3.9-25.242 5.063-37.007 3.832-7.592-.819-8.206-.751-19.015 1.3-29.347 5.473-46.035 4.446-73.468-4.514-10.052-3.282-30.029-13-40.153-19.5a113.853 113.853 0 00-12.655-6.5c-8.96-3.76-22.642-10.465-32.148-15.661-11.014-6.022-19.7-9.028-29.756-10.26l-3.763-.481 6.363 3.214c8 4.036 16.692 12.038 23.6 21.892 7.588 10.806 13.2 16.006 23.734 22.229 6.636 3.9 11.287 5.268 22.437 6.428 20.247 2.262 25.379 4.381 35.843 15.05 6.841 6.909 8.414 9.3 6.7 10.332-.338.2-1.709-.072-3.074-.618-1.372-.614-6.227-1.5-10.809-2.119-14.228-1.709-24.215-6.022-33.247-14.365-3.555-3.282-6.5-5.336-8.687-6.159-9.847-3.487-21.475-10.738-27.7-17.234a130.123 130.123 0 01-9.032-11.222 104.52 104.52 0 00-10.874-12.584c-4.924-4.654-6.978-5.951-16.487-10.673-10.942-5.469-14.911-6.7-12.587-4.173.686.686 2.532 4.446 4.241 8.414 1.781 3.9 3.627 8.138 4.241 9.369 1.849 3.7 7.254 8.759 11.9 11.082 7.865 3.968 14.228 12.041 18.879 23.945a35.247 35.247 0 003.763 7.043c3.692 4.719 1.027 7.182-3.146 2.736-1.372-1.5-6.159-4.654-11.7-7.66-10.332-5.681-16.282-10.536-18.674-15.255-1.713-3.419-4.245-12.723-4.245-15.528 0-2.463-3.009-11.014-6.019-17.169-2.324-4.654-2.873-5.336-6.5-7.322a28.871 28.871 0 00-8.141-2.87c-12.993-2.122-32.557-16.968-41.79-31.674-2.327-3.76-5.067-8.414-6.09-10.325a137.36 137.36 0 01-8.482-22.028 120.057 120.057 0 00-4.173-12.45c-3.9-10.124-3.9-13.679.072-9.438 2.119 2.324 6.769 13.611 8.615 21 1.232 4.79 1.849 6.155 3.354 7.114.959.614 3.76 2.736 6.224 4.719 5.333 4.309 18.333 11.836 22.506 13.136a44.425 44.425 0 009.3.887 36.571 36.571 0 0013-2.051c11.563-3.555 15.8-3.351 25.242 1.1 4.787 2.255 12.041 8.209 12.041 9.847 0 1.576.068 1.576-7.868 1.372a69.117 69.117 0 00-11.969.955c-6.773 1.3-17.306 1.508-23.325.409-12.928-2.324-26.542-9.646-39.675-21.2-5.541-4.859-5.268-3.763 2.255 9.438 4.992 8.9 6.432 10.806 12.178 16.419A76.428 76.428 0 0055.04 456.26c4.176 2.119 5.954 2.528 13.682 3.415 15.05 1.645 33.179 4.586 39.675 6.3a111.617 111.617 0 0125.382 11.287c3.76 2.187 7.315 4.033 7.861 4.033s4.381-.819 8.482-1.778c6.636-1.573 9.646-1.846 25.31-2.324 14.023-.413 19.155-.819 24.283-1.986a94.644 94.644 0 0130.374-1.228c4.787.546 9.1 1.365 9.506 1.778 3.422 3.419-21.134 13.75-32.7 13.75-4.173 0-11.969-1.849-21.683-5.132a60.654 60.654 0 00-30.234-2.051c-3.968.682-7.251 1.5-7.251 1.778s3.009 1.778 6.636 3.351c11.969 5.132 15.115 6.7 19.152 9.438 2.19 1.44 9.646 5.613 16.623 9.168 12.584 6.5 27.7 12.174 37.826 14.231 3.968.819 4.036.751 8.9-1.713a207.882 207.882 0 0025.788-17.1c8.206-6.636 10.052-7.868 15.252-10.263 6.636-3.009 13.273-4.306 24.969-4.719 11.492-.478 11.423-.478 3.487 5.882-7.046 5.613-13.269 8.554-20.793 9.854-20.592 3.419-22.164 3.965-32.356 10.738-4.033 2.668-9.233 5.882-11.628 7.042-5.268 2.672-4.719 3.013 5.678 3.494 15.46.751 41.108-3.149 53.286-8.141 9.1-3.7 11.082-5.063 18.81-12.451 3.627-3.49 8.827-8.209 11.563-10.6 5.4-4.787 10.26-10.946 12.515-16.214.822-1.846 2.668-5.336 4.036-7.8a34.856 34.856 0 003.419-8.551c.481-2.259 1.576-6.09 2.4-8.554a65.777 65.777 0 002.4-10.942 50.926 50.926 0 013.491-13.2c2.324-5.817 3.074-8.963 5.06-21.342.891-5.4 11.15-22.506 13.269-22.1.959.208 1.163 2.051 1.641 12.86.341 8 .341 13.955-.133 16.146-1.1 5.746-5.34 13.611-11.5 21.342a87.908 87.908 0 00-7.523 10.738c-1.709 3.354-4.992 11.563-4.992 12.515 0 .208 1.437-1.228 3.214-3.282 3.7-4.306 16.415-17.579 22.434-23.393a63.712 63.712 0 0110.26-7.6c5.272-3.143 6.981-4.647 11.7-10.393a96.658 96.658 0 019.642-10.2c3.832-3.146 25.242-15.46 26.887-15.46 1.3 0 1.5 1.918.478 3.9-.618 1.027-2.668 5.132-4.586 9.1-4.446 8.96-7.387 12.857-14.365 18.879-8.482 7.251-11.9 9.236-22.229 13.133a172 172 0 00-17.374 7.865c-7.251 3.9-8.346 4.79-15.938 12.8-9.717 10.26-11.7 13-16.692 22.775l-3.763 7.387 2.6-1.638a279.783 279.783 0 0127.569-13.819c57.322-22.506 60.191-23.874 74.559-35.161 9.233-7.25 14.433-12.792 18.265-19.36 3.142-5.265 3.419-6.152 4.173-12.857 1.092-9.717 1.027-11.628-.549-15.869-1.641-4.446-3.763-7.732-9.3-14.436-2.33-2.8-5.132-6.428-6.159-8.069-1.092-1.645-6.155-7.523-11.284-13-9.919-10.673-13.614-16.214-14.917-22.233-.341-1.918-1.092-8.346-1.5-14.228-.751-9.236-.679-10.878.14-11.423a3.811 3.811 0 011.436-.618 32.146 32.146 0 013.555 5.473 113.805 113.805 0 009.373 12.792 110.66 110.66 0 017.936 10.328 57.382 57.382 0 016.019 18.538c.955 10.127 2.324 13 12.655 25.925 3.214 4.04 3.351 4.173 2.941 2.054-.2-1.228-1.5-5.951-2.8-10.465-6.636-22.847-7.046-25.788-7.182-48.908l-.14-16.077 2.259-5.4a56.271 56.271 0 003.559-14.3c1.228-8 1.846-9.919 5.814-18.947 2.463-5.541 4.446-10.4 4.446-10.806 0-.891 2.119-1.709 2.736-1.03 1.092 1.167 3.419 18.333 3.419 25.037 0 9.646-1.163 13.406-8 26a133.467 133.467 0 00-7.865 17.1c-1.914 5.951-2.054 6.769-1.709 14.16.409 9.165 1.573 14.979 5.2 26.334 4.374 13.747 5.06 17.579 4.719 28.8l-.2 9.85 4.582-9.233c11.42-22.779 16.419-40.361 18.674-65.668.614-6.773 1.5-15.119 2.051-18.609 2.122-13.2 9.168-40.562 12.792-49.8 1.164-2.8 1.368-4.992 1.368-12.311-.065-16.282-2.941-22.437-11.423-24.352-3.351-.751-4.719-.686-10.26.409-6.841 1.3-9.1 1.163-16.214-1.027a22.859 22.859 0 01-14.225-11.423c-3.354-5.814-4.654-9.506-3.7-10.465.478-.478 2.463.136 5.951 1.709 5.063 2.327 8.073 3.149 20.179 5.473 7.868 1.5 14.232 3.968 18.541 7.251 1.982 1.5 3.76 2.668 3.9 2.532.338-.409-8-13.542-12.451-19.428a180.564 180.564 0 00-14.365-15.665c-11.082-11.011-13.478-14.569-15.6-23.325-1.1-4.309-2.6-19.36-2.054-20.25.822-1.365 2.668 0 11.014 8.141 12.515 12.382 13.952 14.982 17.988 33.039 2.054 8.96 2.873 10.878 7.182 16.76 12.041 16.279 17.855 30.033 18.677 44.4l.478 7.455 3.559-7.455c6.5-13.546 8.752-26.887 8.206-48.362-.409-15.323-1.368-21.069-5.609-33.864-4.241-12.72-12.857-28.316-23.529-42.749-2.532-3.49-2.873-3.7-6.363-4.1-1.982-.2-8.274-1.436-13.884-2.8-5.681-1.368-12.723-3.009-15.8-3.763-7.384-1.709-12.038-3.7-21.479-8.96-6.633-3.763-8.96-5.541-15.047-11.628-7.251-7.251-12.314-14.5-12.314-17.582 0-1.982.955-1.982 6.3.072 2.4.887 6.155 2.191 8.346 2.87 7.111 2.122 18.807 11.082 29.207 22.3 4.1 4.446 7.868 7.8 10.055 8.96 3.218 1.778 24.007 7.663 24.625 6.978.686-.682-6.428-8-14.365-14.774-4.787-4.1-13.542-12.792-19.493-19.223-5.951-6.5-15.323-16.279-20.8-21.748-9.233-9.168-10.192-10.4-13.406-16.763-3.559-7.111-9.373-25.034-8.96-27.77.164-1.119.549-1.686 1.14-1.7z" fill="none"/></clipPath><clipPath id="clip-path-2"><path id="Path_2058" data-name="Path 2058" d="M6.022 1.1a3.934 3.934 0 01-2.19 7.109C2.327 8.209 0 5.749 0 4.1 0 2.6 2.259 0 3.627 0a5.481 5.481 0 012.4 1.1" fill="none"/></clipPath><clipPath id="clip-path-3"><path id="Path_2059" data-name="Path 2059" d="M4.636 1.4a2.93 2.93 0 01.386 1.372v.1A2.525 2.525 0 01.532 4.48a3.261 3.261 0 01-.41-2.736A2.283 2.283 0 012.378 0a2.542 2.542 0 012.258 1.4" fill="none"/></clipPath><clipPath id="clip-path-4"><path id="Path_2060" data-name="Path 2060" d="M8.067.938c2.191 2.6 1.163 7.728-1.846 9.373-4.719 2.528-8.346-3.9-4.79-8.482A5.364 5.364 0 015.566 0a3.2 3.2 0 012.5.938" fill="none"/></clipPath><clipPath id="clip-path-5"><path id="Path_2061" data-name="Path 2061" d="M5.228.771c2.054 2.051 0 6.292-2.8 5.882C.372 6.377-.518 4.466.3 2.208A3.219 3.219 0 013.334 0a2.629 2.629 0 011.894.771" fill="none"/></clipPath><clipPath id="clip-path-6"><path id="Path_2062" data-name="Path 2062" d="M6.968.935c1.573 1.849 1.645 5.473.273 7.182a4.366 4.366 0 01-6.155.549c-1.5-1.436-1.433-5.609.136-7.319A4.677 4.677 0 014.573 0a3.038 3.038 0 012.4.935" fill="none"/></clipPath><clipPath id="clip-path-7"><path id="Path_2063" data-name="Path 2063" d="M7.406 1.365c2.736 2.736 1.232 6.909-2.736 7.8-1.982.478-2.87 0-4.033-2.122C-1.077 3.76.841 0 4.328 0a5.033 5.033 0 013.078 1.365" fill="none"/></clipPath><clipPath id="clip-path-8"><path id="Path_2064" data-name="Path 2064" d="M5.314.914a3.991 3.991 0 01.546 2.6c-.136 1.232-.682 1.641-2.4 1.778-1.846.2-2.4-.068-3.009-1.5C-.163 2.419-.163 1.8.523.983A3.188 3.188 0 012.956 0a3.169 3.169 0 012.358.914" fill="none"/></clipPath><clipPath id="clip-path-9"><path id="Path_2065" data-name="Path 2065" d="M7.042 1.245a3.948 3.948 0 011.164 2.327c0 1.3-3.078 4.651-4.238 4.651A4.446 4.446 0 010 4.19 4.244 4.244 0 014.251 0a3.69 3.69 0 012.791 1.245" fill="none"/></clipPath><clipPath id="clip-path-10"><path id="Path_2066" data-name="Path 2066" d="M5.608 1.3a3.013 3.013 0 01-3.487 4.787A3.731 3.731 0 01.2 1.368 2.309 2.309 0 012.585 0a4.1 4.1 0 013.023 1.3" fill="none"/></clipPath><clipPath id="clip-path-11"><path id="Path_2067" data-name="Path 2067" d="M8.2 1.4a4.353 4.353 0 01-3.147 7.519c-4.378 0-6.5-3.828-3.965-7.387A4.139 4.139 0 014.544 0 5.229 5.229 0 018.2 1.4" fill="none"/></clipPath><clipPath id="clip-path-12"><path id="Path_2068" data-name="Path 2068" d="M7.432.771C9.55 3.572 8.523 6.926 5.1 8.226.587 9.936-2.146 3.235 2.16.976A7.666 7.666 0 015.517 0a2.354 2.354 0 011.915.771" fill="none"/></clipPath></defs><g id="Group_1479" data-name="Group 1479" transform="rotate(158 310.564 323.38)"><g id="Group_376" data-name="Group 376"><g id="Group_375" data-name="Group 375" clip-path="url(#clip-path)"><path id="Rectangle_125" data-name="Rectangle 125" transform="translate(-.983)" fill="url(#linear-gradient)" d="M0 0h556.876v546.814H0z"/></g></g><g id="Group_378" data-name="Group 378" transform="translate(434.34 103.009)"><g id="Group_377" data-name="Group 377" clip-path="url(#clip-path-2)"><path id="Rectangle_126" data-name="Rectangle 126" fill="url(#linear-gradient-2)" d="M0 0h9.096v8.209H0z"/></g></g><g id="Group_380" data-name="Group 380" transform="translate(566.512 165.224)"><g id="Group_379" data-name="Group 379" clip-path="url(#clip-path-3)"><path id="Rectangle_127" data-name="Rectangle 127" transform="translate(-.151)" fill="url(#linear-gradient-3)" d="M0 0h5.173v6.507H0z"/></g></g><g id="Group_382" data-name="Group 382" transform="translate(557.471 191.885)"><g id="Group_381" data-name="Group 381" clip-path="url(#clip-path-4)"><path id="Rectangle_128" data-name="Rectangle 128" transform="translate(-2.124)" fill="url(#linear-gradient-4)" d="M0 0h12.382v12.839H0z"/></g></g><g id="Group_384" data-name="Group 384" transform="translate(450.864 256.97)"><g id="Group_383" data-name="Group 383" clip-path="url(#clip-path-5)"><path id="Rectangle_129" data-name="Rectangle 129" transform="translate(-.518)" fill="url(#linear-gradient-5)" d="M0 0h7.8v7.063H0z"/></g></g><g id="Group_386" data-name="Group 386" transform="translate(438.931 279.513)"><g id="Group_385" data-name="Group 385" clip-path="url(#clip-path-6)"><path id="Rectangle_130" data-name="Rectangle 130" transform="translate(-.419)" fill="url(#linear-gradient-6)" d="M0 0h9.032v10.239H0z"/></g></g><g id="Group_388" data-name="Group 388" transform="translate(130.743 440.929)"><g id="Group_387" data-name="Group 387" clip-path="url(#clip-path-7)"><path id="Rectangle_131" data-name="Rectangle 131" transform="translate(-1.077)" fill="url(#linear-gradient-7)" d="M0 0h11.219v9.642H0z"/></g></g><g id="Group_390" data-name="Group 390" transform="translate(288.799 460.807)"><g id="Group_389" data-name="Group 389" clip-path="url(#clip-path-8)"><path id="Rectangle_132" data-name="Rectangle 132" transform="translate(-.163)" fill="url(#linear-gradient-8)" d="M0 0h6.159v5.497H0z"/></g></g><g id="Group_392" data-name="Group 392" transform="translate(265.383 468.273)"><g id="Group_391" data-name="Group 391" clip-path="url(#clip-path-9)"><path id="Rectangle_133" data-name="Rectangle 133" fill="url(#linear-gradient-9)" d="M0 0h8.206v8.223H0z"/></g></g><g id="Group_394" data-name="Group 394" transform="translate(452.947 483.337)"><g id="Group_393" data-name="Group 393" clip-path="url(#clip-path-10)"><path id="Rectangle_134" data-name="Rectangle 134" transform="translate(-.411)" fill="url(#linear-gradient-10)" d="M0 0h8.278v7.319H0z"/></g></g><g id="Group_396" data-name="Group 396" transform="translate(425.455 487.414)"><g id="Group_395" data-name="Group 395" clip-path="url(#clip-path-11)"><path id="Rectangle_135" data-name="Rectangle 135" transform="translate(-1.444)" fill="url(#linear-gradient-11)" d="M0 0h12.515v8.919H0z"/></g></g><g id="Group_398" data-name="Group 398" transform="translate(242.014 547.687)"><g id="Group_397" data-name="Group 397" clip-path="url(#clip-path-12)"><path id="Rectangle_136" data-name="Rectangle 136" transform="translate(-2.146)" fill="url(#linear-gradient-12)" d="M0 0h11.696v9.936H0z"/></g></g></g></svg>