<svg xmlns="http://www.w3.org/2000/svg" xmlns:xlink="http://www.w3.org/1999/xlink" width="292" height="178.668"><defs><linearGradient id="linear-gradient" x1=".5" y1="1" x2=".5" gradientUnits="objectBoundingBox"><stop offset="0" stop-color="#a87a57"/><stop offset="1" stop-color="#c8a37b"/></linearGradient><linearGradient id="linear-gradient-9" x1="0" y1=".5" x2="1" y2=".5" xlink:href="#linear-gradient"/></defs><g id="Artwork_3" data-name="Artwork 3" transform="translate(146 89.334)"><g id="Group_453" data-name="Group 453" transform="translate(-146 -89.334)"><g id="Group_447" data-name="Group 447" transform="translate(27.483 158.198)" fill="#494b61"><path id="Path_2225" data-name="Path 2225" d="M64 372.82h4.574c6.091 0 9.629 3.538 9.629 8.491 0 5.105-3.766 9.1-9.6 9.1H64zm2.653 17.16H68.4c3.791 0 6.925-2.8 6.925-8.567 0-6.343-3.715-8.163-7.178-8.163h-1.492z" transform="translate(-64.002 -370.925)"/><path id="Path_2226" data-name="Path 2226" d="M109.023 384.178c3.79 0 5.358 2.856 5.358 6.5 0 2.805-1.011 6.394-5.585 6.394-4.069 0-5.358-2.982-5.358-6.293 0-3.265 1.491-6.601 5.585-6.601zm-.1 12.485c2.477 0 2.881-3.058 2.881-5.914 0-3.159-.581-6.192-2.881-6.192-2.325 0-2.881 3.311-2.881 6.394-.001 3.159.707 5.712 2.88 5.712z" transform="translate(-86.504 -377.405)"/><path id="Path_2227" data-name="Path 2227" d="M136.518 387.891l.025-19.485h2.4v19.485z" transform="translate(-105.379 -368.406)"/><path id="Path_2228" data-name="Path 2228" d="M160.022 392.341c-.076 3.235-2.148 4.726-4.625 4.726-3.766 0-5.636-2.1-5.636-6.141 0-5.156 2.881-6.748 5.332-6.748 3.285 0 4.978 1.971 4.978 5.585v.3h-7.681c0 2.477.051 6.5 3.462 6.5 2.249 0 3.715-1.719 3.766-4.221zm-2.4-2.679c0-3.563-.985-5.079-2.577-5.079-1.466 0-2.5 1.313-2.654 5.079z" transform="translate(-112.936 -377.405)"/><path id="Path_2229" data-name="Path 2229" d="M176.014 384.532h2.6l3.993 9.629h.127l3.21-9.629h1.213l-5.482 12.968h-.152z" transform="translate(-127.915 -377.607)"/><path id="Path_2230" data-name="Path 2230" d="M225.875 371.29H226l7.859 16.149 6.849-16.149h.126l3.184 18.247h-2.578l-2.224-13.066-6.416 14.051h-.152l-7.177-14.885-1.845 13.9h-1.112z" transform="translate(-154.447 -370.052)"/><path id="Path_2231" data-name="Path 2231" d="M289.163 392.341c-.076 3.235-2.148 4.726-4.625 4.726-3.765 0-5.636-2.1-5.636-6.141 0-5.156 2.881-6.748 5.332-6.748 3.285 0 4.979 1.971 4.979 5.585v.3h-7.683c0 2.477.051 6.5 3.463 6.5 2.249 0 3.715-1.719 3.765-4.221zm-2.4-2.679c0-3.563-.985-5.079-2.578-5.079-1.466 0-2.5 1.313-2.654 5.079z" transform="translate(-186.621 -377.405)"/><path id="Path_2232" data-name="Path 2232" d="M317.134 386.021a3.86 3.86 0 01-3.614 2.047c-3.437 0-4.6-2.7-4.6-6.268 0-3.589 1.44-6.57 4.979-6.57a4.037 4.037 0 013.159 1.415l.076-.025v-8.214h2.4v19.485h-2.35v-1.87zm-2.932 1.491c2.5 0 2.982-2.856 2.982-6.04 0-2.73-.329-5.813-2.78-5.813-2.527 0-2.856 3.361-2.856 6.09.001 3.059.33 5.763 2.652 5.763z" transform="translate(-203.75 -368.406)"/><path id="Path_2233" data-name="Path 2233" d="M343.811 371.173a1.564 1.564 0 011.542 1.541 1.543 1.543 0 01-1.542 1.517 1.521 1.521 0 01-1.516-1.517 1.542 1.542 0 011.516-1.541zm1.162 5.736v12.56h-2.452c0-3.387.026-9.149.026-12.56z" transform="translate(-222.793 -369.985)"/><path id="Path_2234" data-name="Path 2234" d="M367.1 392.341c-.076 3.235-2.174 4.726-4.574 4.726-3.942 0-5.635-2.2-5.635-6.166 0-4.448 2.527-6.723 5.383-6.723 3.741 0 4.524 2.452 4.524 3.842a4.09 4.09 0 01-.025.581h-2.2c0-2.628-.885-4.018-2.325-4.018s-2.729 1.238-2.729 5.737v.581c0 4.423 1.466 5.661 3.386 5.661 2.047 0 3.766-1.466 3.791-4.221z" transform="translate(-231.122 -377.405)"/><path id="Path_2235" data-name="Path 2235" d="M385.619 384.667a7.369 7.369 0 012.2-.43c.455 0 .885.025 1.339.05a3.939 3.939 0 013.488 3.639c.531 2.78.91 4.878 1.264 6.622.3 1.39.657 1.9 1.339 1.946h.328l.051.4a5.371 5.371 0 01-1.162.2c-1.567 0-2.527-.329-2.932-1.971a5.283 5.283 0 01-3.892 1.971 2.9 2.9 0 01-.48-.025 3.04 3.04 0 01-2.957-3.31c0-3.134 3.285-4.524 6.242-4.575-.4-2.426-1.162-4.322-3.285-4.322a5.2 5.2 0 00-1.441.177zm2.982 11.4a4.049 4.049 0 002.831-1.339c-.3-1.289-.581-3.21-.935-5.156-3.31.2-3.841 2.578-3.841 3.765 0 1.818.707 2.728 1.944 2.728z" transform="translate(-246.706 -377.44)"/><path id="Path_2236" data-name="Path 2236" d="M415.635 387.891l.025-19.485h2.4v19.485z" transform="translate(-264.64 -368.406)"/><path id="Path_2237" data-name="Path 2237" d="M461.585 383.646c0 4.549-3.209 6.672-7.026 6.672-5.433 0-8.668-3.084-8.668-8.643 0-6.116 3.765-9.326 8.39-9.326 5.256 0 6.975 3.083 6.975 5.434a4.476 4.476 0 01-.025.606h-2.552c0-4.322-1.845-5.636-4.372-5.636-2.956 0-5.509 2.4-5.509 8.542 0 6.495 2.755 8.542 6.167 8.542 3.538 0 6.217-2.148 6.217-6.192z" transform="translate(-281.903 -370.656)"/><path id="Path_2238" data-name="Path 2238" d="M499 392.341c-.076 3.235-2.148 4.726-4.625 4.726-3.766 0-5.636-2.1-5.636-6.141 0-5.156 2.881-6.748 5.333-6.748 3.285 0 4.979 1.971 4.979 5.585v.3h-7.683c0 2.477.051 6.5 3.463 6.5 2.249 0 3.715-1.719 3.765-4.221zm-2.4-2.679c0-3.563-.986-5.079-2.578-5.079-1.466 0-2.5 1.313-2.654 5.079z" transform="translate(-306.352 -377.405)"/><path id="Path_2239" data-name="Path 2239" d="M519.348 384.33h2.325v2.17h.1a4.532 4.532 0 013.943-2.326c2.653 0 3.791 1.542 3.791 3.943v8.769h-2.4v-8.567c0-1.491-.126-3.311-2.249-3.311-1.971 0-3.083 1.769-3.083 3.968v7.91h-2.426z" transform="translate(-323.817 -377.405)"/><path id="Path_2240" data-name="Path 2240" d="M556.985 389.43a4.732 4.732 0 01-3.766 1.9c-2.2 0-3.134-1.238-3.134-3.361v-8.947h-2.072v-.429h2.072v-2.755l2.25-1.719h.227v4.473h3.766v.429h-3.766v8.542c0 2.1.481 2.932 1.871 2.932a2.874 2.874 0 002.3-1.289z" transform="translate(-340.174 -371.663)"/><path id="Path_2241" data-name="Path 2241" d="M581.112 392.341c-.076 3.235-2.148 4.726-4.625 4.726-3.766 0-5.635-2.1-5.635-6.141 0-5.156 2.881-6.748 5.333-6.748 3.285 0 4.978 1.971 4.978 5.585v.3h-7.683c0 2.477.051 6.5 3.462 6.5 2.249 0 3.715-1.719 3.766-4.221zm-2.4-2.679c0-3.563-.986-5.079-2.578-5.079-1.466 0-2.5 1.313-2.653 5.079z" transform="translate(-353.205 -377.405)"/><path id="Path_2242" data-name="Path 2242" d="M604.709 396.857h-2.427V384.3h.3l1.87 3.715h.1c.3-2.325 1.516-3.892 3.538-3.892a5.273 5.273 0 011.239.126v2.451a4.441 4.441 0 00-1.769-.429c-1.819 0-2.856 1.289-2.856 3.664z" transform="translate(-371.138 -377.372)"/></g><g id="Group_451" data-name="Group 451" transform="translate(5.153)" fill="url(#linear-gradient)"><g id="Group_448" data-name="Group 448" transform="translate(0 6.536)"><path id="Path_2243" data-name="Path 2243" d="M212.2 95.674a72.152 72.152 0 00-2.254-18.25L203.2 61.371A57.7 57.7 0 00184.327 42.4l-1.1 6.132q1.272 1.159 2.467 2.429l.621-4.78 5.351 12.68a55.877 55.877 0 015.9 13.97l13.961 33.081a77.42 77.42 0 00.673-10.238z" transform="translate(-109.701 -30.73)"/><path id="Path_2244" data-name="Path 2244" d="M102.215 82.639a44.955 44.955 0 01.58 6.96c0 45.187-26.241 58.248-60.865 58.248H22.368V18.351H38.6c16.478 0 28.86 1.142 40.757 10.488l.994-5.546c-11.527-6.477-22.5-8.072-39.794-8.072H12v135.952h29.538c37.712 0 62.163-14.446 68.8-46.356z" transform="translate(-12 -15.221)"/></g><path id="Path_2245" data-name="Path 2245" d="M130.371 329.444l-.473 1h11.614l.454-3.577z" transform="translate(-79.271 -186.507)"/><g id="Group_449" data-name="Group 449" transform="translate(52.809)"><path id="Path_2246" data-name="Path 2246" d="M437.929 10.348L435.781 0h-3l-11.638 26.05c3.746-4.84 9.877-11.777 16.786-15.702z" transform="translate(-298.261)"/><path id="Path_2247" data-name="Path 2247" d="M456.544 62.671c-4.225 3.342-8.052 13.581-9.516 17.876l14.156 99.15h12.525z" transform="translate(-313.031 -35.759)"/><path id="Path_2248" data-name="Path 2248" d="M243.6 59.767l-26.748 71.923L161.706.455h-3.155L134.98 132.014c3.824-1.215 9.413-3.009 11.491-3.677l13.063-100.586 52.28 123.88h2.9l27.594-69.3c.192-5.556.627-16.002 1.292-22.564z" transform="translate(-134.98 -.26)"/></g><g id="Group_450" data-name="Group 450" transform="translate(166.087 4.971)"><path id="Path_2249" data-name="Path 2249" d="M426.945 135.347c-11.056-9.585-16.627-26.128-16.627-54.915 0-47.338 22.691-65.921 49.295-65.921 22.887 0 40.1 10.171 40.1 43.621h11.346a34.634 34.634 0 00.2-4.695c0-18.192-11.932-41.862-51.838-41.862-33.646 0-60.64 25.43-60.64 71.987 0 29.5 9.311 49.555 29.224 59.528z" transform="translate(-398.777 -11.576)"/><path id="Path_2250" data-name="Path 2250" d="M579.6 214.748c0 31.3-20.931 48.121-46.947 48.121a51.916 51.916 0 01-14.093-1.771l.844 4.219a58.8 58.8 0 0011.488 1.072c26.995 0 51.838-16.431 51.838-51.641z" transform="translate(-467.126 -127.504)"/></g></g><g id="Group_452" data-name="Group 452" transform="translate(0 167.447)" fill="url(#linear-gradient-9)"><path id="Rectangle_160" data-name="Rectangle 160" d="M0 0h15.888v2.147H0z"/><path id="Rectangle_161" data-name="Rectangle 161" transform="translate(276.112)" d="M0 0h15.888v2.147H0z"/></g></g></g></svg>