<svg id="logo" xmlns="http://www.w3.org/2000/svg" width="202.25" height="244.174"><circle id="Ellipse_12" data-name="Ellipse 12" cx="74.5" cy="74.5" r="74.5" transform="translate(25.896 48.071)" fill="#fff"/><g id="logo_dark" data-name="logo dark" transform="translate(102.804 124.335)"><g id="Group_1373" data-name="Group 1373" transform="translate(-43.5 -26.617)" fill="#001721"><g id="Group_1367" data-name="Group 1367" transform="translate(8.188 47.134)"><path id="Path_12794" data-name="Path 12794" d="M64 372.819h1.363c1.815 0 2.869 1.054 2.869 2.53a2.68 2.68 0 01-2.861 2.711H64zm.791 5.113h.52c1.129 0 2.063-.836 2.063-2.553 0-1.89-1.107-2.432-2.139-2.432h-.444z" transform="translate(-64.002 -372.254)"/><path id="Path_12795" data-name="Path 12795" d="M105.1 384.178c1.129 0 1.6.851 1.6 1.935 0 .836-.3 1.905-1.664 1.905-1.212 0-1.6-.889-1.6-1.875s.446-1.965 1.664-1.965zm-.03 3.72c.738 0 .858-.911.858-1.762 0-.941-.173-1.845-.858-1.845s-.858.986-.858 1.905c.002.941.212 1.704.86 1.704z" transform="translate(-98.393 -382.16)"/><path id="Path_12796" data-name="Path 12796" d="M136.518 374.211l.008-5.806h.715v5.806z" transform="translate(-127.24 -368.405)"/><path id="Path_12797" data-name="Path 12797" d="M152.819 386.61a1.31 1.31 0 01-1.378 1.408c-1.122 0-1.679-.625-1.679-1.83 0-1.536.858-2.01 1.589-2.01.979 0 1.483.587 1.483 1.664v.09h-2.289c0 .738.015 1.935 1.032 1.935a1.144 1.144 0 001.122-1.257zm-.715-.8c0-1.062-.294-1.514-.768-1.514-.437 0-.746.391-.791 1.514z" transform="translate(-138.79 -382.16)"/><path id="Path_12798" data-name="Path 12798" d="M176.014 384.532h.775l1.19 2.869h.038l.956-2.869h.361l-1.634 3.863h-.045z" transform="translate(-161.683 -382.469)"/><path id="Path_12799" data-name="Path 12799" d="M223.515 371.29h.038l2.342 4.811 2.041-4.811h.038l.949 5.436h-.768l-.663-3.893-1.912 4.187h-.045l-2.138-4.435-.55 4.141h-.331z" transform="translate(-202.234 -370.921)"/><path id="Path_12800" data-name="Path 12800" d="M281.959 386.61a1.31 1.31 0 01-1.378 1.408c-1.122 0-1.679-.625-1.679-1.83 0-1.536.858-2.01 1.589-2.01.979 0 1.483.587 1.483 1.664v.09h-2.289c0 .738.015 1.935 1.032 1.935a1.144 1.144 0 001.122-1.257zm-.715-.8c0-1.062-.294-1.514-.768-1.514-.437 0-.745.391-.791 1.514z" transform="translate(-251.407 -382.16)"/><path id="Path_12801" data-name="Path 12801" d="M311.368 373.653a1.15 1.15 0 01-1.077.61c-1.024 0-1.37-.806-1.37-1.867s.429-1.958 1.483-1.958a1.2 1.2 0 01.941.422l.023-.007V368.4h.715v5.806h-.7v-.557zm-.873.444c.746 0 .889-.851.889-1.8 0-.813-.1-1.732-.828-1.732-.753 0-.851 1-.851 1.815-.005.912.095 1.72.79 1.72z" transform="translate(-277.586 -368.405)"/><path id="Path_12802" data-name="Path 12802" d="M342.747 371.172a.466.466 0 01.459.459.46.46 0 01-.459.452.453.453 0 01-.452-.452.46.46 0 01.452-.459zm.346 1.709v3.742h-.73c0-1.009.008-2.726.008-3.742z" transform="translate(-306.69 -370.818)"/><path id="Path_12803" data-name="Path 12803" d="M359.935 386.61a1.31 1.31 0 01-1.363 1.408c-1.175 0-1.679-.655-1.679-1.837 0-1.325.753-2 1.6-2 1.115 0 1.348.73 1.348 1.145a1.215 1.215 0 01-.008.173h-.655c0-.783-.264-1.2-.693-1.2s-.813.369-.813 1.709v.173c0 1.318.437 1.687 1.009 1.687a1.137 1.137 0 001.13-1.257z" transform="translate(-319.42 -382.16)"/><path id="Path_12804" data-name="Path 12804" d="M384.626 384.365a2.191 2.191 0 01.655-.128c.136 0 .264.007.4.015a1.174 1.174 0 011.039 1.084c.158.828.271 1.453.377 1.973.09.414.2.565.4.58h.1l.015.121a1.606 1.606 0 01-.346.06c-.467 0-.753-.1-.874-.587a1.575 1.575 0 01-1.16.587.864.864 0 01-.143-.008.906.906 0 01-.881-.987c0-.934.979-1.348 1.86-1.363-.12-.723-.346-1.288-.979-1.288a1.554 1.554 0 00-.429.053zm.888 3.4a1.207 1.207 0 00.843-.4c-.09-.384-.173-.956-.279-1.536a1.084 1.084 0 00-1.144 1.122c0 .539.211.81.58.81z" transform="translate(-343.237 -382.211)"/><path id="Path_12805" data-name="Path 12805" d="M415.635 374.211l.008-5.806h.715v5.806z" transform="translate(-370.647 -368.405)"/><path id="Path_12806" data-name="Path 12806" d="M450.567 375.714a1.9 1.9 0 01-2.093 1.988 2.349 2.349 0 01-2.583-2.575 2.486 2.486 0 012.5-2.779c1.566 0 2.078.919 2.078 1.619a1.335 1.335 0 01-.008.181h-.76c0-1.288-.55-1.679-1.3-1.679-.881 0-1.641.715-1.641 2.545 0 1.935.821 2.545 1.837 2.545a1.725 1.725 0 001.852-1.845z" transform="translate(-397.032 -371.844)"/><path id="Path_12807" data-name="Path 12807" d="M491.8 386.61a1.31 1.31 0 01-1.378 1.408c-1.122 0-1.679-.625-1.679-1.83 0-1.536.858-2.01 1.589-2.01.979 0 1.483.587 1.483 1.664v.09h-2.289c0 .738.015 1.935 1.032 1.935a1.144 1.144 0 001.122-1.257zm-.715-.8c0-1.062-.294-1.514-.768-1.514-.437 0-.745.391-.791 1.514z" transform="translate(-434.399 -382.16)"/><path id="Path_12808" data-name="Path 12808" d="M519.348 384.223h.693v.647h.03a1.351 1.351 0 011.175-.693 1.03 1.03 0 011.129 1.175v2.613h-.715v-2.553c0-.444-.038-.987-.67-.987-.587 0-.919.527-.919 1.182v2.357h-.723z" transform="translate(-461.091 -382.16)"/><path id="Path_12809" data-name="Path 12809" d="M550.687 378.677a1.41 1.41 0 01-1.122.565c-.655 0-.934-.369-.934-1v-2.666h-.617v-.128h.617v-.821l.67-.512h.068v1.333h1.122v.128h-1.122v2.545c0 .625.143.873.557.873a.856.856 0 00.685-.384z" transform="translate(-486.089 -373.384)"/><path id="Path_12810" data-name="Path 12810" d="M573.909 386.61a1.31 1.31 0 01-1.378 1.408c-1.122 0-1.679-.625-1.679-1.83 0-1.536.858-2.01 1.589-2.01.979 0 1.483.587 1.483 1.664v.09h-2.289c0 .738.015 1.935 1.032 1.935a1.144 1.144 0 001.122-1.257zm-.715-.8c0-1.062-.294-1.514-.768-1.514-.437 0-.745.391-.791 1.514z" transform="translate(-506.005 -382.16)"/><path id="Path_12811" data-name="Path 12811" d="M603.005 387.915h-.723v-3.742h.09l.557 1.107h.03c.09-.693.452-1.159 1.054-1.159a1.577 1.577 0 01.369.038v.73a1.323 1.323 0 00-.527-.128c-.542 0-.851.384-.851 1.092z" transform="translate(-533.414 -382.109)"/></g><g id="Group_1371" data-name="Group 1371" transform="translate(1.535)"><g id="Group_1368" data-name="Group 1368" transform="translate(0 1.947)"><path id="Path_12812" data-name="Path 12812" d="M191.861 58.274a21.5 21.5 0 00-.671-5.437l-2.01-4.783a17.192 17.192 0 00-5.624-5.652l-.327 1.827q.379.345.735.724l.185-1.424 1.594 3.778a16.649 16.649 0 011.757 4.162l4.16 9.856a23.067 23.067 0 00.201-3.051z" transform="translate(-161.321 -38.924)"/><path id="Path_12813" data-name="Path 12813" d="M38.879 35.308a13.4 13.4 0 01.173 2.074c0 13.463-7.818 17.355-18.135 17.355h-5.828V16.154h4.837c4.909 0 8.6.34 12.143 3.125l.3-1.652c-3.434-1.93-6.7-2.4-11.857-2.4H12v40.5h8.8c11.236 0 18.521-4.3 20.5-13.812z" transform="translate(-12 -15.221)"/></g><path id="Path_12814" data-name="Path 12814" d="M130.039 327.636l-.141.3h3.46l.135-1.066z" transform="translate(-114.814 -285.048)"/><g id="Group_1369" data-name="Group 1369" transform="translate(15.734)"><path id="Path_12815" data-name="Path 12815" d="M426.144 3.083L425.5 0h-.893l-3.468 7.761a18.646 18.646 0 015.005-4.678z" transform="translate(-384.531)"/><path id="Path_12816" data-name="Path 12816" d="M449.863 62.671c-1.259 1-2.4 4.047-2.835 5.326l4.218 29.541h3.732z" transform="translate(-407.104 -54.653)"/><path id="Path_12817" data-name="Path 12817" d="M167.344 18.127l-7.971 21.429L142.943.455H142l-7.023 39.2c1.139-.362 2.8-.9 3.424-1.1L142.3 8.588 157.872 45.5h.863l8.221-20.648c.06-1.658.189-4.77.388-6.725z" transform="translate(-134.98 -.397)"/></g><g id="Group_1370" data-name="Group 1370" transform="translate(49.485 1.481)"><path id="Path_12818" data-name="Path 12818" d="M407.169 48.453c-3.294-2.856-4.954-7.785-4.954-16.362 0-14.1 6.761-19.641 14.687-19.641 6.819 0 11.948 3.031 11.948 13h3.38a10.317 10.317 0 00.058-1.4c0-5.42-3.555-12.472-15.445-12.472-10.025 0-18.067 7.577-18.067 21.448 0 8.788 2.774 14.765 8.707 17.736z" transform="translate(-398.777 -11.576)"/><path id="Path_12819" data-name="Path 12819" d="M536.75 214.748c0 9.325-6.236 14.337-13.988 14.337a15.469 15.469 0 01-4.2-.528l.252 1.257a17.518 17.518 0 003.423.319c8.043 0 15.445-4.9 15.445-15.386z" transform="translate(-503.237 -188.754)"/></g></g><g id="Group_1372" data-name="Group 1372" transform="translate(0 49.89)"><path id="Rectangle_476" data-name="Rectangle 476" d="M0 0h4.734v.64H0z"/><path id="Rectangle_477" data-name="Rectangle 477" transform="translate(82.266)" d="M0 0h4.734v.64H0z"/></g></g></g><g id="Group_763" data-name="Group 763" transform="rotate(139 81.01 91.017)"><path id="Path_4" data-name="Path 4" d="M34.3.475c-.265.3-1.377 1.29-2.473 2.208C29.491 4.645 28.8 5.4 28.1 6.871a25.456 25.456 0 00-1.8 5.953c0 .548-.141.849-.741 1.537a71.568 71.568 0 01-6.891 6.962 32.924 32.924 0 00-5.583 5.9c-.723.971-1.272 1.572-1.219 1.325.07-.248.212-1.273.318-2.28a13.264 13.264 0 012.261-6.36 14.689 14.689 0 002.845-6.961 14.118 14.118 0 01.53-2.226 2.08 2.08 0 00.177-.707c0-.689-.672-.406-1.962.813-3.2 3.022-4.293 6.131-4.593 12.95-.212 5.124-.512 6.237-2.7 10.141a31.9 31.9 0 00-3.41 10C5.164 45 4.97 45.756 4.9 45.65a20.645 20.645 0 01-.531-2.085c-.37-1.66-.405-2.332-.423-6.449v-4.593l-.672-2.385c-.761-2.668-.849-2.915-1.2-2.915-.371 0-1.926 5.653-2.05 7.438a12.918 12.918 0 002.42 8.021 21.971 21.971 0 012.314 4.752 8.868 8.868 0 01.335 3.166 24.565 24.565 0 002.916 12.045 47.989 47.989 0 012.208 5.389c.688 2.208 2.349 8.922 2.244 9.045-.194.177-3.286-4.822-3.851-6.218a15.231 15.231 0 00-3.976-6.308 13.871 13.871 0 01-1.572-1.89c-.176-.353-.406-.548-.636-.548-.335 0-.352.071-.264.566.053.318.229 1.413.371 2.438.724 5.088 1.591 6.625 5.194 9.168a18.638 18.638 0 014.573 4.735c.6 1.149.672 1.5 1.184 6.484a45.746 45.746 0 002.3 9.752 93.821 93.821 0 004.293 9.028c1.29 2.491 1.484 2.986 1.114 2.721a10.568 10.568 0 00-1.255-.725 24.533 24.533 0 01-4.964-3.974 17.489 17.489 0 01-5.02-10.653 14.277 14.277 0 00-1.361-4.717c-.795-1.555-4.2-6.484-4.434-6.4-.123.035-.211.3-.194.583.053 1.343.636 6.131.883 7.226a10.978 10.978 0 002.386 4.612 45.186 45.186 0 014.028 5.989 22.025 22.025 0 003.321 4.31 7.733 7.733 0 011.042 1.22 12.148 12.148 0 01-3.215-1.785 20.091 20.091 0 00-5.725-2.774 43.026 43.026 0 00-6.4-1.484c-.3.195-.123.583.494 1.043.353.265 1.519 1.325 2.6 2.333 3.233 3.074 4.77 3.709 9.576 3.957 3.215.177 5.371.583 6.8 1.308a25.783 25.783 0 014.241 3.2 56.919 56.919 0 006.042 4.7 48.187 48.187 0 006.571 2.968l2.12.848-.989.195a8.374 8.374 0 01-2.721.035 10.3 10.3 0 01-4.841-1.484 144.722 144.722 0 00-3.887-1.819 7.328 7.328 0 00-4.151-.9c-2.951-.106-4.223.07-4.293.583-.036.3.106.423.724.671a27.271 27.271 0 013.321 2c1.4.918 3.3 2.049 4.222 2.508a5.4 5.4 0 003.445.813 19.191 19.191 0 004.329-.566c6.148-1.325 6.184-1.343 7.35-.954a68.314 68.314 0 018.868 3.728A38.942 38.942 0 0159 129.71c2.491 2.385 3.534 3.179 5.018 3.9l1.236.6-2.65-.088a34.862 34.862 0 01-9.841-1.855 10.811 10.811 0 00-4.523-1.079 17.522 17.522 0 01-2.632-.264 18.871 18.871 0 00-6.148 0 20.4 20.4 0 01-2.226.264c-.459 0-.689.088-.76.3-.177.441.353.759 1.219.759a7.533 7.533 0 012.95 1.148 12.985 12.985 0 006.007 1.767 9.75 9.75 0 004.876-.813 5.483 5.483 0 013.922-.248A24.622 24.622 0 0065 135.1c1.961-.212 2.119-.194 4.911.336 7.58 1.413 11.89 1.148 18.975-1.166a60.01 60.01 0 0010.37-5.035 29.411 29.411 0 013.269-1.679c2.314-.971 5.848-2.7 8.3-4.045a20.364 20.364 0 017.685-2.65l.972-.124-1.644.83a17.956 17.956 0 00-6.1 5.654 17.243 17.243 0 01-6.13 5.741 12.128 12.128 0 01-5.8 1.66c-5.229.584-6.555 1.132-9.257 3.887-1.767 1.785-2.173 2.4-1.731 2.668a1.5 1.5 0 00.794-.16 16.167 16.167 0 012.792-.547 14.225 14.225 0 008.587-3.71 7.824 7.824 0 012.244-1.591 20.705 20.705 0 007.155-4.451 33.6 33.6 0 002.333-2.9 27 27 0 012.809-3.25 13.461 13.461 0 014.258-2.757c2.826-1.413 3.851-1.731 3.251-1.078a12.61 12.61 0 00-1.1 2.173c-.46 1.006-.937 2.1-1.1 2.42a7.94 7.94 0 01-3.075 2.862c-2.031 1.025-3.675 3.11-4.876 6.185a9.1 9.1 0 01-.972 1.819c-.953 1.219-.265 1.855.813.707a15.573 15.573 0 013.021-1.978c2.668-1.467 4.205-2.721 4.823-3.94a15.007 15.007 0 001.1-4.01 17.089 17.089 0 011.554-4.434c.6-1.2.742-1.378 1.679-1.891a7.457 7.457 0 012.1-.741c3.356-.548 8.409-4.382 10.793-8.181.6-.971 1.309-2.173 1.573-2.667a35.478 35.478 0 002.191-5.689 31 31 0 011.078-3.216c1.006-2.615 1.006-3.533-.019-2.437a20.037 20.037 0 00-2.225 5.423c-.318 1.237-.478 1.59-.866 1.837-.248.159-.971.707-1.607 1.219a28.97 28.97 0 01-5.813 3.393 11.475 11.475 0 01-2.4.229 9.446 9.446 0 01-3.357-.53c-2.987-.918-4.082-.865-6.519.283-1.236.583-3.11 2.12-3.11 2.543 0 .407-.018.407 2.032.354a17.85 17.85 0 013.091.247 19.747 19.747 0 006.024.106 21.922 21.922 0 0010.247-5.476c1.431-1.255 1.361-.972-.582 2.438a14.082 14.082 0 01-3.145 4.24 19.739 19.739 0 01-5.211 3.817 8.2 8.2 0 01-3.534.882 96.522 96.522 0 00-10.247 1.626 28.826 28.826 0 00-6.556 2.915 12.558 12.558 0 01-2.03 1.042c-.142 0-1.132-.211-2.191-.459-1.714-.406-2.491-.477-6.537-.6a32.152 32.152 0 01-6.272-.513 24.444 24.444 0 00-7.845-.317 10.643 10.643 0 00-2.455.459c-.884.883 5.458 3.551 8.445 3.551a21.434 21.434 0 005.6-1.325 15.665 15.665 0 017.809-.53 7.422 7.422 0 011.873.459 8.573 8.573 0 01-1.714.865 26.651 26.651 0 00-4.946 2.438c-.566.372-2.491 1.45-4.293 2.368a42.7 42.7 0 01-9.769 3.676c-1.025.211-1.042.194-2.3-.442a53.692 53.692 0 01-6.66-4.417 15.282 15.282 0 00-3.939-2.651 15.819 15.819 0 00-6.449-1.219c-2.968-.123-2.95-.123-.9 1.519a11.288 11.288 0 005.37 2.545c5.318.883 5.725 1.024 8.357 2.773 1.042.689 2.385 1.519 3 1.819 1.361.69 1.219.778-1.466.9A40.783 40.783 0 0165.8 133.1a11.6 11.6 0 01-4.858-3.216c-.937-.9-2.28-2.12-2.987-2.738a13.054 13.054 0 01-3.232-4.188c-.212-.477-.689-1.378-1.042-2.014a9 9 0 01-.883-2.208 24.905 24.905 0 00-.619-2.209 16.99 16.99 0 01-.619-2.826 13.152 13.152 0 00-.9-3.41 21.533 21.533 0 01-1.307-5.512c-.23-1.4-2.88-5.813-3.427-5.707-.248.054-.3.53-.424 3.321a24.154 24.154 0 00.034 4.17 14.35 14.35 0 002.969 5.512 22.7 22.7 0 011.943 2.773 21.864 21.864 0 011.289 3.232 4.568 4.568 0 01-.83-.848c-.954-1.112-4.24-4.54-5.794-6.042a16.457 16.457 0 00-2.65-1.962 9.19 9.19 0 01-3.022-2.684 24.966 24.966 0 00-2.49-2.633A50.314 50.314 0 0030 99.923c-.335 0-.389.5-.123 1.007.16.265.689 1.325 1.184 2.35a12.946 12.946 0 003.71 4.876 15.183 15.183 0 005.741 3.392A44.417 44.417 0 0145 113.579a12.056 12.056 0 014.116 3.3 19.5 19.5 0 014.311 5.882l.972 1.908-.671-.423a72.257 72.257 0 00-7.12-3.569c-14.8-5.813-15.546-6.166-19.257-9.081a17.549 17.549 0 01-4.717-5 5.915 5.915 0 01-1.078-3.32c-.282-2.51-.265-3 .142-4.1a12.1 12.1 0 012.4-3.729c.6-.724 1.325-1.66 1.591-2.084.282-.425 1.59-1.943 2.914-3.357 2.562-2.757 3.516-4.188 3.853-5.742.088-.5.282-2.156.389-3.675.194-2.386.175-2.809-.036-2.95a.984.984 0 00-.371-.16 8.3 8.3 0 00-.918 1.414A29.4 29.4 0 0129.1 82.2a28.58 28.58 0 00-2.05 2.668 14.82 14.82 0 00-1.55 4.79c-.247 2.616-.6 3.357-3.269 6.7-.83 1.043-.865 1.078-.76.531.053-.317.389-1.537.724-2.7 1.714-5.9 1.82-6.66 1.855-12.632l.036-4.152L23.5 76a14.534 14.534 0 01-.919-3.692 14.635 14.635 0 00-1.5-4.894c-.636-1.431-1.148-2.685-1.148-2.791 0-.23-.547-.441-.707-.266a29.363 29.363 0 00-.883 6.467c0 2.491.3 3.462 2.067 6.714a34.471 34.471 0 012.031 4.417 7.343 7.343 0 01.441 3.657 22.7 22.7 0 01-1.343 6.8c-1.13 3.551-1.307 4.54-1.219 7.438l.053 2.544-1.184-2.385a42.669 42.669 0 01-4.823-16.96c-.159-1.749-.389-3.9-.53-4.806a93.134 93.134 0 00-3.3-12.862 7.515 7.515 0 01-.353-3.179c.017-4.205.76-5.8 2.95-6.289a5.115 5.115 0 012.65.106 6.721 6.721 0 004.188-.265 5.9 5.9 0 003.674-2.95c.866-1.5 1.2-2.455.954-2.7-.123-.123-.636.035-1.537.441a19.268 19.268 0 01-5.212 1.414 11.589 11.589 0 00-4.789 1.873 4.239 4.239 0 01-1.007.654 40.454 40.454 0 013.216-5.018 46.64 46.64 0 013.71-4.046c2.862-2.844 3.481-3.763 4.028-6.024a27.14 27.14 0 00.531-5.23c-.212-.353-.689 0-2.845 2.1-3.232 3.2-3.6 3.87-4.646 8.533a8.818 8.818 0 01-1.855 4.329c-3.11 4.2-4.612 7.757-4.824 11.467l-.123 1.926-.92-1.923c-1.678-3.5-2.26-6.944-2.119-12.491a24.354 24.354 0 011.448-8.749 42.652 42.652 0 016.077-11.041c.654-.9.742-.954 1.644-1.06.512-.053 2.137-.371 3.586-.724 1.467-.353 3.286-.777 4.082-.972a18.648 18.648 0 005.547-2.314 14.415 14.415 0 003.886-3c1.873-1.873 3.18-3.745 3.18-4.541 0-.512-.247-.512-1.626.019-.619.229-1.59.566-2.156.741-1.836.548-4.857 2.862-7.543 5.76a12.786 12.786 0 01-2.6 2.314 33.733 33.733 0 01-6.36 1.8c-.177-.176 1.66-2.066 3.71-3.816 1.236-1.06 3.5-3.3 5.035-4.965 1.537-1.678 3.958-4.2 5.371-5.617 2.385-2.368 2.632-2.686 3.462-4.33.919-1.836 2.421-6.466 2.314-7.172-.042-.294-.145-.44-.3-.44s-.389.16-.669.475" fill="#c8a37b"/></g><g id="Group_764" data-name="Group 764" transform="rotate(-40 185.24 67.422)"><path id="Path_4-2" data-name="Path 4" d="M34.5.48c-.267.3-1.385 1.3-2.487 2.232-2.346 1.983-3.04 2.751-3.75 4.233a25.826 25.826 0 00-1.813 6.017c0 .554-.142.858-.745 1.553a72.168 72.168 0 01-6.932 7.037 33.212 33.212 0 00-5.615 5.965c-.728.982-1.279 1.589-1.226 1.34.071-.25.214-1.286.32-2.3a13.45 13.45 0 012.275-6.429 14.888 14.888 0 002.861-7.036 14.328 14.328 0 01.533-2.25 2.111 2.111 0 00.178-.714c0-.7-.675-.411-1.973.821-3.217 3.054-4.318 6.2-4.62 13.09-.214 5.179-.515 6.3-2.72 10.251a32.348 32.348 0 00-3.43 10.108c-.16 1.089-.355 1.856-.425 1.749a20.952 20.952 0 01-.535-2.108c-.372-1.678-.408-2.357-.425-6.519v-4.645l-.675-2.41c-.765-2.7-.854-2.947-1.208-2.947-.373 0-1.937 5.714-2.062 7.518a13.1 13.1 0 002.434 8.108 22.255 22.255 0 012.328 4.8 9.006 9.006 0 01.339 3.2 24.93 24.93 0 002.929 12.179 48.644 48.644 0 012.221 5.447c.692 2.232 2.363 9.018 2.257 9.143-.2.179-3.305-4.874-3.874-6.285a15.405 15.405 0 00-4-6.376 14.007 14.007 0 01-1.581-1.911c-.177-.357-.409-.554-.64-.554-.337 0-.355.072-.266.572.053.322.23 1.429.373 2.465.729 5.143 1.6 6.7 5.225 9.268a18.8 18.8 0 014.6 4.786c.6 1.162.676 1.519 1.191 6.554a46.43 46.43 0 002.31 9.857 95.049 95.049 0 004.318 9.126c1.3 2.518 1.493 3.019 1.12 2.751a10.616 10.616 0 00-1.262-.733 24.7 24.7 0 01-4.993-4.017 17.714 17.714 0 01-5.045-10.77 14.484 14.484 0 00-1.369-4.768c-.8-1.571-4.229-6.554-4.46-6.464-.124.036-.213.3-.2.589.053 1.358.64 6.2.888 7.3a11.116 11.116 0 002.4 4.661 45.688 45.688 0 014.052 6.054 22.25 22.25 0 003.341 4.357 7.809 7.809 0 011.048 1.233 12.2 12.2 0 01-3.234-1.8A20.169 20.169 0 006.722 101 43.1 43.1 0 00.29 99.5c-.3.2-.124.59.5 1.054.355.268 1.528 1.34 2.612 2.358 3.252 3.107 4.8 3.749 9.632 4 3.234.179 5.4.59 6.841 1.322a25.945 25.945 0 014.266 3.233 57.289 57.289 0 006.077 4.75 48.358 48.358 0 006.61 3l2.133.857-.995.2a8.383 8.383 0 01-2.737.036 10.328 10.328 0 01-4.869-1.5 148.997 148.997 0 00-3.91-1.839 7.342 7.342 0 00-4.175-.911c-2.969-.107-4.248.071-4.319.59-.036.3.106.428.729.678a27.4 27.4 0 013.341 2.018c1.4.928 3.322 2.071 4.247 2.535a5.414 5.414 0 003.465.822 19.214 19.214 0 004.354-.572c6.185-1.34 6.22-1.358 7.394-.965a68.532 68.532 0 018.92 3.768 39.167 39.167 0 018.939 6.18c2.506 2.41 3.555 3.214 5.047 3.946l1.244.607-2.665-.089a34.916 34.916 0 01-9.9-1.875 10.831 10.831 0 00-4.549-1.09 17.542 17.542 0 01-2.648-.267 18.889 18.889 0 00-6.185 0 20.423 20.423 0 01-2.239.267c-.462 0-.693.089-.764.3-.178.446.355.767 1.226.767.569 0 1.28.286 2.968 1.161a13.014 13.014 0 006.043 1.786 9.765 9.765 0 004.9-.821 5.49 5.49 0 013.945-.25 24.651 24.651 0 009.614 1c1.972-.214 2.132-.2 4.94.339 7.624 1.429 11.96 1.161 19.086-1.178a60.239 60.239 0 0010.431-5.09 29.528 29.528 0 013.288-1.7c2.328-.982 5.882-2.732 8.352-4.089a20.417 20.417 0 017.73-2.679l.978-.126-1.653.839a18.1 18.1 0 00-6.131 5.715 17.379 17.379 0 01-6.166 5.8 12.156 12.156 0 01-5.829 1.678c-5.26.591-6.593 1.144-9.312 3.929-1.777 1.8-2.186 2.429-1.741 2.7a1.507 1.507 0 00.8-.161 16.19 16.19 0 012.808-.553 14.275 14.275 0 008.637-3.75 7.87 7.87 0 012.257-1.608 20.812 20.812 0 007.2-4.5 33.928 33.928 0 002.346-2.93 27.25 27.25 0 012.825-3.285 13.536 13.536 0 014.283-2.786c2.843-1.428 3.874-1.749 3.27-1.089a12.77 12.77 0 00-1.1 2.2c-.463 1.017-.942 2.124-1.1 2.446a8 8 0 01-3.093 2.893c-2.043 1.036-3.7 3.144-4.9 6.251a9.217 9.217 0 01-.978 1.839c-.959 1.232-.267 1.875.817.714a15.66 15.66 0 013.039-2c2.684-1.483 4.23-2.751 4.851-3.983a15.228 15.228 0 001.1-4.054 17.331 17.331 0 011.564-4.482c.6-1.215.746-1.393 1.689-1.912a7.476 7.476 0 012.115-.749c3.375-.554 8.458-4.43 10.857-8.269.6-.982 1.316-2.2 1.582-2.7a35.972 35.972 0 002.2-5.751 31.447 31.447 0 011.084-3.25c1.012-2.643 1.012-3.571-.019-2.464a20.308 20.308 0 00-2.238 5.482c-.32 1.251-.48 1.607-.871 1.857-.249.16-.977.714-1.617 1.232a29.106 29.106 0 01-5.847 3.429 11.488 11.488 0 01-2.416.239 9.459 9.459 0 01-3.376-.535c-3-.928-4.106-.875-6.558.286-1.244.589-3.128 2.143-3.128 2.571 0 .412-.018.412 2.044.358a17.87 17.87 0 013.11.249 19.767 19.767 0 006.06.107 22.015 22.015 0 0010.307-5.535c1.44-1.268 1.369-.983-.586 2.464a14.229 14.229 0 01-3.164 4.286 19.86 19.86 0 01-5.241 3.858 8.219 8.219 0 01-3.555.892 96.659 96.659 0 00-10.307 1.643 28.925 28.925 0 00-6.594 2.947 12.607 12.607 0 01-2.042 1.053c-.143 0-1.138-.214-2.2-.464-1.724-.411-2.506-.482-6.575-.607a32.188 32.188 0 01-6.309-.518 24.47 24.47 0 00-7.891-.321 10.659 10.659 0 00-2.47.464c-.889.893 5.49 3.59 8.495 3.59a21.47 21.47 0 005.633-1.34 15.684 15.684 0 017.855-.535 7.437 7.437 0 011.884.464 8.607 8.607 0 01-1.724.875 26.757 26.757 0 00-4.975 2.464c-.569.376-2.506 1.465-4.319 2.393a42.823 42.823 0 01-9.827 3.715c-1.031.214-1.049.2-2.311-.447a53.984 53.984 0 01-6.7-4.465 15.366 15.366 0 00-3.962-2.679A15.845 15.845 0 0065.58 127c-2.985-.125-2.968-.125-.906 1.536a11.33 11.33 0 005.4 2.573c5.35.893 5.758 1.035 8.406 2.8 1.048.7 2.4 1.536 3.021 1.839 1.369.7 1.226.787-1.475.912a40.839 40.839 0 01-13.843-2.125 11.667 11.667 0 01-4.887-3.25 108.76 108.76 0 00-3-2.768 13.188 13.188 0 01-3.251-4.233c-.214-.482-.693-1.393-1.049-2.035a9.125 9.125 0 01-.888-2.232c-.125-.59-.41-1.59-.622-2.233a17.247 17.247 0 01-.622-2.857 13.347 13.347 0 00-.907-3.446 21.854 21.854 0 01-1.315-5.572c-.231-1.411-2.9-5.875-3.447-5.769-.249.054-.3.535-.426 3.357a24.534 24.534 0 00.035 4.215 14.529 14.529 0 002.986 5.572 22.953 22.953 0 011.955 2.8 22.164 22.164 0 011.3 3.267 4.605 4.605 0 01-.835-.857c-.96-1.124-4.265-4.589-5.828-6.107a16.558 16.558 0 00-2.665-1.983 9.259 9.259 0 01-3.04-2.713 25.183 25.183 0 00-2.505-2.662A50.546 50.546 0 0030.18 101c-.337 0-.391.5-.124 1.018.16.268.693 1.34 1.191 2.376a13.079 13.079 0 003.732 4.929 15.256 15.256 0 005.775 3.429 44.577 44.577 0 014.514 2.053 12.137 12.137 0 014.14 3.34 19.7 19.7 0 014.336 5.946l.978 1.929-.675-.428a72.543 72.543 0 00-7.162-3.608c-14.892-5.876-15.637-6.233-19.37-9.179a17.7 17.7 0 01-4.745-5.054 6 6 0 01-1.084-3.356c-.284-2.537-.267-3.036.143-4.143a12.238 12.238 0 012.416-3.769c.605-.732 1.333-1.678 1.6-2.107.284-.429 1.6-1.964 2.931-3.393 2.577-2.786 3.537-4.233 3.875-5.8.089-.5.284-2.179.391-3.714.2-2.411.176-2.84-.036-2.982a.987.987 0 00-.373-.161 8.4 8.4 0 00-.924 1.429 29.707 29.707 0 01-2.435 3.339 28.873 28.873 0 00-2.062 2.7 15.032 15.032 0 00-1.564 4.84c-.248 2.644-.6 3.393-3.288 6.768-.835 1.055-.87 1.089-.764.536.053-.321.391-1.554.729-2.732 1.724-5.965 1.83-6.732 1.866-12.768l.036-4.2-.587-1.411a14.75 14.75 0 01-.925-3.732 14.847 14.847 0 00-1.51-4.946c-.64-1.447-1.155-2.714-1.155-2.821 0-.232-.55-.446-.711-.269a29.817 29.817 0 00-.888 6.536c0 2.518.3 3.5 2.08 6.787a34.926 34.926 0 012.043 4.465 7.456 7.456 0 01.444 3.7 23.046 23.046 0 01-1.351 6.875C20.531 97 20.353 98 20.442 100.932l.053 2.572-1.19-2.41a43.291 43.291 0 01-4.851-17.144c-.16-1.768-.391-3.947-.533-4.858a94.515 94.515 0 00-3.323-13 7.63 7.63 0 01-.355-3.214c.017-4.251.764-5.858 2.968-6.357a5.12 5.12 0 012.665.107 6.729 6.729 0 004.212-.268 5.944 5.944 0 003.7-2.982c.871-1.518 1.209-2.482.96-2.732-.124-.125-.64.036-1.546.446a19.309 19.309 0 01-5.242 1.429 11.625 11.625 0 00-4.817 1.893 4.26 4.26 0 01-1.013.661A40.919 40.919 0 0115.359 50a47.062 47.062 0 013.732-4.09c2.879-2.874 3.5-3.8 4.052-6.089a27.564 27.564 0 00.534-5.287c-.214-.356-.693 0-2.861 2.125-3.251 3.233-3.625 3.911-4.673 8.625a8.935 8.935 0 01-1.866 4.375c-3.128 4.25-4.639 7.841-4.852 11.591L9.3 63.2l-.925-1.946C6.687 57.715 6.1 54.233 6.243 48.626A24.726 24.726 0 017.7 39.785a43.178 43.178 0 016.113-11.16c.658-.911.746-.965 1.653-1.072.515-.053 2.15-.375 3.607-.732 1.476-.357 3.305-.786 4.106-.983a18.707 18.707 0 005.58-2.339 14.509 14.509 0 003.909-3.036c1.884-1.893 3.2-3.786 3.2-4.59 0-.518-.248-.518-1.635.019-.622.232-1.6.572-2.168.749-1.847.554-4.886 2.893-7.588 5.822a12.881 12.881 0 01-2.614 2.337 33.8 33.8 0 01-6.4 1.822c-.178-.178 1.67-2.089 3.732-3.857 1.244-1.072 3.518-3.339 5.064-5.019 1.546-1.7 3.981-4.25 5.4-5.678 2.4-2.393 2.648-2.715 3.483-4.376.925-1.856 2.435-6.536 2.328-7.25-.043-.3-.145-.444-.3-.444s-.39.163-.67.482" fill="#c8a37b"/></g></svg>