<svg xmlns="http://www.w3.org/2000/svg" width="1920" height="1564"><defs><linearGradient id="linear-gradient" x1="6.731" y1="-3.231" x2="8.07" y2="-3.231" gradientUnits="objectBoundingBox"><stop offset="0" stop-color="#a87a57"/><stop offset=".064" stop-color="#ac7f5b"/><stop offset=".197" stop-color="#dfa176"/><stop offset=".341" stop-color="#af805e"/><stop offset="1" stop-color="#c8a37b"/></linearGradient><clipPath id="clip-path"><path id="Rectangle_557" data-name="Rectangle 557" fill="none" stroke="#707070" stroke-width="20" d="M0 2236h1920v1564H0z"/></clipPath></defs><g id="Mask_Group_56" data-name="Mask Group 56" transform="translate(0 -2236)" clip-path="url(#clip-path)"><g id="Group_1544" data-name="Group 1544" transform="translate(-147 2995)"><g id="Artwork_14" data-name="Artwork 14" transform="rotate(6 -5278.341 1964.75)" opacity=".05"><path id="Path_9141" data-name="Path 9141" d="M928.81 1045.482c-23.961 22.193-50.96 40.1-79.483 55.788a149.948 149.948 0 01-48.414 16.581c-39.682 6.478-77.9-1.168-115.6-12.809-12.35-3.814-23.464-10.485-33.367-18.43-4.719-3.788-6.944-3.024-10.77-.238a733.278 733.278 0 01-185.634 98.34 740.321 740.321 0 01-132.147 34.2c-18.478 2.973-37.05 5.246-56.17 7.284 2.369 2.9 4.831 3.5 7.435 4.135 11.191 2.735 22.263 5.961 33.509 8.44 24.045 5.3 46.507 16.273 71.069 19.65 2.52.347 5.066 1.579 7.6.013 19.756-12.263 42.507-15 64.465-20.289 68.555-16.5 134.07-5.618 197.743 21.888 3.213 1.39 6.507 3.14 6.709 7.23.193 3.9-3.082 5.236-5.878 6.777-10.665 5.875-21.541 11.406-31.968 17.676-32.122 19.323-67.326 28.385-104.282 30.616-28.623 1.724-56.831-1.12-82.86-14.786-14.34-7.528-25.345-19.194-36.494-30.562-4.353-4.44-8.6-8.786-14.944-9.814-22.465-3.637-43.448-11.859-64.568-19.888-4.613-1.756-9.961-5.188-15.73-1.833 2.334 3.451 5.971 5.217 9.265 7.422 51.923 34.761 83.923 82.687 97.592 143.785 7.3 32.629 1.676 64.655.048 96.96-.231 4.61-3.307 7.024-6.376 9.589l-7.512-4.424c-6.1-11.255-16.01-19.261-24.53-28.4-18.613-19.961-41.682-35.04-60.867-54.343-21.091-21.217-39.175-44.629-43.656-75.486a390.69 390.69 0 01-4.334-50.3c-.25-16.783-1.6-33.5-3.419-50.167-.713-6.51-1.5-12.915-11.409-12.36Q118.3 1234.738.735 1203.834c-.26-3.412-.488-6.825-.735-10.238q154.661 41.769 318.616 15.721c6.729-1.072 11.509-3.939 14.536-9.538 11.037-20.4 23.258-40.25 31.49-62.042 13.647-36.125 31.107-69.746 58.263-97.958 37.807-39.287 85.046-67.46 123.464-105.942 1.628-1.631 3.432-2.755 5.169-1.936 2.944 1.387 1.843 4.44 1.721 6.957-1.22 25.387-9.191 49.441-14.411 74.058-8.671 40.9-28.873 75.586-55.965 106.626-26.382 30.234-60.806 49.772-94.725 69.894-1.981 1.175-4.234 1.9-5.7 4.774a65.882 65.882 0 0016.857-3.249c41.782-12.523 82.4-27.868 121.6-47.207 61.958-30.571 117.791-69.743 168.349-116.658a13.316 13.316 0 004.623-8.844c1.865-15.717 1.714-31.323-3.178-46.421-7.525-23.217-14.08-46.716-21.095-70.077a122.668 122.668 0 01-5.355-43.794c.854-13.05 2.889-25.926 4.774-38.838 4.4-30.122 16.478-58.6 19.053-89.123a13.222 13.222 0 011.791-4.851c3.48-6.5 6.713-6.623 10.421-.234 12.231 21.066 25.188 41.762 36.324 63.393 15.034 29.2 22.761 60.035 19.811 93.611-2.732 31.066-14.709 58.071-30.08 84.347-7.21 12.324-12.613 25.621-18.006 41.505 3.233-2.764 4.613-3.769 5.782-4.979a692.5 692.5 0 00136.752-203.652 14.322 14.322 0 00.1-11.685c-4.52-11.949-10.478-23.717-12.6-36.119-3.32-19.335-14.951-26.023-32.524-29.635-27.22-5.586-54.8-8.838-81.993-14.908-45.743-10.215-74.314-40.4-98.725-76.905-1.666-2.494-2.828-5.326-1.021-8.144 1.6-2.488 4.228-2.594 7-2.17 17.236 2.62 34.671 2.35 52.016 3.268 46.6 2.462 86.109 19.1 115.756 56.331 4.761 5.978 10.173 11.438 16.193 18.154-1.83-13.371-13.149-37.2-20.693-44.061-9-8.18-17.791-16.655-27.38-24.1-57.316-44.491-81.387-105.261-86.533-175.4-.623-8.52 3.255-11.172 10.263-7.2a191.2 191.2 0 0173.483 73.348 215.747 215.747 0 0128.533 102.921 53.807 53.807 0 008.315 27.875c21.714 34.912 39.534 71.663 49.782 111.762 1.541 6.032 2.761 12.347 6.331 17.846 3.239-1.823 3.538-4.925 4.53-7.483 45.1-116.684 57.756-236.863 38.889-360.468-.841-5.49-2.565-7.968-8.571-8.135-44.321-1.226-85.088-14.135-124.285-34.928-55.3-29.342-94.806-71.656-116.141-130.667-.9-2.488-2.128-5.034-.093-7.377 2.273-2.632 5.5-2.308 8.032-.934 15.522 8.427 32.684 9.945 49.666 11.348 36.051 2.976 67.531 17.435 94.982 39.621 20.385 16.472 40.42 33.932 55.332 56.144 9.364 13.945 18.873 27.8 29.782 40.632 1.3 1.522 2.093 3.207 4.552 3-.234-2.645-.4-5.22-.716-7.775-.173-1.435-.61-2.838-.921-4.257-5.262-23.987-10.661-39.692-7.409-64.132 2.395-17.977 5.528-36.3 2.79-53.31-4.244-26.343-9.913-52.565-11.493-79.207-3.82-64.343 25.323-117.178 60.456-167.65C938.5 1.96 941.3-.621 945.333.133c4.44.828 4.443 4.764 5.355 8.058 5.2 18.854 6.35 38.523 12.507 57.278 5.233 15.952 7.929 32.748 15.162 48.093 4.594 9.746 5.862 19.936 4.966 30.555-2.7 31.942-10.8 62.032-28.193 89.477-16.164 25.506-31.862 51.342-45.762 78.186-4 7.718-8.3 14.841-5.5 25.021 24.154 87.839 30.549 177.114 20.051 267.614-.266 2.283-1.884 5.188 1.547 7.185a15.006 15.006 0 002.112-2.514c20.35-39.085 40.777-77.81 68.356-112.863 35.4-45 83.149-66.157 136.144-79.666 3.3-.841 6.478-.729 8.777 2.071 2.424 2.947 1.156 6.016-.359 8.937a176.012 176.012 0 00-9.255 21.534c-14.157 39.268-29.377 77.743-54.62 111.935-37.233 50.433-86.032 77.168-148.529 78.847-7.047.189-9.913 2.212-11.207 9.486a676.236 676.236 0 01-71.444 203.89c-1.082 2-2.982 3.936-1.945 7.823 5.881-4.9 11.146-8.88 15.958-13.352 59.717-55.534 132.651-77.627 211.858-83.936 3.024-.241 5.942-.083 7.727 2.764 1.894 3.021.2 5.7-1.57 7.968-4.793 6.173-9.762 12.205-14.722 18.247-11.018 13.435-18.934 29.3-31.682 41.335-45.775 43.239-99.583 69.4-162.616 75.419-15.4 1.47-30.892.552-45.714-3.673-6.709-1.916-9.082.2-12.363 5.008-37.647 55.172-80.915 105.271-133.515 146.87-1.512 1.194-3.348 2.363-1.567 5.393 3.965-1.589 7.9-3 11.7-4.713 25.859-11.695 51.213-24.709 78.934-31.685 52.773-13.278 105.608-19.14 158.52-.385 13.316 4.724 14.629 9.636 4.366 19.142zm-529.947 215.893c.051.379 1.265.6 1.949.9 13.085 3.9 26.363 6.838 40.061 7.233 20.061.584 39.695 4.337 59.361 7.817 3.143.555 8.382.08 7.746 4.751-.491 3.605-5.406 2.761-8.318 2.344-33.194-4.738-67.021-4.6-99.733-12.822 10.928 16.549 41.881 35.095 66.469 39.348 51.075 8.835 99.2-.25 144.712-24.456 10.655-5.663 21.156-11.621 31.916-17.554-80.112-38.09-161.12-30.135-242.574-8.366-.732-.078-1.744-.338-1.589.805zm-127.185 80.665c3.291 21.775 15.165 39.534 29.021 55.615 28.732 33.355 66.947 56.883 95.011 92.764 14.671-102.735-23.059-189.637-120.616-246.314 8.411 11.512 14.918 21.984 22.944 31.124 26.205 29.846 44.488 63.766 54.013 102.266 1.785 7.207 2.921 14.575 5.207 21.692.587 1.817.8 4.565-1.628 5.265-3.04.88-2.78-2.276-3.345-3.92-3.817-11.162-7.99-22.241-11.107-33.6-9.994-36.44-30.78-66.456-55.117-94.481-7.329-8.44-14.414-17.1-23.31-27.672 3.549 34.214 4.189 65.921 8.927 97.261zm207.036-233.123c22.754-28.369 40.9-59.095 48.164-95.319 4.61-22.979 13.621-44.912 16.587-69.942-23.628 22.478-48.507 41.008-73.053 59.8a238.167 238.167 0 00-35.733 33.489c-19.849 23.124-38.969 47.711-49.91 76.867-11.268 30.019-26.093 58.154-42.4 85.615-.472.8-1.907 1.435-.151 3.92 6.52-5.653 13-11.143 19.332-16.786 23.573-21 40.539-47.557 60.228-71.82 19.518-24.058 36.722-49.994 58.658-72.08 6.164-6.205 7.73-7.262 13.766-9.49-1.965 8.135-100.436 135.409-115.486 149.261.722 1.929 2.035 1.605 3.377.809 35.174-20.925 70.471-41.711 96.622-74.324zM687.17 784.523c-8.934 42.931-18.5 85.855-2 129.175.186.485.745.825 1.066 1.168 16.462-43.236 13.13-86.8 1.9-130.462 0-.831.661-2.234-.6-2.209-.912.019-1.323 1.345-.366 2.328zm62.376 68.577c-.992-16.684-5.814-32.748-12.4-47.865-11.111-25.49-25.409-49.361-41.993-74.989-2.177 16.645-4.411 30.941-.3 45.056 4.9 16.825 6.578 34.167 9.791 51.262 3.9 20.7 1.884 40.889-3.278 61.091-6.051 23.7-9.7 47.692-5.811 72.237.453 2.857.963 5.714 1.618 8.533.161.7.986 1.239 1.737 2.122 16.713-40.093 21.217-81.643 16.854-124.533 6.449 7.127 6.437 44.379 5.361 67.868-1.072 23.372-12.844 44.118-13.925 67.947 27.633-36.196 44.766-88.077 42.346-128.729zm32.417-243.325c-.238.864-.177 1.6.928 1.589a14.337 14.337 0 00.221-1.933C781.8 557.393 741 480.061 691.173 457c-8.674 48.677 41.653 146.044 91.518 175.059-12.01-25.329-26.048-47.733-40.632-69.952-14.289-21.772-29.271-43.374-36.016-69.268 23.814 39.989 53.673 75.983 75.92 116.936zm-44.42 34.411c-21.785-10.106-59.345-15.422-99.862-14.135 14.668 29.38 45 53.75 79.13 63.525 14.189 4.064 28.395 8.058 42.918 10.831 14.433 2.758 29.255 3.361 43.733 7.567-22.177-13.233-46.806-20.931-70.651-30.6-23.252-9.425-47.409-17.567-67.461-33.778 47.977 23.339 102.25 31.274 147.9 61.521-11.12-20.312-48.745-52.424-75.708-64.931zm140.484-250.353c-27.8-13.053-56.2-24.947-82.356-41.236-13.223-8.234-24.25-19.249-35.339-30.286 20.282 11.348 39.095 24.883 59.913 35.384 20.6 10.392 41.579 19.477 63.143 28.042-22.735-24.941-37.48-55.932-63.737-77.749-12.44-10.334-23.971-21.509-37.528-30.729-24.565-16.7-51.676-24.279-80.526-27.624-12.613-1.461-25.226-2.931-37.4-7.833 17.271 73.383 116.748 145.695 214.15 154.276l3.127-.154c-.648-1.524-1.999-1.885-3.447-2.091zm96.26-249.816c3.342-22.125-12.427-39.239-15.711-59.814-4.661 21.984-14.013 42.989-7.008 66.3 4.966 16.52 5.143 34.08 7.165 53.611 11.367-20.114 12.574-40.351 15.553-60.097zm-29.137 84.616c5.477-10.064 5.518-21.958 3.99-33.265-2.337-17.255-5.2-34.449-8.308-51.583a64.559 64.559 0 01.867-28.417c2.414-9.239 4.064-18.7 6.783-27.846 7.509-25.236 1.634-49.8-3.13-74.456-.132-.69-.941-1.252-1.865-2.414a305.608 305.608 0 00-23.011 34.8c-23.422 40.539-37.644 83.57-33.56 130.956 1.994 23.095 5.766 46.058 9.287 69 1.7 11.085 3.307 22.186 4.343 33.65 3.464-1.159 3-3.657 3.621-5.711 9.846-32.148 11.085-65.445 14.353-98.594 2.681-27.217 8.546-54.17 15.547-80.738.074-.279.167-.555.25-.831l.273.276c1.085 10.88-2.189 21.547-3.457 32.411-2 17.127-6.071 33.968-5.57 51.435.809 28.247-1.916 56.128-10.546 83.258-3.451 10.854-6.228 21.926-9.31 32.9.456.112.912.228 1.368.34 12.772-21.681 26.059-43.081 38.075-65.171zm132.674 248.288c-5.686 4.311-8.648 9.782-11.836 15.387-16.51 29.034-40.221 52.141-62.263 76.68-19.73 21.961-43.316 39.095-67 56.228-2.761 2-5.387 4.177-7.878 6.119.626 2.327 2.026 1.692 2.915 1.6 51.024-5.095 93.162-26.221 126.886-65.817 30.61-35.945 48.584-77.83 64.148-121.358 2.231-6.241 5-12.3 7.6-18.645-55.313 11.949-99.358 39.095-133.316 84.337-23.352 31.114-40.366 65.666-60.838 98.292-.867 1.377-2.087 2.9-.777 5.3a380.13 380.13 0 0062.356-51.8c26.847-27.371 49.727-57.942 73.855-87.534 4.783-5.868 10.392-11.185 19.274-14.7-3.136 7.716-8.42 12.338-13.126 15.911zM833.182 882.044c.8-.629 1.6-1.262 2.4-1.888 32.157-17.862 67.608-28.437 100.151-45.624a351.074 351.074 0 0167.4-27.319c1.746-.5 3.531-2.254 6.1-.161-4.761 4.671-11.229 5.441-16.745 7.92-20.2 9.085-41.03 16.754-59.358 29.717-16.7 11.807-36.311 17.868-54.783 26.154-17.971 8.058-35.814 16.343-52.713 26.523-.4.552-.806 1.1-1.21 1.656l2.1.356c19.573 5.072 39.107 3.412 58.565-.591 53.242-10.963 99.7-35.236 139.74-71.855 12.3-11.252 20.122-26.093 30.344-39.018 3.477-4.4 8.151-8.019 10.78-14.632-28.347 2.664-55.515 6.514-81.878 14.61-42.857 13.165-82.356 32.639-115.749 63.242-10.642 9.759-23.348 17.1-33.063 27.971-1.474.425-2.45 1.205-2.081 2.939zM676.945 1071.7c61.4 5.473 122.186-.514 182.9-9.811-66.443 21.069-134.481 24.254-203.585 18.042 34.944 26.469 76.045 31.13 117.252 31.611 61.791.719 105.55-37.57 149.784-74.276-87.536-27.139-167.68-2.054-246.351 34.434z" transform="translate(-571.107 -751.604)" fill="url(#linear-gradient)"/></g><g id="Artwork_14-2" data-name="Artwork 14" transform="matrix(-.995 -.105 .105 -.995 1623.543 48)" opacity=".05"><path id="Path_9144" data-name="Path 9144" d="M928.81 1045.482c-23.961 22.193-50.96 40.1-79.483 55.788a149.948 149.948 0 01-48.414 16.581c-39.682 6.478-77.9-1.168-115.6-12.809-12.35-3.814-23.464-10.485-33.367-18.43-4.719-3.788-6.944-3.024-10.77-.238a733.278 733.278 0 01-185.634 98.34 740.321 740.321 0 01-132.147 34.2c-18.478 2.973-37.05 5.246-56.17 7.284 2.369 2.9 4.831 3.5 7.435 4.135 11.191 2.735 22.263 5.961 33.509 8.44 24.045 5.3 46.507 16.273 71.069 19.65 2.52.347 5.066 1.579 7.6.013 19.756-12.263 42.507-15 64.465-20.289 68.555-16.5 134.07-5.618 197.743 21.888 3.213 1.39 6.507 3.14 6.709 7.23.193 3.9-3.082 5.236-5.878 6.777-10.665 5.875-21.541 11.406-31.968 17.676-32.122 19.323-67.326 28.385-104.282 30.616-28.623 1.724-56.831-1.12-82.86-14.786-14.34-7.528-25.345-19.194-36.494-30.562-4.353-4.44-8.6-8.786-14.944-9.814-22.465-3.637-43.448-11.859-64.568-19.888-4.613-1.756-9.961-5.188-15.73-1.833 2.334 3.451 5.971 5.217 9.265 7.422 51.923 34.761 83.923 82.687 97.592 143.785 7.3 32.629 1.676 64.655.048 96.96-.231 4.61-3.307 7.024-6.376 9.589l-7.512-4.424c-6.1-11.255-16.01-19.261-24.53-28.4-18.613-19.961-41.682-35.04-60.867-54.343-21.091-21.217-39.175-44.629-43.656-75.486a390.69 390.69 0 01-4.334-50.3c-.25-16.783-1.6-33.5-3.419-50.167-.713-6.51-1.5-12.915-11.409-12.36Q118.3 1234.738.735 1203.834c-.26-3.412-.488-6.825-.735-10.238q154.661 41.769 318.616 15.721c6.729-1.072 11.509-3.939 14.536-9.538 11.037-20.4 23.258-40.25 31.49-62.042 13.647-36.125 31.107-69.746 58.263-97.958 37.807-39.287 85.046-67.46 123.464-105.942 1.628-1.631 3.432-2.755 5.169-1.936 2.944 1.387 1.843 4.44 1.721 6.957-1.22 25.387-9.191 49.441-14.411 74.058-8.671 40.9-28.873 75.586-55.965 106.626-26.382 30.234-60.806 49.772-94.725 69.894-1.981 1.175-4.234 1.9-5.7 4.774a65.882 65.882 0 0016.857-3.249c41.782-12.523 82.4-27.868 121.6-47.207 61.958-30.571 117.791-69.743 168.349-116.658a13.316 13.316 0 004.623-8.844c1.865-15.717 1.714-31.323-3.178-46.421-7.525-23.217-14.08-46.716-21.095-70.077a122.668 122.668 0 01-5.355-43.794c.854-13.05 2.889-25.926 4.774-38.838 4.4-30.122 16.478-58.6 19.053-89.123a13.222 13.222 0 011.791-4.851c3.48-6.5 6.713-6.623 10.421-.234 12.231 21.066 25.188 41.762 36.324 63.393 15.034 29.2 22.761 60.035 19.811 93.611-2.732 31.066-14.709 58.071-30.08 84.347-7.21 12.324-12.613 25.621-18.006 41.505 3.233-2.764 4.613-3.769 5.782-4.979a692.5 692.5 0 00136.752-203.652 14.322 14.322 0 00.1-11.685c-4.52-11.949-10.478-23.717-12.6-36.119-3.32-19.335-14.951-26.023-32.524-29.635-27.22-5.586-54.8-8.838-81.993-14.908-45.743-10.215-74.314-40.4-98.725-76.905-1.666-2.494-2.828-5.326-1.021-8.144 1.6-2.488 4.228-2.594 7-2.17 17.236 2.62 34.671 2.35 52.016 3.268 46.6 2.462 86.109 19.1 115.756 56.331 4.761 5.978 10.173 11.438 16.193 18.154-1.83-13.371-13.149-37.2-20.693-44.061-9-8.18-17.791-16.655-27.38-24.1-57.316-44.491-81.387-105.261-86.533-175.4-.623-8.52 3.255-11.172 10.263-7.2a191.2 191.2 0 0173.483 73.348 215.747 215.747 0 0128.533 102.921 53.807 53.807 0 008.315 27.875c21.714 34.912 39.534 71.663 49.782 111.762 1.541 6.032 2.761 12.347 6.331 17.846 3.239-1.823 3.538-4.925 4.53-7.483 45.1-116.684 57.756-236.863 38.889-360.468-.841-5.49-2.565-7.968-8.571-8.135-44.321-1.226-85.088-14.135-124.285-34.928-55.3-29.342-94.806-71.656-116.141-130.667-.9-2.488-2.128-5.034-.093-7.377 2.273-2.632 5.5-2.308 8.032-.934 15.522 8.427 32.684 9.945 49.666 11.348 36.051 2.976 67.531 17.435 94.982 39.621 20.385 16.472 40.42 33.932 55.332 56.144 9.364 13.945 18.873 27.8 29.782 40.632 1.3 1.522 2.093 3.207 4.552 3-.234-2.645-.4-5.22-.716-7.775-.173-1.435-.61-2.838-.921-4.257-5.262-23.987-10.661-39.692-7.409-64.131 2.395-17.977 5.528-36.3 2.79-53.31-4.244-26.343-9.913-52.565-11.493-79.207-3.82-64.343 25.323-117.178 60.456-167.65C938.5 1.959 941.3-.621 945.333.133c4.44.828 4.443 4.764 5.355 8.058 5.2 18.854 6.35 38.523 12.507 57.278 5.233 15.952 7.929 32.748 15.162 48.093 4.594 9.746 5.862 19.936 4.966 30.555-2.7 31.942-10.8 62.032-28.193 89.477-16.164 25.506-31.862 51.342-45.762 78.186-4 7.718-8.3 14.841-5.5 25.021 24.154 87.839 30.549 177.113 20.051 267.614-.266 2.283-1.884 5.188 1.547 7.185a15.006 15.006 0 002.112-2.514c20.35-39.085 40.777-77.81 68.356-112.863 35.4-44.995 83.149-66.157 136.144-79.666 3.3-.841 6.478-.729 8.777 2.071 2.424 2.947 1.156 6.016-.359 8.937a176.015 176.015 0 00-9.255 21.535c-14.157 39.268-29.377 77.743-54.62 111.935-37.233 50.433-86.032 77.168-148.529 78.847-7.047.189-9.913 2.212-11.207 9.486a676.236 676.236 0 01-71.444 203.89c-1.082 2-2.982 3.936-1.945 7.823 5.881-4.9 11.146-8.88 15.958-13.352 59.717-55.534 132.651-77.627 211.858-83.936 3.024-.241 5.942-.083 7.727 2.764 1.894 3.021.2 5.7-1.57 7.968-4.793 6.173-9.762 12.205-14.722 18.247-11.018 13.435-18.934 29.3-31.682 41.335-45.775 43.239-99.583 69.4-162.616 75.419-15.4 1.47-30.892.552-45.714-3.673-6.709-1.916-9.082.2-12.363 5.008-37.647 55.172-80.915 105.271-133.515 146.87-1.512 1.194-3.348 2.363-1.567 5.393 3.965-1.589 7.9-3 11.7-4.713 25.859-11.695 51.213-24.709 78.934-31.685 52.773-13.278 105.608-19.14 158.52-.385 13.316 4.723 14.629 9.635 4.366 19.141zm-529.947 215.893c.051.379 1.265.6 1.949.9 13.085 3.9 26.363 6.838 40.061 7.233 20.061.584 39.695 4.337 59.361 7.817 3.143.555 8.382.08 7.746 4.751-.491 3.605-5.406 2.761-8.318 2.344-33.194-4.738-67.021-4.6-99.733-12.822 10.928 16.549 41.881 35.095 66.469 39.348 51.075 8.835 99.2-.25 144.712-24.456 10.655-5.663 21.156-11.621 31.916-17.554-80.112-38.09-161.12-30.135-242.574-8.366-.732-.078-1.744-.338-1.589.805zm-127.185 80.665c3.291 21.775 15.165 39.534 29.021 55.615 28.732 33.355 66.947 56.883 95.011 92.764 14.671-102.735-23.059-189.637-120.616-246.314 8.411 11.512 14.918 21.984 22.944 31.124 26.205 29.846 44.488 63.766 54.013 102.266 1.785 7.207 2.921 14.575 5.207 21.692.587 1.817.8 4.565-1.628 5.265-3.04.88-2.78-2.276-3.345-3.92-3.817-11.162-7.99-22.241-11.107-33.6-9.994-36.44-30.78-66.456-55.117-94.481-7.329-8.44-14.414-17.1-23.31-27.672 3.549 34.214 4.189 65.921 8.927 97.261zm207.036-233.123c22.754-28.369 40.9-59.095 48.164-95.319 4.61-22.979 13.621-44.912 16.587-69.942-23.628 22.478-48.507 41.008-73.053 59.8a238.167 238.167 0 00-35.733 33.489c-19.849 23.124-38.969 47.711-49.91 76.867-11.268 30.019-26.093 58.154-42.4 85.615-.472.8-1.907 1.435-.151 3.92 6.52-5.653 13-11.143 19.332-16.786 23.573-21 40.539-47.557 60.228-71.82 19.518-24.058 36.722-49.994 58.658-72.08 6.164-6.205 7.73-7.262 13.766-9.49-1.965 8.135-100.436 135.409-115.486 149.261.722 1.929 2.035 1.605 3.377.809 35.174-20.925 70.471-41.711 96.622-74.324zM687.17 784.522c-8.934 42.931-18.5 85.855-2 129.175.186.485.745.825 1.066 1.168 16.462-43.236 13.13-86.8 1.9-130.462 0-.831.661-2.234-.6-2.209-.912.02-1.323 1.346-.366 2.328zm62.376 68.578c-.992-16.684-5.814-32.748-12.4-47.865-11.111-25.49-25.409-49.361-41.993-74.989-2.177 16.645-4.411 30.941-.3 45.056 4.9 16.825 6.578 34.167 9.791 51.262 3.9 20.7 1.884 40.889-3.278 61.091-6.051 23.7-9.7 47.692-5.811 72.237.453 2.857.963 5.714 1.618 8.533.161.7.986 1.239 1.737 2.122 16.713-40.093 21.217-81.643 16.854-124.533 6.449 7.127 6.437 44.379 5.361 67.868-1.072 23.372-12.844 44.118-13.925 67.947 27.633-36.196 44.766-88.077 42.346-128.729zm32.417-243.325c-.238.864-.177 1.6.928 1.589a14.337 14.337 0 00.221-1.933C781.8 557.393 741 480.061 691.173 457c-8.674 48.677 41.653 146.044 91.518 175.059-12.01-25.329-26.048-47.733-40.632-69.952-14.289-21.772-29.271-43.374-36.016-69.268 23.814 39.989 53.673 75.983 75.92 116.936zm-44.42 34.411c-21.785-10.106-59.345-15.422-99.862-14.135 14.668 29.38 45 53.75 79.13 63.525 14.189 4.064 28.395 8.058 42.918 10.831 14.433 2.758 29.255 3.361 43.733 7.567-22.177-13.233-46.806-20.931-70.651-30.6-23.252-9.425-47.409-17.567-67.461-33.778 47.977 23.339 102.25 31.274 147.9 61.521-11.12-20.312-48.745-52.424-75.708-64.931zm140.484-250.353c-27.8-13.053-56.2-24.947-82.356-41.236-13.223-8.234-24.25-19.249-35.339-30.286 20.282 11.348 39.095 24.883 59.913 35.384 20.6 10.392 41.579 19.477 63.143 28.042-22.735-24.941-37.48-55.932-63.737-77.749-12.44-10.334-23.971-21.509-37.528-30.729-24.565-16.7-51.676-24.279-80.526-27.624-12.613-1.461-25.226-2.931-37.4-7.833 17.271 73.383 116.748 145.694 214.15 154.276l3.127-.154c-.648-1.524-1.999-1.885-3.447-2.091zm96.26-249.816c3.342-22.125-12.427-39.239-15.711-59.814-4.661 21.984-14.013 42.989-7.008 66.3 4.966 16.52 5.143 34.08 7.165 53.611 11.367-20.114 12.574-40.351 15.553-60.097zm-29.137 84.616c5.477-10.064 5.518-21.958 3.99-33.265-2.337-17.255-5.2-34.449-8.308-51.583a64.559 64.559 0 01.867-28.417c2.414-9.239 4.064-18.7 6.783-27.846 7.509-25.236 1.634-49.8-3.13-74.456-.132-.69-.941-1.252-1.865-2.414a305.607 305.607 0 00-23.011 34.8c-23.422 40.539-37.644 83.57-33.56 130.956 1.994 23.095 5.766 46.058 9.287 68.995 1.7 11.085 3.307 22.186 4.343 33.65 3.464-1.159 3-3.656 3.621-5.711 9.846-32.148 11.085-65.444 14.353-98.594 2.681-27.217 8.546-54.17 15.547-80.738.074-.279.167-.555.25-.831l.273.276c1.085 10.88-2.189 21.547-3.457 32.411-2 17.127-6.071 33.968-5.57 51.435.809 28.247-1.916 56.128-10.546 83.258-3.451 10.854-6.228 21.926-9.31 32.9.456.112.912.228 1.368.34 12.772-21.676 26.059-43.076 38.075-65.166zm132.674 248.288c-5.686 4.311-8.648 9.782-11.836 15.387-16.51 29.034-40.221 52.141-62.263 76.68-19.73 21.961-43.316 39.095-67 56.228-2.761 2-5.387 4.177-7.878 6.119.626 2.327 2.026 1.692 2.915 1.6 51.024-5.095 93.162-26.221 126.886-65.817 30.61-35.945 48.584-77.83 64.148-121.357 2.231-6.241 5-12.3 7.6-18.645-55.313 11.949-99.358 39.095-133.316 84.337-23.352 31.114-40.366 65.666-60.838 98.292-.867 1.377-2.087 2.9-.777 5.3a380.13 380.13 0 0062.356-51.8c26.847-27.371 49.727-57.942 73.855-87.534 4.783-5.868 10.392-11.185 19.274-14.7-3.136 7.715-8.42 12.337-13.126 15.91zM833.182 882.044c.8-.629 1.6-1.262 2.4-1.888 32.157-17.862 67.608-28.437 100.151-45.624a351.074 351.074 0 0167.4-27.319c1.746-.5 3.531-2.254 6.1-.161-4.761 4.671-11.229 5.441-16.745 7.92-20.2 9.085-41.03 16.754-59.358 29.717-16.7 11.807-36.311 17.868-54.783 26.154-17.971 8.058-35.814 16.343-52.713 26.523-.4.552-.806 1.1-1.21 1.656l2.1.356c19.573 5.072 39.107 3.412 58.565-.591 53.242-10.963 99.7-35.236 139.74-71.855 12.3-11.252 20.122-26.093 30.344-39.018 3.477-4.4 8.151-8.019 10.78-14.632-28.347 2.664-55.515 6.514-81.878 14.61-42.857 13.165-82.356 32.639-115.749 63.242-10.642 9.759-23.348 17.1-33.063 27.971-1.474.425-2.45 1.205-2.081 2.939zM676.945 1071.7c61.4 5.473 122.186-.514 182.9-9.811-66.443 21.069-134.481 24.254-203.585 18.042 34.944 26.469 76.045 31.13 117.252 31.611 61.791.719 105.55-37.57 149.784-74.276-87.536-27.139-167.68-2.054-246.351 34.434z" transform="translate(-571.107 -751.604)" fill="url(#linear-gradient)"/></g></g></g></svg>