<svg xmlns="http://www.w3.org/2000/svg" width="52.18" height="62.409"><g id="Group_1508" data-name="Group 1508" transform="translate(-1.75 -1.34)" fill="none" stroke="#c784e1" stroke-linecap="round" stroke-linejoin="round" stroke-width="2"><path id="Path_13014" data-name="Path 13014" d="M186.877 114.829a24.429 24.429 0 01-3.262 7.892" transform="translate(-134.357 -83.259)"/><path id="Path_13015" data-name="Path 13015" d="M22.065 2.75a24.635 24.635 0 00-4.922 46.459"/><path id="Path_13016" data-name="Path 13016" d="M185.738 117.487a20.951 20.951 0 002.716-2.657" transform="translate(-135.934 -83.259)"/><path id="Path_13017" data-name="Path 13017" d="M56.687 2.75A20.858 20.858 0 0050.3 24.815c1.158 3.719 2.925 4.118 4.327 7.642a18.314 18.314 0 011.161 6.356c-.034 6.973-4.794 15.4-5.659 19.307a2.916 2.916 0 00.182 2.066 3.046 3.046 0 001.675 1.222 17.619 17.619 0 006.472 1.339 4.1 4.1 0 002.451-.411 4.362 4.362 0 001.532-1.956 4.833 4.833 0 00.307-1.011 64.19 64.19 0 012.153-7.1" transform="translate(-34.622)"/><path id="Path_13018" data-name="Path 13018" d="M101.418 192.984l.259.818a3.435 3.435 0 003.274 2.4h3.864a3.435 3.435 0 003.411-3.029l1.256-10.554" transform="translate(-73.296 -133.614)"/><path id="Path_13019" data-name="Path 13019" d="M100.438 141.155l6.149-.588a2.868 2.868 0 002.457-3.734l-4.905-20.689a3.981 3.981 0 00-4.963-2.583l-3.7 1.143a9.883 9.883 0 01-6.01-.058l-6.1-2.012a3.958 3.958 0 00-2.127-.1" transform="translate(-58.305 -81.478)"/><path id="Path_13020" data-name="Path 13020" d="M87.578 48.354h5.629l-5.042 7.575a.072.072 0 00.059.112l4.983.105" transform="translate(-63.015 -33.877)"/><path id="Path_13021" data-name="Path 13021" d="M139.069 6.713h6.1l-5.465 8.212a.078.078 0 00.064.122l5.4.114" transform="translate(-101.266 -2.944)"/><path id="Path_13022" data-name="Path 13022" d="M166.536 65.493h4.223l-3.782 5.684a.054.054 0 00.044.084l3.738.079" transform="translate(-121.67 -46.609)"/></g></svg>