<svg xmlns="http://www.w3.org/2000/svg" width="360" height="4109"><defs><linearGradient id="linear-gradient" x1=".5" x2=".5" y2="1" gradientUnits="objectBoundingBox"><stop offset="0" stop-color="#fff" stop-opacity="0"/><stop offset=".657" stop-color="#fff" stop-opacity=".757"/><stop offset="1" stop-color="#fff"/></linearGradient><clipPath id="clip-path"><path id="Rectangle_553" data-name="Rectangle 553" fill="#fff3e7" stroke="#707070" stroke-width="1" d="M882 0h360v4109H882z"/></clipPath></defs><g id="Mask_Group_53" data-name="Mask Group 53" transform="translate(-882)" clip-path="url(#clip-path)"><g id="Group_1530" data-name="Group 1530" transform="translate(-3785.78 -2005.523)"><g id="Artwork_16" data-name="Artwork 16" transform="rotate(-174.87 2258.52 862.828)" opacity=".17"><g id="Group_1529" data-name="Group 1529" transform="translate(-724.768 -1007.74)" fill="none" stroke="#707070" stroke-miterlimit="10"><path id="Path_13033" data-name="Path 13033" d="M655.149 2015.48c-408.589-284.454-55.254-1006.3 789.99-1613.9" stroke-width=".408"/><path id="Path_13034" data-name="Path 13034" d="M655.149 2015.48c-421.358-293.343-66.459-1030.93 793.485-1649.1" stroke-width=".409"/><path id="Path_13035" data-name="Path 13035" d="M655.149 2015.481c-439.237-305.788-83.931-1064.135 794.388-1695.516" stroke-width=".409"/><path id="Path_13036" data-name="Path 13036" d="M655.148 2015.48c-452-314.677-101.084-1084.492 784.584-1721.157" stroke-width=".41"/><path id="Path_13037" data-name="Path 13037" d="M655.149 2015.48C187.824 1690.136 535.262 905.277 1431.962 260.687" stroke-width=".411"/><path id="Path_13038" data-name="Path 13038" d="M655.148 2015.484C175.419 1681.5 512.822 889.652 1409.516 245.061" stroke-width=".824"/><path id="Path_13039" data-name="Path 13039" d="M655.149 2015.48C164.842 1674.135 499.632 872.054 1403.676 222.179" stroke-width=".413"/><path id="Path_13040" data-name="Path 13040" d="M655.148 2015.48C152.073 1665.247 479.501 853.834 1387.223 201.318" stroke-width=".621"/><path id="Path_13041" data-name="Path 13041" d="M655.148 2015.48c-518.4-360.9-203.364-1180.945 704.354-1833.461" stroke-width=".623"/><path id="Path_13042" data-name="Path 13042" d="M655.153 2015.48c-538.832-375.123-240.33-1206.677 667.39-1859.193" stroke-width=".417"/><path id="Path_13043" data-name="Path 13043" d="M655.148 2015.48C100.999 1629.69 387.103 789.506 1294.822 136.989" stroke-width=".419"/><path id="Path_13044" data-name="Path 13044" d="M655.148 2015.48C88.23 1620.801 364.002 773.422 1271.721 120.907" stroke-width=".42"/><path id="Path_13045" data-name="Path 13045" d="M655.148 2015.481C75.457 1611.912 337.928 759.479 1241.972 109.605" stroke-width=".633"/><path id="Path_13046" data-name="Path 13046" d="M655.149 2015.48C62.694 1603.022 311.854 745.533 1212.223 98.301" stroke-width=".635"/><path id="Path_13047" data-name="Path 13047" d="M655.148 2015.481C47.372 1592.356 278.185 730.511 1171.202 88.561" stroke-width=".426"/><path id="Path_13048" data-name="Path 13048" d="M655.148 2015.48C24.388 1576.355 224.71 710.114 1103.029 78.731" stroke-width=".43"/><path id="Path_13049" data-name="Path 13049" d="M655.149 2015.48C11.62 1567.47 195.663 698.307 1066.632 72.208" stroke-width=".432"/><path id="Path_13050" data-name="Path 13050" d="M655.148 2015.481c-656.3-456.9-485.561-1331.119 381.734-1954.575" stroke-width=".869"/><path id="Path_13051" data-name="Path 13051" d="M655.149 2015.48c-679.28-472.9-539.036-1351.515 313.558-1964.4" stroke-width="1.756"/><path id="Path_13052" data-name="Path 13052" d="M655.149 2015.48C-39.453 1531.908 76.497 653.217 914.391 50.894" stroke-width=".656"/><path id="Path_13053" data-name="Path 13053" d="M655.149 2015.48C-54.775 1521.242 42.829 638.194 873.373 41.155" stroke-width=".873"/><path id="Path_13054" data-name="Path 13054" d="M655.149 2015.48C-70.097 1510.575 6.187 625.308 825.707 36.194" stroke-width=".653"/><path id="Path_13055" data-name="Path 13055" d="M655.148 2015.48C-82.867 1501.686-22.862 613.501 789.308 29.671" stroke-width=".435"/><path id="Path_13056" data-name="Path 13056" d="M655.149 2015.479C-95.634 1492.796-54.882 603.832 746.262 27.927" stroke-width=".434"/><path id="Path_13057" data-name="Path 13057" d="M655.149 2015.48C-110.956 1482.13-91.524 590.947 698.596 22.967" stroke-width=".433"/><path id="Path_13058" data-name="Path 13058" d="M655.148 2015.48c-778.873-542.24-775.721-1436.34 7.049-1999.036" stroke-width=".863"/><path id="Path_13059" data-name="Path 13059" d="M655.148 2015.48c-794.2-552.907-812.363-1449.226-40.618-2004" stroke-width=".429"/><path id="Path_13060" data-name="Path 13060" d="M655.149 2015.48C-151.815 1453.68-186.262 554.448 578.133 4.96" stroke-width=".641"/><path id="Path_13061" data-name="Path 13061" d="M655.149 2015.481C-167.137 1443.017-222.904 541.558 530.466 0" stroke-width=".425"/></g></g><path id="Rectangle_552" data-name="Rectangle 552" transform="translate(3785.78 4059.523)" opacity=".5" fill="url(#linear-gradient)" d="M0 0h2124v2055H0z"/></g></g></svg>