<svg xmlns="http://www.w3.org/2000/svg" width="79.564" height="79.922" viewBox="0 0 79.564 79.922">
    <path id="Path_12877" data-name="Path 12877"
          d="M49.739,79.486c.109-.124.568-.532,1.019-.91A4.771,4.771,0,0,0,52.3,76.849a10.493,10.493,0,0,0,.743-2.454c0-.226.058-.35.305-.634a29.5,29.5,0,0,1,2.841-2.87,13.571,13.571,0,0,0,2.3-2.432c.3-.4.524-.648.5-.546s-.088.525-.131.94a5.468,5.468,0,0,1-.932,2.622,6.055,6.055,0,0,0-1.173,2.869,5.819,5.819,0,0,1-.218.918.857.857,0,0,0-.073.291c0,.284.277.167.809-.335,1.318-1.246,1.769-2.527,1.893-5.338a6.955,6.955,0,0,1,1.114-4.18,13.148,13.148,0,0,0,1.405-4.122c.065-.444.145-.757.174-.713a8.509,8.509,0,0,1,.219.859,10.354,10.354,0,0,1,.174,2.658v1.893l.277.983c.313,1.1.35,1.2.5,1.2a11.247,11.247,0,0,0,.845-3.066,5.325,5.325,0,0,0-1-3.306,9.057,9.057,0,0,1-.954-1.959,3.656,3.656,0,0,1-.139-1.3,10.126,10.126,0,0,0-1.2-4.966,19.779,19.779,0,0,1-.91-2.221c-.284-.91-.968-3.678-.925-3.728a14.02,14.02,0,0,1,1.587,2.563,6.278,6.278,0,0,0,1.639,2.6,5.718,5.718,0,0,1,.648.779c.073.146.167.226.262.226.138,0,.145-.029.109-.233-.022-.131-.094-.583-.153-1.005-.3-2.1-.656-2.731-2.141-3.779a7.682,7.682,0,0,1-1.886-1.952c-.248-.474-.277-.619-.488-2.673a18.857,18.857,0,0,0-.947-4.02A38.674,38.674,0,0,0,55.6,36.694c-.532-1.027-.612-1.231-.459-1.122a4.353,4.353,0,0,0,.517.3,10.113,10.113,0,0,1,2.046,1.638A7.209,7.209,0,0,1,59.774,41.9a5.885,5.885,0,0,0,.561,1.944,17.2,17.2,0,0,0,1.828,2.636c.051-.015.087-.124.08-.24-.022-.554-.262-2.527-.364-2.979a4.525,4.525,0,0,0-.983-1.9,18.626,18.626,0,0,1-1.66-2.469,9.078,9.078,0,0,0-1.369-1.777,3.187,3.187,0,0,1-.429-.5,5.008,5.008,0,0,1,1.325.736,8.282,8.282,0,0,0,2.36,1.144,17.735,17.735,0,0,0,2.636.612c.124-.08.051-.24-.2-.43-.146-.109-.626-.546-1.071-.962a4.837,4.837,0,0,0-3.947-1.631,7.37,7.37,0,0,1-2.8-.539,10.627,10.627,0,0,1-1.748-1.318,23.464,23.464,0,0,0-2.49-1.937,19.864,19.864,0,0,0-2.709-1.223l-.874-.349.408-.08a3.451,3.451,0,0,1,1.122-.015,4.248,4.248,0,0,1,2,.612c.459.226,1.18.56,1.6.75a3.021,3.021,0,0,0,1.711.372c1.217.044,1.741-.029,1.77-.24.015-.124-.044-.174-.3-.276a11.241,11.241,0,0,1-1.369-.823c-.575-.379-1.361-.845-1.74-1.034a2.227,2.227,0,0,0-1.42-.335,7.911,7.911,0,0,0-1.784.233c-2.534.546-2.549.554-3.03.393a28.161,28.161,0,0,1-3.655-1.537,16.053,16.053,0,0,1-3.663-2.52,7.718,7.718,0,0,0-2.068-1.609l-.51-.248,1.092.036a14.37,14.37,0,0,1,4.056.765,4.456,4.456,0,0,0,1.864.445,7.223,7.223,0,0,1,1.085.109,7.778,7.778,0,0,0,2.534,0,8.409,8.409,0,0,1,.918-.109c.189,0,.284-.036.313-.124.073-.182-.146-.313-.5-.313a3.105,3.105,0,0,1-1.216-.473,5.353,5.353,0,0,0-2.476-.728,4.019,4.019,0,0,0-2.01.335,2.26,2.26,0,0,1-1.617.1,10.149,10.149,0,0,0-3.94-.408,4.844,4.844,0,0,1-2.024-.138,13.527,13.527,0,0,0-7.822.481,24.737,24.737,0,0,0-4.275,2.076,12.121,12.121,0,0,1-1.347.692c-.954.4-2.411,1.114-3.423,1.667a8.394,8.394,0,0,1-3.168,1.092l-.4.051.677-.342a7.4,7.4,0,0,0,2.513-2.331,7.108,7.108,0,0,1,2.527-2.367,5,5,0,0,1,2.389-.684c2.156-.241,2.7-.466,3.816-1.6.728-.736.9-.991.713-1.1a.62.62,0,0,0-.327.066,6.664,6.664,0,0,1-1.151.226,5.864,5.864,0,0,0-3.54,1.529,3.225,3.225,0,0,1-.925.656A8.535,8.535,0,0,0,18.366,25.8a13.85,13.85,0,0,0-.962,1.195,11.128,11.128,0,0,1-1.158,1.34,5.549,5.549,0,0,1-1.755,1.136c-1.165.582-1.587.713-1.34.444a5.2,5.2,0,0,0,.452-.9c.19-.415.386-.866.452-1a3.273,3.273,0,0,1,1.267-1.18,4.54,4.54,0,0,0,2.01-2.549,3.753,3.753,0,0,1,.4-.75c.393-.5.109-.765-.335-.291a6.42,6.42,0,0,1-1.245.815,4.7,4.7,0,0,0-1.988,1.624,6.186,6.186,0,0,0-.452,1.653,7.044,7.044,0,0,1-.641,1.828c-.247.5-.306.568-.692.78a3.073,3.073,0,0,1-.867.305,8.147,8.147,0,0,0-4.449,3.372c-.248.4-.539.9-.648,1.1a14.624,14.624,0,0,0-.9,2.345A12.782,12.782,0,0,1,5.068,38.4c-.415,1.078-.415,1.456.008,1a8.259,8.259,0,0,0,.917-2.235c.131-.51.2-.655.357-.757.1-.065.4-.291.663-.5a11.942,11.942,0,0,1,2.4-1.4,4.73,4.73,0,0,1,.99-.094,3.893,3.893,0,0,1,1.384.218,2.956,2.956,0,0,0,2.687-.117c.51-.24,1.282-.874,1.282-1.048s.007-.168-.838-.146a7.36,7.36,0,0,1-1.274-.1,8.14,8.14,0,0,0-2.483-.044,9.036,9.036,0,0,0-4.224,2.257c-.59.517-.561.4.24-1a5.8,5.8,0,0,1,1.3-1.748,8.136,8.136,0,0,1,2.148-1.573,3.381,3.381,0,0,1,1.457-.364,39.791,39.791,0,0,0,4.224-.67,11.882,11.882,0,0,0,2.7-1.2,5.177,5.177,0,0,1,.837-.429c.058,0,.466.087.9.189a11.186,11.186,0,0,0,2.695.247,13.254,13.254,0,0,1,2.585.211,10.076,10.076,0,0,0,3.234.131,4.387,4.387,0,0,0,1.012-.189c.364-.364-2.25-1.464-3.481-1.464a8.835,8.835,0,0,0-2.308.546,6.457,6.457,0,0,1-3.219.218,3.06,3.06,0,0,1-.772-.189,3.533,3.533,0,0,1,.707-.357,10.986,10.986,0,0,0,2.039-1c.233-.153,1.027-.6,1.77-.976a17.6,17.6,0,0,1,4.027-1.515c.422-.087.43-.08.947.182a22.131,22.131,0,0,1,2.745,1.821,6.3,6.3,0,0,0,1.624,1.093,6.521,6.521,0,0,0,2.658.5c1.223.051,1.216.051.371-.626a4.653,4.653,0,0,0-2.214-1.049c-2.192-.364-2.36-.422-3.445-1.143-.429-.284-.983-.626-1.238-.75-.561-.284-.5-.321.6-.372a16.811,16.811,0,0,1,5.673.867,4.783,4.783,0,0,1,2,1.326c.386.372.94.874,1.231,1.129A5.381,5.381,0,0,1,41.32,29c.088.2.284.568.43.83a3.711,3.711,0,0,1,.364.91c.051.24.168.648.255.911a7,7,0,0,1,.255,1.165A5.422,5.422,0,0,0,43,34.218a8.877,8.877,0,0,1,.539,2.272,5.816,5.816,0,0,0,1.413,2.352c.1-.022.124-.218.175-1.369a9.955,9.955,0,0,0-.014-1.719,5.915,5.915,0,0,0-1.224-2.272,9.358,9.358,0,0,1-.8-1.143,9.012,9.012,0,0,1-.531-1.332,1.883,1.883,0,0,1,.342.349c.393.458,1.748,1.871,2.388,2.49a6.784,6.784,0,0,0,1.092.809,3.788,3.788,0,0,1,1.246,1.106,10.29,10.29,0,0,0,1.027,1.085,20.74,20.74,0,0,0,2.862,1.646c.138,0,.16-.2.051-.415-.066-.109-.284-.546-.488-.969a5.337,5.337,0,0,0-1.529-2.01,6.258,6.258,0,0,0-2.367-1.4,18.314,18.314,0,0,1-1.85-.837,4.97,4.97,0,0,1-1.7-1.362,8.036,8.036,0,0,1-1.777-2.425l-.4-.786.277.174a29.787,29.787,0,0,0,2.935,1.471c6.1,2.4,6.408,2.542,7.938,3.743a7.234,7.234,0,0,1,1.944,2.061,2.438,2.438,0,0,1,.444,1.369,3,3,0,0,1-.058,1.689,4.987,4.987,0,0,1-.99,1.537c-.248.3-.546.684-.656.859s-.655.8-1.2,1.384A5.351,5.351,0,0,0,50.5,44.945c-.036.2-.116.889-.16,1.515-.08.983-.072,1.158.015,1.216a.406.406,0,0,0,.153.066,3.422,3.422,0,0,0,.379-.583,12.116,12.116,0,0,1,1-1.362,11.779,11.779,0,0,0,.845-1.1,6.109,6.109,0,0,0,.641-1.974c.1-1.078.247-1.384,1.347-2.76.342-.43.357-.444.313-.219-.022.131-.16.634-.3,1.114a13.529,13.529,0,0,0-.765,5.207l-.015,1.712.24.575a5.991,5.991,0,0,1,.379,1.522,6.033,6.033,0,0,0,.619,2.017c.262.59.473,1.107.473,1.15,0,.095.226.182.291.11a12.1,12.1,0,0,0,.364-2.666,4.665,4.665,0,0,0-.852-2.768,14.208,14.208,0,0,1-.837-1.821,3.027,3.027,0,0,1-.182-1.507,9.357,9.357,0,0,1,.554-2.8,7.156,7.156,0,0,0,.5-3.066l-.022-1.049.488.983a17.588,17.588,0,0,1,1.988,6.991c.065.721.16,1.61.218,1.981a38.392,38.392,0,0,0,1.362,5.3,3.1,3.1,0,0,1,.146,1.311c-.007,1.733-.313,2.389-1.216,2.593a2.108,2.108,0,0,1-1.092-.044,2.77,2.77,0,0,0-1.726.109,2.434,2.434,0,0,0-1.514,1.216c-.357.619-.5,1.012-.393,1.114.051.051.262-.015.634-.182a7.942,7.942,0,0,1,2.148-.583,4.777,4.777,0,0,0,1.974-.772,1.747,1.747,0,0,1,.415-.27,16.676,16.676,0,0,1-1.326,2.068,19.223,19.223,0,0,1-1.529,1.668c-1.18,1.172-1.435,1.551-1.66,2.483a11.188,11.188,0,0,0-.219,2.156c.088.145.284,0,1.173-.867a5.144,5.144,0,0,0,1.915-3.517,3.635,3.635,0,0,1,.765-1.784A8.694,8.694,0,0,0,60.015,54.7l.051-.794.379.794a10.388,10.388,0,0,1,.874,5.149,10.039,10.039,0,0,1-.6,3.605,17.581,17.581,0,0,1-2.5,4.551c-.27.372-.306.393-.677.437-.211.022-.881.153-1.478.3s-1.355.32-1.683.4a7.687,7.687,0,0,0-2.287.954,5.942,5.942,0,0,0-1.6,1.238,4.368,4.368,0,0,0-1.311,1.872c0,.211.1.211.67-.008.255-.094.655-.233.889-.305a9.014,9.014,0,0,0,3.109-2.374,5.271,5.271,0,0,1,1.071-.954,13.906,13.906,0,0,1,2.622-.743A6.724,6.724,0,0,1,56.009,70.4c-.51.437-1.442,1.362-2.075,2.047S52.3,74.177,51.72,74.759a5.369,5.369,0,0,0-1.427,1.785,12.215,12.215,0,0,0-.954,2.956c.017.121.06.181.125.181s.16-.066.276-.2"
          transform="matrix(0.485, -0.875, 0.875, 0.485, -21.094, 45.453)" fill="#494b61"/>
</svg>
