<svg xmlns="http://www.w3.org/2000/svg" width="48" height="62.89" viewBox="0 0 48 62.89">
  <g id="Group_1511" data-name="Group 1511" transform="translate(-53.5 -3676.441)">
    <path id="Path_13023" data-name="Path 13023" d="M59.6,106.39q.089.057.173.12a1.13,1.13,0,0,0,1.351,0c.055-.041.112-.081.172-.119l1.852-1.191c3.18-2.045,7.117-4.975,9.359-9.514a1.129,1.129,0,0,0-1.216-1.611,64.08,64.08,0,0,1-21.686,0,1.129,1.129,0,0,0-1.216,1.611c2.242,4.539,6.18,7.468,9.359,9.514Z" transform="translate(17.232 3598.11)" fill="none" stroke="#c784e1" stroke-miterlimit="10" stroke-width="2"/>
    <path id="Path_13024" data-name="Path 13024" d="M39.239,60.349v-4c0-13.862-6.053-20.965-12.337-25.922C33.186,25.467,39.239,18.364,39.239,4.5V.5H.5v4c0,13.862,6.053,20.965,12.337,25.922C6.553,35.382.5,42.485.5,56.347v4Z" transform="translate(58 3677.575)" fill="none" stroke="#c784e1" stroke-miterlimit="10" stroke-width="2"/>
    <path id="Path_13025" data-name="Path 13025" d="M117.2,209.494a1.5,1.5,0,1,0,1.5-1.5A1.5,1.5,0,0,0,117.2,209.494Z" transform="translate(-41.696 3500.329)" fill="none" stroke="#c784e1" stroke-miterlimit="10" stroke-width="2"/>
    <path id="Path_13031" data-name="Path 13031" d="M117.2,209.494a1.5,1.5,0,1,0,1.5-1.5A1.5,1.5,0,0,0,117.2,209.494Z" transform="translate(-35.696 3504.963)" fill="none" stroke="#c784e1" stroke-miterlimit="10" stroke-width="2"/>
    <path id="Path_13030" data-name="Path 13030" d="M54.735,264.655c-1.46-.966-3.114-2.061-4.844-3.387a1.129,1.129,0,0,0-1.374,0c-1.73,1.326-3.384,2.421-4.844,3.387-5.015,3.318-8.638,5.715-8.638,12.791a1.129,1.129,0,0,0,1.129,1.129H62.243a1.129,1.129,0,0,0,1.129-1.129C63.373,270.37,59.749,267.973,54.735,264.655Z" transform="translate(28.465 3456.275)" fill="none" stroke="#c784e1" stroke-miterlimit="10" stroke-width="2"/>
    <line id="Line_1" data-name="Line 1" x2="46" transform="translate(54.5 3677.44)" fill="none" stroke="#c784e1" stroke-linecap="round" stroke-width="2"/>
    <line id="Line_2" data-name="Line 2" x2="46" transform="translate(54.5 3738.33)" fill="none" stroke="#c784e1" stroke-linecap="round" stroke-width="2"/>
  </g>
</svg>
