<svg xmlns="http://www.w3.org/2000/svg" width="72.496" height="50.676" viewBox="0 0 72.496 50.676">
  <g id="Group_1506" data-name="Group 1506" transform="translate(-1316.75 -2786.345)">
    <path id="Path_13008" data-name="Path 13008" d="M90.51,18.059A31.776,31.776,0,0,1,100.749,2.75" transform="translate(1252.25 2785)" fill="none" stroke="#c784e1" stroke-linecap="round" stroke-linejoin="round" stroke-width="2"/>
    <path id="Path_13009" data-name="Path 13009" d="M62.928,79.792h0A32.511,32.511,0,0,0,39.569,44.754,29.906,29.906,0,0,0,38.73,61.54" transform="translate(1289.861 2754.966)" fill="none" stroke="#c784e1" stroke-linecap="round" stroke-linejoin="round" stroke-width="2"/>
    <path id="Path_13010" data-name="Path 13010" d="M37.788,129.634l-.973-1.471A30.566,30.566,0,0,0,4.734,115.181l-1.984.438a30.566,30.566,0,0,0,34.2,14.234Z" transform="translate(1315 2705.125)" fill="none" stroke="#c784e1" stroke-linecap="round" stroke-linejoin="round" stroke-width="2"/>
    <path id="Path_13011" data-name="Path 13011" d="M126.44,2.75a31.785,31.785,0,0,1,10.236,15.309" transform="translate(1226.559 2785)" fill="none" stroke="#c784e1" stroke-linecap="round" stroke-linejoin="round" stroke-width="2"/>
    <path id="Path_13012" data-name="Path 13012" d="M126.613,79.792h0a32.511,32.511,0,0,1,23.359-35.038,29.906,29.906,0,0,1,.839,16.786" transform="translate(1226.594 2754.966)" fill="none" stroke="#c784e1" stroke-linecap="round" stroke-linejoin="round" stroke-width="2"/>
    <path id="Path_13013" data-name="Path 13013" d="M127.171,129.634l.973-1.471a30.566,30.566,0,0,1,32.082-12.982l1.984.438a30.566,30.566,0,0,1-34.2,14.234Z" transform="translate(1226.036 2705.125)" fill="none" stroke="#c784e1" stroke-linecap="round" stroke-linejoin="round" stroke-width="2"/>
  </g>
</svg>
