<svg xmlns="http://www.w3.org/2000/svg" width="459.084" height="289.924" viewBox="0 0 459.084 289.924">
  <path id="Path_2057" data-name="Path 2057" d="M183.875,454.745c.544-.015,1.285-.547,2.2-1.585.885-1,4.6-4.3,8.249-7.367,7.782-6.544,10.081-9.078,12.439-13.97,2.3-4.716,6.012-16.916,6.012-19.859,0-1.829.47-2.831,2.472-5.127,6.721-7.841,17.331-18.568,22.99-23.225a109.838,109.838,0,0,0,18.624-19.685c2.414-3.24,4.242-5.245,4.066-4.422-.235.826-.708,4.245-1.061,7.606a44.251,44.251,0,0,1-7.544,21.217c-5.953,8.781-7.661,13.027-9.49,23.222a47.081,47.081,0,0,1-1.767,7.426,6.939,6.939,0,0,0-.591,2.358c0,2.3,2.24,1.355,6.544-2.711,10.669-10.081,14.32-20.453,15.323-43.2.708-17.092,1.708-20.808,9.02-33.832a106.408,106.408,0,0,0,11.374-33.362c.529-3.593,1.176-6.127,1.411-5.774a68.883,68.883,0,0,1,1.773,6.956c1.235,5.539,1.352,7.779,1.411,21.514v15.323l2.24,7.955c2.537,8.9,2.831,9.725,4.007,9.725,1.238,0,6.424-18.859,6.838-24.813.588-8.723-2.24-18.213-8.073-26.759a73.3,73.3,0,0,1-7.72-15.852c-.888-2.478-1.123-4.892-1.123-10.554,0-15.029-2.417-24.989-9.725-40.194a160.109,160.109,0,0,1-7.367-17.977c-2.3-7.367-7.838-29.763-7.485-30.175.647-.591,10.963,16.087,12.847,20.744,4.245,10.61,5.894,13.2,13.265,21.044a46.271,46.271,0,0,1,5.245,6.306c.588,1.179,1.355,1.829,2.123,1.829,1.117,0,1.176-.238.882-1.887-.176-1.061-.764-4.716-1.238-8.135-2.417-16.975-5.307-22.1-17.328-30.587-5.836-4.186-13.085-11.671-15.264-15.8-2.005-3.834-2.243-5.012-3.951-21.632a152.615,152.615,0,0,0-7.661-32.533c-2.475-6.485-6.482-14.973-14.32-30.119-4.3-8.311-4.951-9.963-3.716-9.078A35.256,35.256,0,0,0,234,100.179c4.01,2.061,12.315,8.661,16.56,13.259,10.2,10.963,14.385,19.921,16.74,35.54,1.061,7.073,2.24,11.139,4.539,15.737,2.652,5.186,14.026,21.632,14.793,21.335.412-.118.706-1,.647-1.943-.176-4.48-2.123-20.453-2.946-24.107a36.624,36.624,0,0,0-7.958-15.384c-2.946-3.24-9.722-13.318-13.438-19.979a73.468,73.468,0,0,0-11.08-14.379,25.805,25.805,0,0,1-3.475-4.069c.47-.412,7.247,3.36,10.725,5.953,4.6,3.478,12.024,7.073,19.1,9.255,7.426,2.237,20.688,5.362,21.335,4.951,1-.65.411-1.946-1.649-3.478-1.179-.885-5.068-4.422-8.664-7.782-10.786-10.254-15.914-12.374-31.945-13.2-10.725-.591-17.919-1.946-22.69-4.363-3.066-1.532-10.2-6.953-14.15-10.669-4.536-4.242-16.028-13.2-20.156-15.675-4.242-2.537-10.49-5.365-21.923-9.9l-7.073-2.828,3.3-.65c2.417-.532,4.892-.532,9.078-.118,7.247.767,7.838.941,16.149,4.951,3.713,1.826,9.549,4.536,12.968,6.068,6.188,2.772,6.188,2.772,13.847,3.007,9.846.353,14.088-.235,14.323-1.946.121-1-.353-1.411-2.417-2.237-1.473-.532-6.424-3.54-11.08-6.662C222.8,57.8,216.435,54.028,213.368,52.5c-5.542-2.655-5.659-2.713-11.492-2.713a64.022,64.022,0,0,0-14.441,1.887c-20.511,4.421-20.629,4.48-24.521,3.184A227.915,227.915,0,0,1,133.33,42.419c-11.965-6.191-21.926-13.088-29.646-20.4C95.373,14.067,91.9,11.415,86.945,9l-4.125-2,8.84.294c10.61.356,26.641,3.419,32.83,6.188a36.066,36.066,0,0,0,15.088,3.6,58.462,58.462,0,0,1,8.781.882,62.947,62.947,0,0,0,20.512,0,68.065,68.065,0,0,1,7.426-.882c1.532,0,2.3-.294,2.534-1.005.591-1.473-1.179-2.531-4.066-2.531-1.887,0-4.245-.944-9.843-3.831-7.958-4.128-11.848-5.248-20.041-5.894-5.892-.47-9.9.235-16.266,2.711a18.292,18.292,0,0,1-13.085.826c-12.083-3.36-21.749-4.363-31.886-3.3-6.541.706-7.07.647-16.384-1.12C41.973-1.788,22.075.95,18.457,6.461c2.283,4.349,3.478-.647,7.664,1.476a179.116,179.116,0,0,1,22.22,14.735c7.07,5.718,8.661,6.779,13.141,8.843C67.2,34.108,72.919,35.225,83,35.581c9.9.412,9.843.412,3-5.068-6.071-4.836-11.433-7.37-17.916-8.49-17.742-2.946-19.1-3.416-27.879-9.252C36.732,10.471,32.251,7.7,30.187,6.7c-4.539-2.3-4.066-2.6,4.892-3.01C48.4,3.045,70.5,6.405,80.992,10.706,88.829,13.89,90.54,15.069,97.2,21.434c3.125,3.007,7.606,7.073,9.963,9.134,4.657,4.125,8.84,9.431,10.783,13.97.708,1.59,2.3,4.6,3.478,6.718a30.033,30.033,0,0,1,2.946,7.367c.415,1.946,1.358,5.248,2.064,7.37a56.668,56.668,0,0,1,2.064,9.428A43.883,43.883,0,0,0,131.5,86.8c2,5.012,2.649,7.723,4.36,18.389.767,4.657,9.607,19.391,11.433,19.039.826-.179,1-1.767,1.414-11.08.294-6.9.294-12.024-.115-13.911-.947-4.951-4.6-11.727-9.9-18.389a75.748,75.748,0,0,1-6.482-9.252c-1.473-2.89-4.3-9.963-4.3-10.784a15.242,15.242,0,0,1,2.769,2.828c3.184,3.71,14.144,15.146,19.33,20.156a54.9,54.9,0,0,0,8.84,6.544c4.542,2.708,6.015,4,10.081,8.955a83.285,83.285,0,0,0,8.308,8.784c3.3,2.711,21.749,13.321,23.166,13.321,1.117,0,1.3-1.652.412-3.36-.532-.885-2.3-4.422-3.951-7.841-3.831-7.72-6.365-11.077-12.377-16.266-7.309-6.247-10.254-7.958-19.153-11.316a148.21,148.21,0,0,1-14.97-6.776c-6.247-3.36-7.191-4.128-13.732-11.025-8.373-8.84-10.081-11.2-14.382-19.624l-3.243-6.365,2.24,1.411A241.06,241.06,0,0,0,145,52.141c49.39,19.391,51.862,20.57,64.242,30.3,7.955,6.247,12.436,11.022,15.737,16.681,2.708,4.536,2.946,5.3,3.6,11.077.941,8.373.885,10.019-.473,13.673-1.414,3.831-3.243,6.662-8.014,12.439-2.008,2.417-4.422,5.539-5.307,6.953-.941,1.417-5.3,6.482-9.722,11.2-8.546,9.2-11.73,13.97-12.853,19.156-.294,1.652-.941,7.191-1.3,12.259-.647,7.958-.585,9.372.121,9.843a3.284,3.284,0,0,0,1.238.532,27.7,27.7,0,0,0,3.063-4.716,98.06,98.06,0,0,1,8.076-11.022,95.337,95.337,0,0,0,6.838-8.9,49.442,49.442,0,0,0,5.186-15.972c.823-8.726,2-11.2,10.9-22.337,2.769-3.481,2.887-3.6,2.534-1.77-.176,1.058-1.3,5.127-2.417,9.017-5.718,19.685-6.071,22.22-6.188,42.14l-.121,13.853,1.946,4.657a48.483,48.483,0,0,1,3.066,12.318c1.058,6.894,1.591,8.546,5.01,16.325,2.123,4.774,3.831,8.958,3.831,9.311,0,.767,1.826,1.473,2.358.888.941-1.005,2.946-15.8,2.946-21.573,0-8.311-1-11.551-6.9-22.4a114.994,114.994,0,0,1-6.776-14.735c-1.649-5.127-1.77-5.833-1.473-12.2.353-7.9,1.355-12.906,4.48-22.69,3.769-11.845,4.36-15.146,4.066-24.813l-.176-8.487,3.948,7.955c9.84,19.627,14.147,34.776,16.09,56.581.529,5.836,1.3,13.027,1.767,16.034,1.829,11.374,7.9,34.949,11.022,42.907,1,2.414,1.179,4.3,1.179,10.607-.056,14.029-2.534,19.333-9.843,20.982-2.887.647-4.066.591-8.84-.353-5.894-1.12-7.838-1-13.97.885a19.7,19.7,0,0,0-12.256,9.843c-2.89,5.01-4.01,8.191-3.184,9.017.412.412,2.123-.118,5.127-1.473,4.363-2.005,6.956-2.714,17.386-4.716,6.779-1.3,12.262-3.419,15.975-6.247a14.14,14.14,0,0,1,3.36-2.181c.291.353-6.9,11.668-10.728,16.74a155.585,155.585,0,0,1-12.377,13.5c-9.549,9.487-11.613,12.553-13.438,20.1-.947,3.713-2.243,16.681-1.77,17.448.708,1.176,2.3,0,9.49-7.015,10.784-10.669,12.021-12.909,15.5-28.467,1.77-7.72,2.475-9.372,6.188-14.441,10.375-14.026,15.384-25.877,16.093-38.254l.412-6.424,3.066,6.424c5.6,11.671,7.541,23.166,7.07,41.67-.353,13.2-1.179,18.154-4.833,29.178-3.654,10.96-11.077,24.4-20.273,36.834-2.181,3.007-2.475,3.184-5.483,3.537-1.708.176-7.129,1.238-11.962,2.417-4.895,1.179-10.963,2.593-13.618,3.243-6.362,1.473-10.372,3.184-18.507,7.72-5.715,3.243-7.72,4.774-12.965,10.019-6.247,6.247-10.61,12.494-10.61,15.149,0,1.708.823,1.708,5.424-.062,2.064-.764,5.3-1.887,7.191-2.472,6.127-1.829,16.2-9.549,25.165-19.215,3.537-3.831,6.779-6.721,8.664-7.72,2.772-1.532,20.685-6.6,21.217-6.012.591.588-5.539,6.894-12.377,12.73-4.125,3.537-11.668,11.022-16.8,16.563-5.127,5.6-13.2,14.026-17.918,18.739-7.955,7.9-8.781,8.961-11.551,14.444-3.066,6.127-8.076,21.57-7.72,23.928.141.964.473,1.452.982,1.467Z" transform="translate(454.354 -18.464) rotate(89)" fill="#c784e1"/>
</svg>
