<svg xmlns="http://www.w3.org/2000/svg" xmlns:xlink="http://www.w3.org/1999/xlink" width="553.837" height="560.648" viewBox="0 0 553.837 560.648">
  <defs>
    <clipPath id="clip-path">
      <path id="Path_2057" data-name="Path 2057" d="M381.109,496.12c.573-.015,1.353-.576,2.322-1.669.932-1.056,4.84-4.533,8.689-7.76,8.2-6.893,10.618-9.562,13.1-14.714,2.418-4.967,6.332-17.817,6.332-20.917,0-1.926.5-2.982,2.6-5.4,7.079-8.258,18.254-19.557,24.214-24.462a115.69,115.69,0,0,0,19.616-20.734c2.542-3.412,4.468-5.524,4.282-4.657-.248.87-.746,4.471-1.118,8.011a46.608,46.608,0,0,1-7.945,22.347c-6.27,9.249-8.069,13.72-10,24.459a49.589,49.589,0,0,1-1.861,7.822,7.31,7.31,0,0,0-.622,2.483c0,2.422,2.36,1.427,6.893-2.855,11.237-10.618,15.083-21.542,16.139-45.5.746-18,1.8-21.917,9.5-35.634A112.077,112.077,0,0,0,485.24,341.8c.557-3.784,1.239-6.453,1.486-6.081a72.583,72.583,0,0,1,1.867,7.326c1.3,5.834,1.424,8.193,1.486,22.66v16.139l2.36,8.379c2.672,9.376,2.982,10.243,4.221,10.243,1.3,0,6.766-19.864,7.2-26.134.619-9.187-2.36-19.183-8.5-28.184a77.207,77.207,0,0,1-8.131-16.7c-.935-2.61-1.183-5.153-1.183-11.116,0-15.829-2.545-26.32-10.243-42.335a168.633,168.633,0,0,1-7.76-18.935c-2.418-7.76-8.255-31.349-7.884-31.782.681-.622,11.547,16.944,13.532,21.849,4.471,11.175,6.208,13.906,13.971,22.164a48.736,48.736,0,0,1,5.524,6.642c.619,1.242,1.428,1.926,2.236,1.926,1.177,0,1.239-.251.929-1.988-.186-1.118-.805-4.967-1.3-8.568-2.545-17.879-5.589-23.279-18.251-32.216-6.147-4.409-13.782-12.293-16.077-16.637-2.112-4.038-2.363-5.279-4.162-22.784a160.739,160.739,0,0,0-8.069-34.265c-2.607-6.831-6.828-15.77-15.083-31.723-4.533-8.754-5.214-10.494-3.914-9.562a37.13,37.13,0,0,0,4.409,2.548c4.224,2.171,12.971,9.122,17.442,13.965,10.742,11.547,15.151,20.982,17.631,37.433,1.118,7.45,2.359,11.733,4.781,16.575,2.793,5.462,14.773,22.784,15.581,22.471.434-.124.743-1.056.681-2.047-.186-4.719-2.236-21.542-3.1-25.391a38.575,38.575,0,0,0-8.382-16.2c-3.1-3.412-10.24-14.027-14.154-21.044a77.387,77.387,0,0,0-11.671-15.145c-2.109-2.236-3.784-4.162-3.66-4.285.5-.434,7.633,3.539,11.3,6.27,4.843,3.663,12.664,7.45,20.115,9.748,7.822,2.356,21.79,5.648,22.471,5.214,1.056-.684.433-2.05-1.737-3.663-1.242-.932-5.338-4.657-9.125-8.2-11.361-10.8-16.761-13.033-33.646-13.9-11.3-.622-18.873-2.05-23.9-4.6-3.23-1.613-10.742-7.323-14.9-11.237-4.778-4.468-16.882-13.9-21.229-16.51-4.468-2.672-11.048-5.651-23.09-10.429l-7.45-2.979,3.474-.684c2.545-.561,5.153-.561,9.562-.124,7.633.808,8.255.991,17.009,5.214,3.911,1.923,10.057,4.778,13.658,6.391,6.518,2.92,6.518,2.92,14.584,3.168,10.37.372,14.838-.248,15.086-2.05.127-1.053-.372-1.486-2.545-2.356-1.551-.56-6.766-3.728-11.671-7.017-4.9-3.226-11.605-7.2-14.835-8.812-5.837-2.8-5.961-2.858-12.1-2.858-4.6,0-8.568.557-15.21,1.988-21.6,4.657-21.728,4.719-25.828,3.353a240.039,240.039,0,0,1-31.16-13.1c-12.6-6.521-23.093-13.785-31.225-21.483-8.754-8.379-12.417-11.172-17.631-13.717l-4.344-2.112,9.311.31c11.175.375,28.06,3.6,34.578,6.518a37.988,37.988,0,0,0,15.891,3.79,61.573,61.573,0,0,1,9.249.929,66.3,66.3,0,0,0,21.6,0,71.687,71.687,0,0,1,7.822-.929c1.613,0,2.421-.31,2.669-1.059.622-1.551-1.242-2.666-4.282-2.666-1.988,0-4.471-.994-10.367-4.035-8.382-4.347-12.479-5.527-21.109-6.208-6.205-.5-10.429.248-17.133,2.855a19.266,19.266,0,0,1-13.782.87c-12.726-3.539-22.908-4.6-33.584-3.477-6.89.743-7.447.681-17.257-1.18-26.633-4.967-41.777-4.035-66.673,4.1-9.122,2.979-27.252,11.794-36.439,17.693a103.331,103.331,0,0,1-11.485,5.9c-8.131,3.412-20.548,9.5-29.175,14.213-10,5.465-17.879,8.193-27,9.311l-3.415.437,5.775-2.917c7.264-3.663,15.148-10.924,21.418-19.867,6.887-9.806,11.98-14.525,21.539-20.173,6.023-3.539,10.243-4.781,20.362-5.834,18.374-2.053,23.032-3.976,32.528-13.658,6.208-6.27,7.636-8.444,6.081-9.376a5.286,5.286,0,0,0-2.79.56c-1.245.557-5.651,1.366-9.81,1.923-12.912,1.551-21.976,5.465-30.172,13.036-3.227,2.979-5.9,4.843-7.884,5.589C132.2,24.333,121.65,30.913,116,36.809a118.087,118.087,0,0,0-8.2,10.184,94.859,94.859,0,0,1-9.868,11.42c-4.468,4.224-6.332,5.4-14.962,9.686-9.93,4.964-13.532,6.081-11.423,3.787.622-.622,2.3-4.035,3.849-7.636,1.616-3.536,3.292-7.385,3.849-8.5,1.678-3.353,6.583-7.949,10.8-10.057,7.137-3.6,12.912-10.927,17.133-21.731a31.985,31.985,0,0,1,3.415-6.391c3.35-4.282.932-6.518-2.855-2.483-1.245,1.366-5.589,4.224-10.615,6.952C87.753,27.191,82.353,31.6,80.183,35.88c-1.554,3.1-3.852,11.547-3.852,14.092,0,2.236-2.731,10-5.462,15.581-2.109,4.224-2.607,4.843-5.9,6.645a26.2,26.2,0,0,1-7.388,2.6C45.79,76.729,28.035,90.2,19.656,103.547c-2.112,3.412-4.6,7.636-5.527,9.37a124.657,124.657,0,0,0-7.7,19.991,108.954,108.954,0,0,1-3.787,11.3c-3.536,9.187-3.536,12.414.065,8.565,1.923-2.109,6.143-12.352,7.819-19.056,1.118-4.347,1.678-5.586,3.044-6.456.87-.557,3.412-2.483,5.648-4.282,4.84-3.911,16.637-10.742,20.424-11.921a40.318,40.318,0,0,1,8.441-.805,33.189,33.189,0,0,1,11.794,1.861c10.494,3.227,14.343,3.041,22.908-.994,4.344-2.047,10.927-7.45,10.927-8.936,0-1.431.062-1.431-7.14-1.245a62.729,62.729,0,0,1-10.862-.867C69.565,98.89,60.006,98.7,54.544,99.7c-11.732,2.109-24.087,8.754-36.006,19.241-5.029,4.409-4.781,3.415,2.047-8.565,4.53-8.072,5.837-9.806,11.051-14.9A69.36,69.36,0,0,1,49.946,82.064c3.79-1.923,5.4-2.294,12.417-3.1,13.658-1.493,30.11-4.162,36.006-5.713A101.294,101.294,0,0,0,121.4,63.008c3.412-1.985,6.639-3.66,7.134-3.66s3.976.743,7.7,1.613c6.023,1.427,8.754,1.675,22.97,2.109,12.726.375,17.384.743,22.038,1.8a85.892,85.892,0,0,0,27.565,1.115c4.344-.5,8.255-1.239,8.627-1.613,3.106-3.1-19.179-12.479-29.673-12.479-3.787,0-10.862,1.678-19.678,4.657a55.045,55.045,0,0,1-27.438,1.861c-3.6-.619-6.58-1.366-6.58-1.613s2.731-1.613,6.023-3.041c10.862-4.657,13.717-6.085,17.38-8.565,1.988-1.307,8.754-5.094,15.086-8.32,11.42-5.9,25.14-11.048,34.327-12.915,3.6-.743,3.663-.681,8.072,1.554a188.662,188.662,0,0,1,23.4,15.519c7.447,6.023,9.122,7.14,13.841,9.314,6.023,2.731,12.045,3.908,22.66,4.282,10.429.433,10.367.433,3.165-5.338-6.394-5.094-12.042-7.763-18.87-8.943-18.687-3.1-20.115-3.6-29.364-9.745-3.66-2.421-8.379-5.338-10.553-6.391-4.781-2.425-4.282-2.734,5.153-3.171,14.03-.681,37.306,2.858,48.357,7.388,8.255,3.353,10.057,4.6,17.071,11.3,3.292,3.168,8.011,7.45,10.494,9.621,4.9,4.344,9.311,9.933,11.358,14.714.746,1.675,2.421,4.843,3.663,7.075a31.631,31.631,0,0,1,3.1,7.76c.437,2.05,1.431,5.527,2.174,7.763a59.7,59.7,0,0,1,2.174,9.93,46.215,46.215,0,0,0,3.168,11.98c2.109,5.279,2.79,8.134,4.592,19.368.808,4.9,10.119,20.424,12.042,20.053.87-.189,1.056-1.861,1.489-11.671.31-7.264.31-12.665-.121-14.652-1-5.214-4.846-12.352-10.432-19.368a79.787,79.787,0,0,1-6.828-9.745c-1.551-3.044-4.53-10.494-4.53-11.358,0-.189,1.3,1.115,2.917,2.979,3.353,3.908,14.9,15.953,20.359,21.229a57.821,57.821,0,0,0,9.311,6.893c4.784,2.852,6.335,4.217,10.618,9.432a87.723,87.723,0,0,0,8.751,9.252c3.477,2.855,22.908,14.03,24.4,14.03,1.177,0,1.366-1.74.434-3.539-.56-.932-2.421-4.657-4.162-8.258-4.035-8.131-6.7-11.668-13.036-17.133-7.7-6.58-10.8-8.382-20.173-11.918a156.077,156.077,0,0,1-15.767-7.137c-6.58-3.539-7.574-4.347-14.464-11.612-8.819-9.311-10.618-11.794-15.148-20.669l-3.415-6.7,2.359,1.486a253.911,253.911,0,0,0,25.019,12.541c52.021,20.424,54.625,21.666,67.664,31.909,8.379,6.58,13.1,11.609,16.575,17.569,2.852,4.778,3.1,5.583,3.787,11.668.991,8.819.932,10.553-.5,14.4-1.489,4.035-3.415,7.017-8.441,13.1-2.115,2.545-4.657,5.834-5.589,7.323-.991,1.492-5.586,6.828-10.24,11.794-9,9.686-12.355,14.714-13.538,20.177-.31,1.74-.991,7.574-1.366,12.912-.681,8.382-.616,9.872.127,10.367a3.458,3.458,0,0,0,1.3.56,29.175,29.175,0,0,0,3.226-4.967,103.285,103.285,0,0,1,8.506-11.609,100.414,100.414,0,0,0,7.2-9.373,52.074,52.074,0,0,0,5.462-16.823c.867-9.19,2.109-11.794,11.485-23.527,2.917-3.666,3.041-3.787,2.669-1.864-.186,1.115-1.365,5.4-2.545,9.5-6.023,20.734-6.394,23.4-6.518,44.385l-.127,14.591,2.05,4.9a51.066,51.066,0,0,1,3.23,12.974c1.115,7.261,1.675,9,5.276,17.195,2.236,5.029,4.035,9.435,4.035,9.806,0,.808,1.923,1.551,2.483.935.991-1.059,3.1-16.637,3.1-22.722,0-8.754-1.056-12.166-7.264-23.592a121.117,121.117,0,0,1-7.137-15.519c-1.737-5.4-1.864-6.143-1.551-12.85.372-8.317,1.427-13.593,4.719-23.9,3.97-12.476,4.592-15.953,4.282-26.134l-.186-8.939,4.159,8.379c10.364,20.672,14.9,36.628,16.947,59.594.557,6.146,1.366,13.72,1.861,16.888,1.926,11.98,8.32,36.811,11.609,45.193,1.056,2.542,1.242,4.53,1.242,11.172-.059,14.776-2.669,20.362-10.367,22.1-3.041.681-4.282.622-9.311-.372-6.208-1.18-8.255-1.056-14.714.932a20.745,20.745,0,0,0-12.909,10.367c-3.044,5.276-4.224,8.627-3.353,9.5.434.434,2.236-.124,5.4-1.551,4.6-2.112,7.326-2.858,18.312-4.967,7.14-1.366,12.915-3.6,16.826-6.58a14.893,14.893,0,0,1,3.539-2.3c.307.372-7.264,12.29-11.3,17.631a163.871,163.871,0,0,1-13.036,14.216c-10.057,9.992-12.231,13.222-14.154,21.167-1,3.911-2.363,17.569-1.864,18.378.746,1.239,2.421,0,10-7.388,11.358-11.237,12.661-13.6,16.325-29.983,1.864-8.131,2.607-9.872,6.518-15.21,10.927-14.773,16.2-27.255,16.95-40.291l.434-6.766,3.23,6.766c5.9,12.293,7.942,24.4,7.447,43.889-.372,13.906-1.242,19.121-5.091,30.732-3.849,11.544-11.667,25.7-21.353,38.8-2.3,3.168-2.607,3.353-5.775,3.725-1.8.186-7.509,1.3-12.6,2.545-5.156,1.242-11.547,2.731-14.343,3.415-6.7,1.551-10.924,3.353-19.492,8.131-6.02,3.415-8.131,5.029-13.655,10.553-6.58,6.58-11.175,13.16-11.175,15.956,0,1.8.867,1.8,5.713-.065,2.174-.805,5.586-1.988,7.574-2.6,6.453-1.926,17.068-10.057,26.506-20.239,3.725-4.035,7.14-7.079,9.125-8.131,2.92-1.613,21.787-6.955,22.347-6.332.622.619-5.834,7.261-13.036,13.408-4.344,3.725-12.29,11.609-17.69,17.446-5.4,5.9-13.906,14.773-18.873,19.737-8.379,8.32-9.249,9.438-12.166,15.213-3.23,6.453-8.506,22.719-8.131,25.2.149,1.016.5,1.53,1.034,1.545Z" transform="translate(0 0)" fill="none"/>
    </clipPath>
    <linearGradient id="linear-gradient" x1="1.028" y1="-0.017" x2="1.022" y2="-0.017" gradientUnits="objectBoundingBox">
      <stop offset="0" stop-color="#a87a57"/>
      <stop offset="0.064" stop-color="#ac7f5b"/>
      <stop offset="0.197" stop-color="#dfa176"/>
      <stop offset="0.341" stop-color="#af805e"/>
      <stop offset="1" stop-color="#c8a37b"/>
    </linearGradient>
    <clipPath id="clip-path-2">
      <path id="Path_2058" data-name="Path 2058" d="M5.465,6.456A3.57,3.57,0,0,0,3.477,0C2.112,0,0,2.233,0,3.725,0,5.091,2.05,7.45,3.292,7.45a4.974,4.974,0,0,0,2.174-.994" transform="translate(0)" fill="none"/>
    </clipPath>
    <linearGradient id="linear-gradient-2" x1="15.082" y1="-54.203" x2="14.707" y2="-54.203" xlink:href="#linear-gradient"/>
    <clipPath id="clip-path-3">
      <path id="Path_2059" data-name="Path 2059" d="M4.208,3.672a2.659,2.659,0,0,0,.35-1.245v-.09A2.292,2.292,0,0,0,.483.879,2.96,2.96,0,0,0,.111,3.362,2.072,2.072,0,0,0,2.158,4.945a2.307,2.307,0,0,0,2.05-1.273" transform="translate(0)" fill="none"/>
    </clipPath>
    <linearGradient id="linear-gradient-3" x1="1" y1="-59.031" x2="0.34" y2="-59.031" xlink:href="#linear-gradient"/>
    <clipPath id="clip-path-4">
      <path id="Path_2060" data-name="Path 2060" d="M7.321,9.024C9.309,6.664,8.377,2.01,5.646.518,1.364-1.777-1.928,4.057,1.3,8.215a4.868,4.868,0,0,0,3.753,1.66,2.9,2.9,0,0,0,2.27-.852" transform="translate(0 0)" fill="none"/>
    </clipPath>
    <linearGradient id="linear-gradient-4" x1="1.307" y1="-27.346" x2="1.032" y2="-27.346" xlink:href="#linear-gradient"/>
    <clipPath id="clip-path-5">
      <path id="Path_2061" data-name="Path 2061" d="M4.744,5.363C6.608,3.5,4.744-.346,2.2.025.338.276-.47,2.01.276,4.06a2.921,2.921,0,0,0,2.75,2,2.386,2.386,0,0,0,1.719-.7" transform="translate(0 0)" fill="none"/>
    </clipPath>
    <linearGradient id="linear-gradient-5" x1="15.537" y1="-41.35" x2="15.1" y2="-41.35" xlink:href="#linear-gradient"/>
    <clipPath id="clip-path-6">
      <path id="Path_2062" data-name="Path 2062" d="M6.324,7.949a5.817,5.817,0,0,0,.248-6.518A3.962,3.962,0,0,0,.985.932c-1.366,1.3-1.3,5.091.124,6.642A4.244,4.244,0,0,0,4.15,8.8a2.757,2.757,0,0,0,2.174-.848" transform="translate(0 0)" fill="none"/>
    </clipPath>
    <linearGradient id="linear-gradient-6" x1="14.728" y1="-26.01" x2="14.351" y2="-26.01" xlink:href="#linear-gradient"/>
    <clipPath id="clip-path-7">
      <path id="Path_2063" data-name="Path 2063" d="M6.721,7.232C9.2,4.749,7.839.962,4.237.154c-1.8-.434-2.6,0-3.66,1.926C-.977,5.059.763,8.471,3.928,8.471A4.568,4.568,0,0,0,6.721,7.232" transform="translate(0 0)" fill="none"/>
    </clipPath>
    <linearGradient id="linear-gradient-7" x1="39.386" y1="-10.947" x2="39.082" y2="-10.947" xlink:href="#linear-gradient"/>
    <clipPath id="clip-path-8">
      <path id="Path_2064" data-name="Path 2064" d="M4.822,4.027a3.622,3.622,0,0,0,.5-2.359C5.194.55,4.7.179,3.144.055,1.469-.131.97.117.413,1.42c-.56,1.242-.56,1.8.062,2.545a2.893,2.893,0,0,0,2.208.892,2.876,2.876,0,0,0,2.14-.83" transform="translate(0 0)" fill="none"/>
    </clipPath>
    <linearGradient id="linear-gradient-8" x1="45.935" y1="-16.345" x2="45.381" y2="-16.345" xlink:href="#linear-gradient"/>
    <clipPath id="clip-path-9">
      <path id="Path_2065" data-name="Path 2065" d="M6.391,6.332A3.583,3.583,0,0,0,7.447,4.22C7.447,3.041,4.654,0,3.6,0A4.035,4.035,0,0,0,0,3.66a3.851,3.851,0,0,0,3.858,3.8,3.349,3.349,0,0,0,2.533-1.13" transform="translate(0)" fill="none"/>
    </clipPath>
    <linearGradient id="linear-gradient-9" x1="37.308" y1="-9.692" x2="36.893" y2="-9.692" xlink:href="#linear-gradient"/>
    <clipPath id="clip-path-10">
      <path id="Path_2066" data-name="Path 2066" d="M5.089,4.573A2.735,2.735,0,0,0,1.925.229,3.386,3.386,0,0,0,.184,4.511,2.1,2.1,0,0,0,2.346,5.753a3.717,3.717,0,0,0,2.743-1.18" transform="translate(0)" fill="none"/>
    </clipPath>
    <linearGradient id="linear-gradient-10" x1="14.376" y1="-8.919" x2="13.964" y2="-8.919" xlink:href="#linear-gradient"/>
    <clipPath id="clip-path-11">
      <path id="Path_2067" data-name="Path 2067" d="M7.443,6.828A3.951,3.951,0,0,0,4.585,0C.613,0-1.31,3.474.987,6.7a3.757,3.757,0,0,0,3.137,1.39A4.745,4.745,0,0,0,7.443,6.828" transform="translate(0)" fill="none"/>
    </clipPath>
    <linearGradient id="linear-gradient-11" x1="11.787" y1="-6.711" x2="11.515" y2="-6.711" xlink:href="#linear-gradient"/>
    <clipPath id="clip-path-12">
      <path id="Path_2068" data-name="Path 2068" d="M6.744,7.016C8.667,4.474,7.735,1.43,4.629.25.533-1.3-1.948,4.781,1.96,6.83a6.957,6.957,0,0,0,3.047.886,2.137,2.137,0,0,0,1.737-.7" transform="translate(0 0)" fill="none"/>
    </clipPath>
    <linearGradient id="linear-gradient-12" x1="28.356" y1="0.173" x2="28.064" y2="0.173" xlink:href="#linear-gradient"/>
  </defs>
  <g id="Group_1503" data-name="Group 1503" transform="matrix(-0.122, -0.993, 0.993, -0.122, 52.848, 561.7)">
    <g id="Group_376" data-name="Group 376" transform="translate(0 8.631)">
      <g id="Group_375" data-name="Group 375" transform="translate(0 0)" clip-path="url(#clip-path)">
        <rect id="Rectangle_125" data-name="Rectangle 125" width="505.374" height="496.242" transform="translate(-0.892 -0.123)" fill="url(#linear-gradient)"/>
      </g>
    </g>
    <g id="Group_378" data-name="Group 378" transform="translate(394.17 403.819)">
      <g id="Group_377" data-name="Group 377" transform="translate(0 0)" clip-path="url(#clip-path-2)">
        <rect id="Rectangle_126" data-name="Rectangle 126" width="8.255" height="7.45" transform="translate(0 0)" fill="url(#linear-gradient-2)"/>
      </g>
    </g>
    <g id="Group_380" data-name="Group 380" transform="translate(514.118 349.863)">
      <g id="Group_379" data-name="Group 379" transform="translate(0 0)" clip-path="url(#clip-path-3)">
        <rect id="Rectangle_127" data-name="Rectangle 127" width="4.694" height="5.905" transform="translate(-0.137 -0.96)" fill="url(#linear-gradient-3)"/>
      </g>
    </g>
    <g id="Group_382" data-name="Group 382" transform="translate(505.914 320.737)">
      <g id="Group_381" data-name="Group 381" transform="translate(0 0)" clip-path="url(#clip-path-4)">
        <rect id="Rectangle_128" data-name="Rectangle 128" width="11.237" height="11.652" transform="translate(-1.928 -1.777)" fill="url(#linear-gradient-4)"/>
      </g>
    </g>
    <g id="Group_384" data-name="Group 384" transform="translate(409.166 265.484)">
      <g id="Group_383" data-name="Group 383" transform="translate(0 0)" clip-path="url(#clip-path-5)">
        <rect id="Rectangle_129" data-name="Rectangle 129" width="7.079" height="6.41" transform="translate(-0.47 -0.347)" fill="url(#linear-gradient-5)"/>
      </g>
    </g>
    <g id="Group_386" data-name="Group 386" transform="translate(398.337 242.292)">
      <g id="Group_385" data-name="Group 385" transform="translate(0 0)" clip-path="url(#clip-path-6)">
        <rect id="Rectangle_130" data-name="Rectangle 130" width="8.196" height="9.292" transform="translate(-0.38 -0.495)" fill="url(#linear-gradient-6)"/>
      </g>
    </g>
    <g id="Group_388" data-name="Group 388" transform="translate(118.651 96.13)">
      <g id="Group_387" data-name="Group 387" transform="translate(0 0)" clip-path="url(#clip-path-7)">
        <rect id="Rectangle_131" data-name="Rectangle 131" width="10.181" height="8.751" transform="translate(-0.977 -0.28)" fill="url(#linear-gradient-7)"/>
      </g>
    </g>
    <g id="Group_390" data-name="Group 390" transform="translate(262.089 81.704)">
      <g id="Group_389" data-name="Group 389" transform="translate(0 0)" clip-path="url(#clip-path-8)">
        <rect id="Rectangle_132" data-name="Rectangle 132" width="5.589" height="4.988" transform="translate(-0.148 -0.131)" fill="url(#linear-gradient-8)"/>
      </g>
    </g>
    <g id="Group_392" data-name="Group 392" transform="translate(240.839 72.324)">
      <g id="Group_391" data-name="Group 391" transform="translate(0 0)" clip-path="url(#clip-path-9)">
        <rect id="Rectangle_133" data-name="Rectangle 133" width="7.447" height="7.462" transform="translate(0 0)" fill="url(#linear-gradient-9)"/>
      </g>
    </g>
    <g id="Group_394" data-name="Group 394" transform="translate(411.057 60.362)">
      <g id="Group_393" data-name="Group 393" transform="translate(0 0)" clip-path="url(#clip-path-10)">
        <rect id="Rectangle_134" data-name="Rectangle 134" width="7.512" height="6.642" transform="translate(-0.373 -0.889)" fill="url(#linear-gradient-10)"/>
      </g>
    </g>
    <g id="Group_396" data-name="Group 396" transform="translate(386.107 54.321)">
      <g id="Group_395" data-name="Group 395" transform="translate(0)" clip-path="url(#clip-path-11)">
        <rect id="Rectangle_135" data-name="Rectangle 135" width="11.358" height="8.094" transform="translate(-1.31 0)" fill="url(#linear-gradient-11)"/>
      </g>
    </g>
    <g id="Group_398" data-name="Group 398" transform="translate(219.632 0)">
      <g id="Group_397" data-name="Group 397" transform="translate(0 0)" clip-path="url(#clip-path-12)">
        <rect id="Rectangle_136" data-name="Rectangle 136" width="10.615" height="9.017" transform="translate(-1.948 -1.301)" fill="url(#linear-gradient-12)"/>
      </g>
    </g>
  </g>
</svg>
