<svg xmlns="http://www.w3.org/2000/svg" width="35.435" height="62" viewBox="0 0 35.435 62">
  <g id="Group_1505" data-name="Group 1505" transform="translate(-1008.403 -3539.552)">
    <rect id="Rectangle_549" data-name="Rectangle 549" width="33.435" height="38.616" rx="10" transform="translate(1009.403 3551.03)" fill="none" stroke="#c784e1" stroke-linecap="round" stroke-linejoin="round" stroke-width="2"/>
    <path id="Path_13005" data-name="Path 13005" d="M38.039,9.995,35.726,3.758A1.549,1.549,0,0,0,34.273,2.75H19.5a1.549,1.549,0,0,0-1.452,1.008L15.731,9.995" transform="translate(999.235 3537.802)" fill="none" stroke="#c784e1" stroke-linecap="round" stroke-linejoin="round" stroke-width="2"/>
    <path id="Path_13006" data-name="Path 13006" d="M15.731,125.543l2.313,6.237a1.548,1.548,0,0,0,1.452,1.008H34.273a1.548,1.548,0,0,0,1.452-1.008l2.313-6.237" transform="translate(999.235 3467.764)" fill="none" stroke="#c784e1" stroke-linecap="round" stroke-linejoin="round" stroke-width="2"/>
    <path id="Path_13007" data-name="Path 13007" d="M29.138,55.428c3.743-5.154,9.839-1.617,9.447,3.829-.357,4.947-9.447,10.1-9.447,10.1s-9.09-5.154-9.447-10.1C19.3,53.811,25.395,50.274,29.138,55.428Z" transform="translate(996.983 3509.198)" fill="none" stroke="#c784e1" stroke-linecap="round" stroke-linejoin="round" stroke-width="2"/>
  </g>
</svg>
