<svg xmlns="http://www.w3.org/2000/svg" xmlns:xlink="http://www.w3.org/1999/xlink" width="820" height="494" viewBox="0 0 820 494">
  <defs>
    <clipPath id="clip-path">
      <rect id="Rectangle_565" data-name="Rectangle 565" width="820" height="494" fill="none" stroke="#707070" stroke-width="10"/>
    </clipPath>
    <clipPath id="clip-path-2">
      <path id="Path_2057" data-name="Path 2057" d="M522.616,0c.786.021,1.856.79,3.185,2.289,1.278,1.448,6.637,6.216,11.915,10.641,11.24,9.452,14.56,13.112,17.966,20.178,3.316,6.811,8.683,24.433,8.683,28.683,0,2.641.679,4.089,3.571,7.405,9.707,11.325,25.031,26.819,33.205,33.545a158.644,158.644,0,0,1,26.9,28.432c3.486,4.679,6.127,7.575,5.872,6.386-.34-1.193-1.023-6.132-1.533-10.985a63.913,63.913,0,0,0-10.9-30.645c-8.6-12.683-11.066-18.815-13.707-33.541-.938-5.023-2.042-9.877-2.552-10.726a10.023,10.023,0,0,1-.853-3.405c0-3.321,3.236-1.958,9.452,3.915,15.409,14.56,20.683,29.541,22.131,62.4,1.023,24.687,2.467,30.055,13.027,48.865,7.575,13.448,13.872,31.923,16.429,48.186.764,5.189,1.7,8.849,2.038,8.339a99.481,99.481,0,0,0,2.56-10.046c1.783-8,1.953-11.235,2.038-31.074V156.71l3.236-11.49c3.664-12.857,4.089-14.046,5.788-14.046,1.788,0,9.278,27.239,9.877,35.838.849,12.6-3.236,26.305-11.66,38.649a105.871,105.871,0,0,0-11.151,22.9c-1.282,3.58-1.622,7.066-1.622,15.244,0,21.706-3.49,36.093-14.046,58.054a231.24,231.24,0,0,0-10.641,25.965c-3.316,10.641-11.32,42.988-10.811,43.583.934.853,15.834-23.235,18.556-29.961,6.131-15.324,8.514-19.07,19.159-30.394,3.405-3.575,6.811-7.66,7.575-9.108.849-1.7,1.958-2.641,3.066-2.641,1.614,0,1.7.344,1.274,2.726-.255,1.533-1.1,6.811-1.788,11.749-3.49,24.517-7.664,31.923-25.027,44.177-8.429,6.047-18.9,16.857-22.046,22.815-2.9,5.537-3.24,7.24-5.707,31.243A220.422,220.422,0,0,1,615.013,459c-3.575,9.367-9.363,21.626-20.683,43.5-6.216,12-7.151,14.39-5.367,13.112a50.916,50.916,0,0,1,6.047-3.495c5.792-2.977,17.787-12.509,23.919-19.15,14.73-15.834,20.777-28.772,24.178-51.332,1.533-10.216,3.236-16.089,6.556-22.73,3.83-7.49,20.259-31.243,21.367-30.815.594.17,1.019,1.448.934,2.807-.255,6.471-3.066,29.541-4.255,34.819a52.9,52.9,0,0,1-11.494,22.22c-4.255,4.679-14.042,19.235-19.409,28.857a106.12,106.12,0,0,1-16,20.768c-2.892,3.066-5.189,5.707-5.019,5.877.679.594,10.467-4.853,15.49-8.6,6.641-5.023,17.367-10.216,27.583-13.367,10.726-3.231,29.88-7.745,30.815-7.151,1.448.938.594,2.811-2.382,5.023-1.7,1.278-7.32,6.386-12.513,11.24-15.579,14.811-22.985,17.872-46.139,19.065-15.49.854-25.88,2.811-32.772,6.3-4.429,2.212-14.73,10.042-20.437,15.409-6.552,6.127-23.15,19.065-29.112,22.641-6.127,3.664-15.15,7.749-31.664,14.3l-10.216,4.085,4.764.938c3.49.769,7.066.769,13.112.17,10.467-1.108,11.32-1.359,23.324-7.151,5.363-2.637,13.792-6.552,18.73-8.764,8.938-4,8.938-4,20-4.344,14.22-.51,20.348.34,20.687,2.811.174,1.444-.51,2.038-3.49,3.231-2.127.769-9.278,5.112-16,9.622-6.726,4.424-15.915,9.872-20.343,12.085-8,3.834-8.174,3.919-16.6,3.919-6.3,0-11.749-.764-20.857-2.726-29.626-6.386-29.8-6.471-35.417-4.6a329.17,329.17,0,0,0-42.729,17.961c-17.282,8.942-31.668,18.9-42.819,29.46-12,11.49-17.027,15.32-24.178,18.811l-5.957,2.9,12.768-.425c15.324-.514,38.479-4.938,47.417-8.938,7.66-3.495,14.811-5.2,21.791-5.2a84.442,84.442,0,0,0,12.683-1.274c8.429-1.618,19.838-1.618,29.626,0a98.315,98.315,0,0,0,10.726,1.274c2.212,0,3.32.425,3.66,1.452.854,2.127-1.7,3.656-5.872,3.656-2.726,0-6.132,1.363-14.216,5.533-11.494,5.962-17.112,7.579-28.946,8.514-8.509.679-14.3-.34-23.494-3.915-6.981-2.811-11.83-3.066-18.9-1.193-17.452,4.853-31.413,6.3-46.054,4.768-9.448-1.019-10.212-.934-23.664,1.618-36.521,6.811-57.29,5.533-91.429-5.618-12.509-4.085-37.371-16.174-49.969-24.263a141.71,141.71,0,0,0-15.749-8.089c-11.15-4.679-28.178-13.023-40.008-19.49-13.707-7.495-24.517-11.235-37.031-12.768l-4.684-.6,7.919,4C133.194,590.776,144,600.734,152.6,613c9.444,13.448,16.429,19.919,29.536,27.664,8.259,4.853,14.046,6.556,27.923,8,25.2,2.815,31.583,5.452,44.606,18.73,8.514,8.6,10.471,11.579,8.34,12.857-.42.251-2.127-.089-3.826-.769-1.707-.764-7.749-1.873-13.452-2.637-17.707-2.127-30.135-7.495-41.375-17.876-4.425-4.085-8.085-6.641-10.811-7.664-12.254-4.34-26.725-13.363-34.475-21.447a161.911,161.911,0,0,1-11.24-13.966,130.08,130.08,0,0,0-13.533-15.66c-6.127-5.792-8.683-7.405-20.518-13.282-13.618-6.807-18.556-8.34-15.664-5.193.854.854,3.151,5.533,5.278,10.471,2.216,4.849,4.514,10.127,5.278,11.66,2.3,4.6,9.027,10.9,14.815,13.792,9.787,4.938,17.707,14.985,23.494,29.8a43.864,43.864,0,0,0,4.684,8.764c4.594,5.872,1.278,8.938-3.915,3.405-1.707-1.873-7.664-5.792-14.556-9.533-12.857-7.07-20.263-13.112-23.239-18.985-2.132-4.255-5.282-15.834-5.282-19.324,0-3.066-3.745-13.707-7.49-21.367-2.892-5.792-3.575-6.641-8.089-9.112a35.931,35.931,0,0,0-10.131-3.571c-16.169-2.641-40.517-21.116-52.007-39.417-2.9-4.679-6.306-10.471-7.579-12.849-3.49-6.811-8.938-20.777-10.556-27.413a149.415,149.415,0,0,0-5.193-15.494c-4.849-12.6-4.849-17.023.089-11.745,2.637,2.892,8.424,16.938,10.722,26.131,1.533,5.962,2.3,7.66,4.174,8.853,1.193.764,4.679,3.405,7.745,5.872,6.637,5.363,22.815,14.73,28.008,16.348a55.29,55.29,0,0,0,11.575,1.1c6.386,0,9.537-.51,16.174-2.552,14.39-4.424,19.668-4.17,31.413,1.363,5.957,2.807,14.985,10.216,14.985,12.255,0,1.962.085,1.962-9.792,1.707a86.021,86.021,0,0,0-14.9,1.189c-8.429,1.618-21.537,1.877-29.027.51-16.089-2.892-33.031-12-49.375-26.386-6.9-6.047-6.556-4.684,2.807,11.745,6.212,11.07,8,13.448,15.155,20.433,8.6,8.424,15.49,13.452,25.108,18.39,5.2,2.637,7.41,3.146,17.027,4.25,18.73,2.047,41.29,5.707,49.375,7.834,9.367,2.637,20.263,7.405,31.587,14.046,4.679,2.722,9.1,5.019,9.783,5.019s5.452-1.019,10.556-2.212c8.259-1.957,12-2.3,31.5-2.892,17.452-.514,23.838-1.019,30.22-2.471a117.783,117.783,0,0,1,37.8-1.529c5.957.679,11.32,1.7,11.83,2.212,4.259,4.255-26.3,17.112-40.691,17.112-5.193,0-14.9-2.3-26.985-6.386a75.484,75.484,0,0,0-37.625-2.552c-4.938.849-9.023,1.873-9.023,2.212s3.745,2.212,8.259,4.17c14.9,6.386,18.811,8.344,23.834,11.745,2.726,1.792,12,6.985,20.687,11.409,15.66,8.085,34.475,15.15,47.073,17.711,4.938,1.019,5.023.934,11.07-2.132,8-4.174,24.089-14.811,32.093-21.282,10.212-8.259,12.509-9.792,18.98-12.773,8.259-3.745,16.518-5.359,31.074-5.872,14.3-.594,14.216-.594,4.34,7.32-8.768,6.985-16.513,10.645-25.876,12.263-25.626,4.255-27.583,4.934-40.267,13.363-5.019,3.32-11.49,7.32-14.471,8.764-6.556,3.325-5.872,3.749,7.066,4.348,19.239.934,51.158-3.919,66.313-10.131,11.32-4.6,13.792-6.3,23.409-15.494,4.514-4.344,10.985-10.216,14.39-13.193,6.726-5.957,12.768-13.622,15.575-20.178,1.023-2.3,3.32-6.641,5.023-9.7a43.374,43.374,0,0,0,4.255-10.641c.6-2.811,1.962-7.579,2.981-10.645a81.86,81.86,0,0,0,2.981-13.618,63.377,63.377,0,0,1,4.344-16.428c2.892-7.24,3.826-11.155,6.3-26.56,1.108-6.726,13.877-28.008,16.513-27.5,1.193.259,1.448,2.552,2.042,16,.425,9.962.425,17.367-.166,20.093-1.367,7.151-6.645,16.938-14.305,26.56-4,5.019-8.17,10.976-9.363,13.363-2.127,4.174-6.212,14.39-6.212,15.575,0,.259,1.788-1.529,4-4.085,4.6-5.359,20.428-21.876,27.919-29.112a79.291,79.291,0,0,1,12.768-9.452c6.56-3.911,8.688-5.783,14.56-12.934a120.289,120.289,0,0,1,12-12.688c4.768-3.915,31.413-19.239,33.46-19.239,1.614,0,1.873,2.386.594,4.853-.769,1.278-3.321,6.386-5.707,11.325-5.533,11.151-9.193,16-17.876,23.494-10.556,9.023-14.811,11.494-27.664,16.344a214.049,214.049,0,0,0-21.622,9.787c-9.023,4.853-10.386,5.962-19.834,15.923-12.093,12.768-14.56,16.174-20.772,28.343l-4.684,9.193,3.236-2.038c6.9-4.259,26.645-14.131,34.309-17.2,71.336-28.008,74.907-29.711,92.788-43.757,11.49-9.023,17.961-15.919,22.73-24.093,3.911-6.552,4.255-7.656,5.193-16,1.359-12.093,1.278-14.471-.684-19.749-2.042-5.533-4.684-9.622-11.575-17.966-2.9-3.49-6.386-8-7.664-10.042-1.359-2.047-7.66-9.363-14.042-16.174-12.344-13.282-16.942-20.178-18.564-27.668-.425-2.386-1.359-10.386-1.873-17.707-.934-11.494-.845-13.537.174-14.216a4.742,4.742,0,0,1,1.788-.769c.255,0,2.3,3.066,4.424,6.811a141.637,141.637,0,0,0,11.664,15.919,137.7,137.7,0,0,1,9.877,12.853c3.231,5.533,6.892,16.688,7.49,23.07,1.189,12.6,2.892,16.174,15.749,32.263,4,5.028,4.17,5.193,3.66,2.556-.255-1.529-1.873-7.405-3.49-13.023-8.259-28.432-8.768-32.093-8.938-60.865L575,372.934l2.811-6.726c1.958-4.594,3.321-10.047,4.429-17.792,1.529-9.957,2.3-12.344,7.236-23.579,3.066-6.9,5.533-12.938,5.533-13.448,0-1.108,2.637-2.127,3.405-1.282,1.359,1.452,4.255,22.815,4.255,31.159,0,12-1.448,16.683-9.962,32.352-4.085,7.575-8.344,16.853-9.787,21.282-2.382,7.405-2.556,8.424-2.127,17.622.51,11.405,1.958,18.641,6.471,32.772,5.444,17.108,6.3,21.876,5.872,35.838l-.255,12.259,5.7-11.49c14.212-28.348,20.433-50.228,23.239-81.722.764-8.429,1.873-18.815,2.552-23.159,2.641-16.429,11.409-50.479,15.919-61.973,1.448-3.486,1.7-6.212,1.7-15.32-.081-20.263-3.66-27.923-14.216-30.3-4.17-.934-5.872-.853-12.768.51-8.514,1.618-11.32,1.448-20.178-1.278a28.448,28.448,0,0,1-17.7-14.216c-4.174-7.236-5.792-11.83-4.6-13.023.594-.594,3.066.17,7.405,2.127,6.3,2.9,10.047,3.919,25.112,6.811,9.792,1.873,17.711,4.938,23.074,9.023,2.467,1.873,4.679,3.321,4.853,3.151.42-.51-9.962-16.853-15.494-24.178-2.726-3.66-10.726-12.509-17.876-19.494-13.792-13.7-16.772-18.131-19.409-29.027-1.367-5.363-3.24-24.093-2.556-25.2,1.023-1.7,3.32,0,13.707,10.131,15.575,15.409,17.363,18.645,22.386,41.116,2.556,11.15,3.575,13.537,8.938,20.857,14.985,20.259,22.22,37.375,23.244,55.251l.594,9.278,4.429-9.278c8.085-16.857,10.891-33.46,10.212-60.185-.51-19.07-1.7-26.22-6.981-42.143-5.278-15.83-16-35.239-29.282-53.2-3.151-4.344-3.575-4.6-7.919-5.108-2.467-.255-10.3-1.788-17.278-3.49-7.07-1.7-15.834-3.745-19.668-4.684-9.189-2.127-14.981-4.6-26.73-11.151-8.255-4.684-11.151-6.9-18.726-14.471-9.023-9.023-15.324-18.046-15.324-21.881,0-2.467,1.189-2.467,7.834.089,2.981,1.1,7.66,2.726,10.386,3.571,8.849,2.641,23.405,13.792,36.347,27.753,5.108,5.533,9.792,9.707,12.513,11.15,4,2.212,29.876,9.537,30.645,8.683.853-.849-8-9.957-17.876-18.386-5.957-5.108-16.853-15.919-24.258-23.923-7.405-8.085-19.07-20.259-25.88-27.065-11.49-11.409-12.683-12.942-16.683-20.862-4.429-8.849-11.664-31.154-11.15-34.56.2-1.393.684-2.1,1.418-2.119Z" fill="none"/>
    </clipPath>
    <linearGradient id="linear-gradient" x1="1.028" y1="1.017" x2="1.022" y2="1.017" gradientUnits="objectBoundingBox">
      <stop offset="0" stop-color="#a87a57"/>
      <stop offset="0.064" stop-color="#ac7f5b"/>
      <stop offset="0.197" stop-color="#dfa176"/>
      <stop offset="0.341" stop-color="#af805e"/>
      <stop offset="1" stop-color="#c8a37b"/>
    </linearGradient>
    <clipPath id="clip-path-3">
      <path id="Path_2058" data-name="Path 2058" d="M7.495,1.363a4.9,4.9,0,0,1-2.726,8.853C2.9,10.216,0,7.155,0,5.108,0,3.236,2.811,0,4.514,0A6.82,6.82,0,0,1,7.495,1.363" fill="none"/>
    </clipPath>
    <linearGradient id="linear-gradient-2" x1="15.082" y1="55.203" x2="14.707" y2="55.203" xlink:href="#linear-gradient"/>
    <clipPath id="clip-path-4">
      <path id="Path_2059" data-name="Path 2059" d="M5.77,1.745a3.646,3.646,0,0,1,.48,1.707v.123a3.142,3.142,0,0,1-5.588,2A4.059,4.059,0,0,1,.152,2.17,2.841,2.841,0,0,1,2.959,0,3.164,3.164,0,0,1,5.77,1.745" fill="none"/>
    </clipPath>
    <linearGradient id="linear-gradient-3" x1="1" y1="60.031" x2="0.34" y2="60.031" xlink:href="#linear-gradient"/>
    <clipPath id="clip-path-5">
      <path id="Path_2060" data-name="Path 2060" d="M10.04,1.168c2.726,3.236,1.448,9.618-2.3,11.664C1.87,15.978-2.644,7.979,1.781,2.276A6.676,6.676,0,0,1,6.927,0,3.978,3.978,0,0,1,10.04,1.168" transform="translate(0 0)" fill="none"/>
    </clipPath>
    <linearGradient id="linear-gradient-4" x1="1.307" y1="28.346" x2="1.032" y2="28.346" xlink:href="#linear-gradient"/>
    <clipPath id="clip-path-6">
      <path id="Path_2061" data-name="Path 2061" d="M6.506.96c2.556,2.552,0,7.83-3.486,7.32C.463,7.936-.645,5.558.379,2.747A4.006,4.006,0,0,1,4.149,0,3.272,3.272,0,0,1,6.506.96" fill="none"/>
    </clipPath>
    <linearGradient id="linear-gradient-5" x1="15.537" y1="42.35" x2="15.1" y2="42.35" xlink:href="#linear-gradient"/>
    <clipPath id="clip-path-7">
      <path id="Path_2062" data-name="Path 2062" d="M8.672,1.163c1.957,2.3,2.047,6.811.34,8.938-1.873,2.3-5.7,2.641-7.66.684C-.521,9-.432,3.8,1.521,1.677A5.82,5.82,0,0,1,5.691,0,3.781,3.781,0,0,1,8.672,1.163" fill="none"/>
    </clipPath>
    <linearGradient id="linear-gradient-6" x1="14.728" y1="27.01" x2="14.351" y2="27.01" xlink:href="#linear-gradient"/>
    <clipPath id="clip-path-8">
      <path id="Path_2063" data-name="Path 2063" d="M9.216,1.7c3.405,3.405,1.533,8.6-3.405,9.707C3.344,12,2.24,11.405.792,8.764-1.34,4.679,1.047,0,5.386,0a6.264,6.264,0,0,1,3.83,1.7" fill="none"/>
    </clipPath>
    <linearGradient id="linear-gradient-7" x1="39.386" y1="11.947" x2="39.082" y2="11.947" xlink:href="#linear-gradient"/>
    <clipPath id="clip-path-9">
      <path id="Path_2064" data-name="Path 2064" d="M6.613,1.138a4.967,4.967,0,0,1,.679,3.236c-.17,1.533-.849,2.042-2.981,2.212C2.014,6.841,1.331,6.5.566,4.713-.2,3.01-.2,2.242.651,1.223A3.968,3.968,0,0,1,3.679,0,3.944,3.944,0,0,1,6.613,1.138" fill="none"/>
    </clipPath>
    <linearGradient id="linear-gradient-8" x1="45.935" y1="17.345" x2="45.381" y2="17.345" xlink:href="#linear-gradient"/>
    <clipPath id="clip-path-10">
      <path id="Path_2065" data-name="Path 2065" d="M8.764,1.55a4.913,4.913,0,0,1,1.448,2.9c0,1.618-3.83,5.788-5.274,5.788A5.533,5.533,0,0,1,0,5.214,5.281,5.281,0,0,1,5.291,0,4.592,4.592,0,0,1,8.764,1.55" fill="none"/>
    </clipPath>
    <linearGradient id="linear-gradient-9" x1="37.308" y1="10.692" x2="36.893" y2="10.692" xlink:href="#linear-gradient"/>
    <clipPath id="clip-path-11">
      <path id="Path_2066" data-name="Path 2066" d="M6.979,1.618a3.75,3.75,0,0,1-4.34,5.957C.507,6.811-.512,4.17.253,1.7A2.873,2.873,0,0,1,3.217,0,5.1,5.1,0,0,1,6.979,1.618" fill="none"/>
    </clipPath>
    <linearGradient id="linear-gradient-10" x1="14.376" y1="9.919" x2="13.964" y2="9.919" xlink:href="#linear-gradient"/>
    <clipPath id="clip-path-12">
      <path id="Path_2067" data-name="Path 2067" d="M10.207,1.737A5.418,5.418,0,0,1,6.288,11.1C.84,11.1-1.8,6.335,1.354,1.906A5.152,5.152,0,0,1,5.655,0a6.507,6.507,0,0,1,4.552,1.737" fill="none"/>
    </clipPath>
    <linearGradient id="linear-gradient-11" x1="11.787" y1="7.711" x2="11.515" y2="7.711" xlink:href="#linear-gradient"/>
    <clipPath id="clip-path-13">
      <path id="Path_2068" data-name="Path 2068" d="M9.248.96c2.637,3.486,1.359,7.66-2.9,9.278C.731,12.365-2.671,4.025,2.688,1.214A9.54,9.54,0,0,1,6.866,0,2.93,2.93,0,0,1,9.248.96" fill="none"/>
    </clipPath>
    <linearGradient id="linear-gradient-12" x1="28.356" y1="0.827" x2="28.064" y2="0.827" xlink:href="#linear-gradient"/>
  </defs>
  <g id="Mask_Group_63" data-name="Mask Group 63" clip-path="url(#clip-path)">
    <g id="Group_407" data-name="Group 407" transform="translate(820.172 227.823) rotate(158)">
      <g id="Group_376" data-name="Group 376" transform="translate(0 0)">
        <g id="Group_375" data-name="Group 375" clip-path="url(#clip-path-2)">
          <rect id="Rectangle_125" data-name="Rectangle 125" width="693.02" height="680.498" transform="translate(-1.223 0)" fill="url(#linear-gradient)"/>
        </g>
      </g>
      <g id="Group_378" data-name="Group 378" transform="translate(540.526 128.192)">
        <g id="Group_377" data-name="Group 377" transform="translate(0 0)" clip-path="url(#clip-path-3)">
          <rect id="Rectangle_126" data-name="Rectangle 126" width="11.32" height="10.216" transform="translate(0 0)" fill="url(#linear-gradient-2)"/>
        </g>
      </g>
      <g id="Group_380" data-name="Group 380" transform="translate(705.012 205.617)">
        <g id="Group_379" data-name="Group 379" transform="translate(0 0)" clip-path="url(#clip-path-4)">
          <rect id="Rectangle_127" data-name="Rectangle 127" width="6.437" height="8.097" transform="translate(-0.188 0)" fill="url(#linear-gradient-3)"/>
        </g>
      </g>
      <g id="Group_382" data-name="Group 382" transform="translate(693.761 238.797)">
        <g id="Group_381" data-name="Group 381" transform="translate(0 0)" clip-path="url(#clip-path-5)">
          <rect id="Rectangle_128" data-name="Rectangle 128" width="15.409" height="15.978" transform="translate(-2.644 0)" fill="url(#linear-gradient-4)"/>
        </g>
      </g>
      <g id="Group_384" data-name="Group 384" transform="translate(561.09 319.793)">
        <g id="Group_383" data-name="Group 383" transform="translate(0 0)" clip-path="url(#clip-path-6)">
          <rect id="Rectangle_129" data-name="Rectangle 129" width="9.707" height="8.79" transform="translate(-0.645 0)" fill="url(#linear-gradient-5)"/>
        </g>
      </g>
      <g id="Group_386" data-name="Group 386" transform="translate(546.241 347.848)">
        <g id="Group_385" data-name="Group 385" transform="translate(0 0)" clip-path="url(#clip-path-7)">
          <rect id="Rectangle_130" data-name="Rectangle 130" width="11.24" height="12.743" transform="translate(-0.521 0)" fill="url(#linear-gradient-6)"/>
        </g>
      </g>
      <g id="Group_388" data-name="Group 388" transform="translate(162.707 548.726)">
        <g id="Group_387" data-name="Group 387" transform="translate(0 0)" clip-path="url(#clip-path-8)">
          <rect id="Rectangle_131" data-name="Rectangle 131" width="13.962" height="12" transform="translate(-1.34 0)" fill="url(#linear-gradient-7)"/>
        </g>
      </g>
      <g id="Group_390" data-name="Group 390" transform="translate(359.404 573.465)">
        <g id="Group_389" data-name="Group 389" transform="translate(0 0)" clip-path="url(#clip-path-9)">
          <rect id="Rectangle_132" data-name="Rectangle 132" width="7.664" height="6.841" transform="translate(-0.202 0)" fill="url(#linear-gradient-8)"/>
        </g>
      </g>
      <g id="Group_392" data-name="Group 392" transform="translate(330.264 582.755)">
        <g id="Group_391" data-name="Group 391" transform="translate(0 0)" clip-path="url(#clip-path-10)">
          <rect id="Rectangle_133" data-name="Rectangle 133" width="10.212" height="10.233" transform="translate(0 0)" fill="url(#linear-gradient-9)"/>
        </g>
      </g>
      <g id="Group_394" data-name="Group 394" transform="translate(563.683 601.502)">
        <g id="Group_393" data-name="Group 393" transform="translate(0 0)" clip-path="url(#clip-path-11)">
          <rect id="Rectangle_134" data-name="Rectangle 134" width="10.301" height="9.108" transform="translate(-0.512 0)" fill="url(#linear-gradient-10)"/>
        </g>
      </g>
      <g id="Group_396" data-name="Group 396" transform="translate(529.47 606.576)">
        <g id="Group_395" data-name="Group 395" transform="translate(0 0)" clip-path="url(#clip-path-12)">
          <rect id="Rectangle_135" data-name="Rectangle 135" width="15.575" height="11.1" transform="translate(-1.797 0)" fill="url(#linear-gradient-11)"/>
        </g>
      </g>
      <g id="Group_398" data-name="Group 398" transform="translate(301.181 681.585)">
        <g id="Group_397" data-name="Group 397" transform="translate(0 0)" clip-path="url(#clip-path-13)">
          <rect id="Rectangle_136" data-name="Rectangle 136" width="14.556" height="12.365" transform="translate(-2.671 0)" fill="url(#linear-gradient-12)"/>
        </g>
      </g>
    </g>
  </g>
</svg>
