<svg xmlns="http://www.w3.org/2000/svg" width="87" height="53.233" viewBox="0 0 87 53.233">
  <g id="logo_dark" data-name="logo dark" transform="translate(43.5 26.617)">
    <g id="Group_1373" data-name="Group 1373" transform="translate(-43.5 -26.617)">
      <g id="Group_1367" data-name="Group 1367" transform="translate(8.188 47.134)">
        <path id="Path_12794" data-name="Path 12794" d="M64,372.819h1.363c1.815,0,2.869,1.054,2.869,2.53a2.68,2.68,0,0,1-2.861,2.711H64Zm.791,5.113h.52c1.129,0,2.063-.836,2.063-2.553,0-1.89-1.107-2.432-2.139-2.432h-.444Z" transform="translate(-64.002 -372.254)" fill="#001721"/>
        <path id="Path_12795" data-name="Path 12795" d="M105.1,384.178c1.129,0,1.6.851,1.6,1.935,0,.836-.3,1.905-1.664,1.905-1.212,0-1.6-.889-1.6-1.875S103.882,384.178,105.1,384.178Zm-.03,3.72c.738,0,.858-.911.858-1.762,0-.941-.173-1.845-.858-1.845s-.858.986-.858,1.905C104.214,387.137,104.424,387.9,105.072,387.9Z" transform="translate(-98.393 -382.16)" fill="#001721"/>
        <path id="Path_12796" data-name="Path 12796" d="M136.518,374.211l.008-5.806h.715v5.806Z" transform="translate(-127.24 -368.405)" fill="#001721"/>
        <path id="Path_12797" data-name="Path 12797" d="M152.819,386.61a1.31,1.31,0,0,1-1.378,1.408c-1.122,0-1.679-.625-1.679-1.83,0-1.536.858-2.01,1.589-2.01.979,0,1.483.587,1.483,1.664v.09h-2.289c0,.738.015,1.935,1.032,1.935a1.144,1.144,0,0,0,1.122-1.257Zm-.715-.8c0-1.062-.294-1.514-.768-1.514-.437,0-.746.391-.791,1.514Z" transform="translate(-138.79 -382.16)" fill="#001721"/>
        <path id="Path_12798" data-name="Path 12798" d="M176.014,384.532h.775l1.19,2.869h.038l.956-2.869h.361l-1.634,3.863h-.045Z" transform="translate(-161.683 -382.469)" fill="#001721"/>
        <path id="Path_12799" data-name="Path 12799" d="M223.515,371.29h.038l2.342,4.812,2.041-4.812h.038l.949,5.437h-.768l-.663-3.893-1.912,4.187h-.045l-2.138-4.435-.55,4.141h-.331Z" transform="translate(-202.234 -370.921)" fill="#001721"/>
        <path id="Path_12800" data-name="Path 12800" d="M281.959,386.61a1.31,1.31,0,0,1-1.378,1.408c-1.122,0-1.679-.625-1.679-1.83,0-1.536.858-2.01,1.589-2.01.979,0,1.483.587,1.483,1.664v.09h-2.289c0,.738.015,1.935,1.032,1.935a1.144,1.144,0,0,0,1.122-1.257Zm-.715-.8c0-1.062-.294-1.514-.768-1.514-.437,0-.745.391-.791,1.514Z" transform="translate(-251.407 -382.16)" fill="#001721"/>
        <path id="Path_12801" data-name="Path 12801" d="M311.368,373.653a1.15,1.15,0,0,1-1.077.61c-1.024,0-1.37-.806-1.37-1.867s.429-1.958,1.483-1.958a1.2,1.2,0,0,1,.941.422l.023-.007V368.4h.715v5.806h-.7v-.557Zm-.874.444c.746,0,.889-.851.889-1.8,0-.813-.1-1.732-.828-1.732-.753,0-.851,1-.851,1.815C309.7,373.292,309.8,374.1,310.495,374.1Z" transform="translate(-277.586 -368.405)" fill="#001721"/>
        <path id="Path_12802" data-name="Path 12802" d="M342.747,371.172a.466.466,0,0,1,.459.459.46.46,0,0,1-.459.452.453.453,0,0,1-.452-.452A.459.459,0,0,1,342.747,371.172Zm.346,1.709v3.742h-.73c0-1.009.008-2.726.008-3.742Z" transform="translate(-306.69 -370.818)" fill="#001721"/>
        <path id="Path_12803" data-name="Path 12803" d="M359.935,386.61a1.31,1.31,0,0,1-1.363,1.408c-1.175,0-1.679-.655-1.679-1.838,0-1.325.753-2,1.6-2,1.115,0,1.348.73,1.348,1.145a1.215,1.215,0,0,1-.008.173h-.655c0-.783-.264-1.2-.693-1.2s-.813.369-.813,1.709v.173c0,1.318.437,1.687,1.009,1.687a1.137,1.137,0,0,0,1.13-1.257Z" transform="translate(-319.42 -382.16)" fill="#001721"/>
        <path id="Path_12804" data-name="Path 12804" d="M384.626,384.365a2.189,2.189,0,0,1,.655-.128c.136,0,.264.007.4.015a1.174,1.174,0,0,1,1.039,1.084c.158.828.271,1.453.377,1.973.09.414.2.565.4.58h.1l.015.121a1.608,1.608,0,0,1-.346.06c-.467,0-.753-.1-.874-.587a1.575,1.575,0,0,1-1.16.587.864.864,0,0,1-.143-.008.906.906,0,0,1-.881-.987c0-.934.979-1.348,1.86-1.363-.12-.723-.346-1.288-.979-1.288a1.554,1.554,0,0,0-.429.053Zm.888,3.4a1.207,1.207,0,0,0,.843-.4c-.09-.384-.173-.956-.279-1.536a1.084,1.084,0,0,0-1.144,1.122C384.934,387.49,385.145,387.761,385.514,387.761Z" transform="translate(-343.237 -382.211)" fill="#001721"/>
        <path id="Path_12805" data-name="Path 12805" d="M415.635,374.211l.008-5.806h.715v5.806Z" transform="translate(-370.647 -368.405)" fill="#001721"/>
        <path id="Path_12806" data-name="Path 12806" d="M450.567,375.714a1.9,1.9,0,0,1-2.093,1.988,2.349,2.349,0,0,1-2.583-2.575,2.486,2.486,0,0,1,2.5-2.779c1.566,0,2.078.919,2.078,1.619a1.335,1.335,0,0,1-.008.181h-.76c0-1.288-.55-1.679-1.3-1.679-.881,0-1.641.715-1.641,2.545,0,1.935.821,2.545,1.837,2.545a1.725,1.725,0,0,0,1.852-1.845Z" transform="translate(-397.032 -371.844)" fill="#001721"/>
        <path id="Path_12807" data-name="Path 12807" d="M491.8,386.61a1.31,1.31,0,0,1-1.378,1.408c-1.122,0-1.679-.625-1.679-1.83,0-1.536.858-2.01,1.589-2.01.979,0,1.483.587,1.483,1.664v.09h-2.289c0,.738.015,1.935,1.032,1.935a1.144,1.144,0,0,0,1.122-1.257Zm-.715-.8c0-1.062-.294-1.514-.768-1.514-.437,0-.745.391-.791,1.514Z" transform="translate(-434.399 -382.16)" fill="#001721"/>
        <path id="Path_12808" data-name="Path 12808" d="M519.348,384.223h.693v.647h.03a1.35,1.35,0,0,1,1.175-.693,1.03,1.03,0,0,1,1.129,1.175v2.613h-.715v-2.553c0-.444-.038-.987-.67-.987-.587,0-.919.527-.919,1.182v2.357h-.723Z" transform="translate(-461.09 -382.16)" fill="#001721"/>
        <path id="Path_12809" data-name="Path 12809" d="M550.687,378.677a1.41,1.41,0,0,1-1.122.565c-.655,0-.934-.369-.934-1v-2.666h-.617v-.128h.617v-.821l.67-.512h.068v1.333h1.122v.128h-1.122v2.545c0,.625.143.873.557.873a.856.856,0,0,0,.685-.384Z" transform="translate(-486.089 -373.384)" fill="#001721"/>
        <path id="Path_12810" data-name="Path 12810" d="M573.909,386.61a1.31,1.31,0,0,1-1.378,1.408c-1.122,0-1.679-.625-1.679-1.83,0-1.536.858-2.01,1.589-2.01.979,0,1.483.587,1.483,1.664v.09h-2.289c0,.738.015,1.935,1.031,1.935a1.144,1.144,0,0,0,1.122-1.257Zm-.715-.8c0-1.062-.294-1.514-.768-1.514-.437,0-.745.391-.791,1.514Z" transform="translate(-506.005 -382.16)" fill="#001721"/>
        <path id="Path_12811" data-name="Path 12811" d="M603.005,387.915h-.723v-3.742h.09l.557,1.107h.03c.09-.693.452-1.159,1.054-1.159a1.577,1.577,0,0,1,.369.038v.73a1.323,1.323,0,0,0-.527-.128c-.542,0-.851.384-.851,1.092Z" transform="translate(-533.414 -382.109)" fill="#001721"/>
      </g>
      <g id="Group_1371" data-name="Group 1371" transform="translate(1.535)">
        <g id="Group_1368" data-name="Group 1368" transform="translate(0 1.947)">
          <path id="Path_12812" data-name="Path 12812" d="M191.861,58.274a21.5,21.5,0,0,0-.671-5.437l-2.01-4.783a17.192,17.192,0,0,0-5.624-5.652l-.327,1.827q.379.345.735.724l.185-1.424,1.594,3.778a16.65,16.65,0,0,1,1.757,4.162l4.16,9.856A23.065,23.065,0,0,0,191.861,58.274Z" transform="translate(-161.321 -38.924)" fill="#001721"/>
          <path id="Path_12813" data-name="Path 12813" d="M38.879,35.308a13.394,13.394,0,0,1,.173,2.074c0,13.463-7.818,17.355-18.135,17.355H15.089V16.154h4.837c4.909,0,8.6.34,12.143,3.125l.3-1.652c-3.434-1.93-6.7-2.4-11.857-2.4H12V55.727h8.8c11.236,0,18.521-4.3,20.5-13.812Z" transform="translate(-12 -15.221)" fill="#001721"/>
        </g>
        <path id="Path_12814" data-name="Path 12814" d="M130.039,327.636l-.141.3h3.46l.135-1.066Z" transform="translate(-114.814 -285.048)" fill="#001721"/>
        <g id="Group_1369" data-name="Group 1369" transform="translate(15.734)">
          <path id="Path_12815" data-name="Path 12815" d="M426.144,3.083,425.5,0h-.893l-3.468,7.761A18.646,18.646,0,0,1,426.144,3.083Z" transform="translate(-384.531)" fill="#001721"/>
          <path id="Path_12816" data-name="Path 12816" d="M449.863,62.671c-1.259,1-2.4,4.047-2.835,5.326l4.218,29.541h3.732Z" transform="translate(-407.104 -54.653)" fill="#001721"/>
          <path id="Path_12817" data-name="Path 12817" d="M167.344,18.127l-7.971,21.429L142.943.455H142l-7.023,39.2c1.139-.362,2.8-.9,3.424-1.1L142.3,8.588,157.872,45.5h.863l8.221-20.648C167.016,23.194,167.145,20.082,167.344,18.127Z" transform="translate(-134.98 -0.397)" fill="#001721"/>
        </g>
        <g id="Group_1370" data-name="Group 1370" transform="translate(49.485 1.481)">
          <path id="Path_12818" data-name="Path 12818" d="M407.169,48.453c-3.294-2.856-4.954-7.785-4.954-16.362,0-14.1,6.761-19.641,14.687-19.641,6.819,0,11.948,3.031,11.948,13h3.38a10.317,10.317,0,0,0,.058-1.4c0-5.42-3.555-12.472-15.445-12.472-10.025,0-18.067,7.577-18.067,21.448,0,8.788,2.774,14.765,8.707,17.736Z" transform="translate(-398.777 -11.576)" fill="#001721"/>
          <path id="Path_12819" data-name="Path 12819" d="M536.75,214.748c0,9.325-6.236,14.337-13.988,14.337a15.469,15.469,0,0,1-4.2-.528l.252,1.257a17.514,17.514,0,0,0,3.423.32c8.043,0,15.445-4.9,15.445-15.386Z" transform="translate(-503.237 -188.754)" fill="#001721"/>
        </g>
      </g>
      <g id="Group_1372" data-name="Group 1372" transform="translate(0 49.89)">
        <rect id="Rectangle_476" data-name="Rectangle 476" width="4.734" height="0.64" fill="#001721"/>
        <rect id="Rectangle_477" data-name="Rectangle 477" width="4.734" height="0.64" transform="translate(82.266)" fill="#001721"/>
      </g>
    </g>
  </g>
</svg>
