<svg xmlns="http://www.w3.org/2000/svg" xmlns:xlink="http://www.w3.org/1999/xlink" width="279.322" height="282.285"
     viewBox="0 0 279.322 282.285">
    <defs>
        <clipPath id="clip-path">
            <path id="Path_2057" data-name="Path 2057"
                  d="M182.543,0c.274.007.648.276,1.112.8.446.506,2.318,2.171,4.162,3.717,3.926,3.3,5.086,4.58,6.275,7.048,1.158,2.379,3.033,8.534,3.033,10.019,0,.923.237,1.428,1.247,2.587a120.455,120.455,0,0,0,11.6,11.717,55.412,55.412,0,0,1,9.4,9.931c1.218,1.634,2.14,2.646,2.051,2.231-.119-.417-.357-2.142-.535-3.837a22.324,22.324,0,0,0-3.806-10.7,24.723,24.723,0,0,1-4.788-11.715,23.754,23.754,0,0,0-.891-3.746,3.5,3.5,0,0,1-.3-1.189c0-1.16,1.13-.684,3.3,1.367,5.382,5.086,7.224,10.318,7.73,21.795.357,8.623.862,10.5,4.55,17.068a53.682,53.682,0,0,1,5.738,16.831c.267,1.812.593,3.091.712,2.913a34.753,34.753,0,0,0,.894-3.509c.623-2.794.682-3.924.712-10.854v-7.73l1.13-4.013c1.28-4.491,1.428-4.906,2.022-4.906.624,0,3.241,9.514,3.45,12.518a21.742,21.742,0,0,1-4.073,13.5,36.98,36.98,0,0,0-3.895,8c-.448,1.25-.567,2.468-.567,5.324,0,7.582-1.219,12.607-4.906,20.277a80.772,80.772,0,0,0-3.717,9.069c-1.158,3.717-3.954,15.015-3.776,15.223.326.3,5.531-8.116,6.481-10.465,2.142-5.353,2.974-6.661,6.692-10.616a23.344,23.344,0,0,0,2.646-3.181c.3-.595.684-.923,1.071-.923.564,0,.593.12.445.952-.089.535-.386,2.379-.624,4.1-1.219,8.564-2.677,11.15-8.742,15.431-2.944,2.112-6.6,5.888-7.7,7.969-1.012,1.934-1.132,2.529-1.993,10.913a76.992,76.992,0,0,1-3.865,16.412,157.907,157.907,0,0,1-7.224,15.195c-2.171,4.193-2.5,5.026-1.875,4.58a17.781,17.781,0,0,1,2.112-1.221,41.29,41.29,0,0,0,8.355-6.689c5.145-5.531,7.257-10.05,8.445-17.93a24.029,24.029,0,0,1,2.29-7.939c1.338-2.616,7.076-10.913,7.463-10.763.208.059.356.506.326.98-.089,2.26-1.071,10.318-1.486,12.162a18.477,18.477,0,0,1-4.015,7.761,76.055,76.055,0,0,0-6.779,10.079,37.064,37.064,0,0,1-5.59,7.254,13.014,13.014,0,0,0-1.753,2.053c.237.208,3.656-1.7,5.411-3a33.813,33.813,0,0,1,9.634-4.669c3.746-1.129,10.437-2.705,10.763-2.5.506.328.208.982-.832,1.755-.595.446-2.557,2.231-4.371,3.926-5.442,5.173-8.028,6.243-16.116,6.659-5.411.3-9.04.982-11.447,2.2a43.394,43.394,0,0,0-7.138,5.382,95.792,95.792,0,0,1-10.168,7.908,81.1,81.1,0,0,1-11.06,5l-3.568,1.427,1.664.328a14.091,14.091,0,0,0,4.58.059c3.656-.387,3.954-.475,8.147-2.5,1.873-.921,4.817-2.288,6.542-3.061,3.122-1.4,3.122-1.4,6.986-1.517,4.967-.178,7.107.119,7.226.982.061.5-.178.712-1.219,1.129a45.894,45.894,0,0,0-5.59,3.361c-2.349,1.545-5.559,3.448-7.106,4.221-2.8,1.339-2.855,1.369-5.8,1.369a32.3,32.3,0,0,1-7.285-.952c-10.348-2.231-10.407-2.26-12.371-1.606a114.977,114.977,0,0,0-14.925,6.274,65.54,65.54,0,0,0-14.956,10.29c-4.193,4.013-5.947,5.351-8.445,6.57l-2.081,1.011,4.46-.148c5.353-.179,13.44-1.725,16.562-3.122A18.2,18.2,0,0,1,160.2,220.8a29.493,29.493,0,0,0,4.43-.445,31.756,31.756,0,0,1,10.348,0,34.338,34.338,0,0,0,3.746.445c.773,0,1.16.148,1.278.507.3.743-.595,1.277-2.051,1.277-.952,0-2.142.476-4.966,1.933a21.855,21.855,0,0,1-10.111,2.974,16.41,16.41,0,0,1-8.206-1.367,9.228,9.228,0,0,0-6.6-.417,41.439,41.439,0,0,1-16.086,1.666c-3.3-.356-3.567-.326-8.266.565-12.757,2.379-20.011,1.933-31.935-1.962A101,101,0,0,1,74.323,217.5a49.494,49.494,0,0,0-5.5-2.825c-3.895-1.634-9.842-4.549-13.974-6.808a34.273,34.273,0,0,0-12.934-4.46l-1.636-.209,2.766,1.4A30.22,30.22,0,0,1,53.3,214.112a29.022,29.022,0,0,0,10.317,9.663c2.885,1.7,4.906,2.29,9.753,2.794,8.8.983,11.032,1.9,15.58,6.542,2.974,3,3.657,4.045,2.913,4.491a2.532,2.532,0,0,1-1.336-.268,27.208,27.208,0,0,0-4.7-.921c-6.185-.743-10.526-2.618-14.452-6.244a13.171,13.171,0,0,0-3.776-2.677A34.847,34.847,0,0,1,55.561,220a56.564,56.564,0,0,1-3.926-4.878,45.433,45.433,0,0,0-4.727-5.47c-2.14-2.023-3.033-2.587-7.167-4.639-4.756-2.377-6.481-2.913-5.471-1.814a21.222,21.222,0,0,1,1.844,3.657c.774,1.694,1.577,3.537,1.844,4.073a13.364,13.364,0,0,0,5.175,4.817c3.419,1.725,6.185,5.234,8.206,10.409a15.32,15.32,0,0,0,1.636,3.061c1.6,2.051.446,3.122-1.367,1.189a26.211,26.211,0,0,0-5.084-3.33c-4.491-2.469-7.078-4.58-8.117-6.631a25.256,25.256,0,0,1-1.845-6.75c0-1.071-1.308-4.788-2.616-7.463-1.01-2.023-1.249-2.32-2.825-3.183A12.55,12.55,0,0,0,27.58,201.8c-5.648-.923-14.152-7.376-18.166-13.768-1.011-1.634-2.2-3.657-2.647-4.488a59.708,59.708,0,0,1-3.687-9.575,52.186,52.186,0,0,0-1.814-5.412c-1.694-4.4-1.694-5.946.031-4.1.921,1.01,2.943,5.916,3.745,9.127.535,2.082.8,2.676,1.458,3.092.417.267,1.634,1.189,2.705,2.051a48.76,48.76,0,0,0,9.783,5.71,19.311,19.311,0,0,0,4.043.386,15.9,15.9,0,0,0,5.649-.891c5.026-1.545,6.87-1.456,10.972.476,2.081.98,5.234,3.568,5.234,4.28,0,.685.03.685-3.42.6a30.045,30.045,0,0,0-5.2.415,33.233,33.233,0,0,1-10.139.178c-5.62-1.01-11.537-4.193-17.246-9.216-2.409-2.112-2.29-1.636.98,4.1,2.17,3.867,2.8,4.7,5.293,7.137a33.222,33.222,0,0,0,8.77,6.423c1.815.921,2.588,1.1,5.947,1.485a162.468,162.468,0,0,1,17.246,2.736,48.517,48.517,0,0,1,11.033,4.906,21.137,21.137,0,0,0,3.417,1.753c.239,0,1.9-.356,3.687-.773,2.885-.684,4.193-.8,11-1.01,6.1-.18,8.326-.356,10.556-.863a41.14,41.14,0,0,1,13.2-.534,17.911,17.911,0,0,1,4.132.773c1.488,1.486-9.187,5.977-14.213,5.977-1.814,0-5.2-.8-9.425-2.231a26.365,26.365,0,0,0-13.142-.891,12.492,12.492,0,0,0-3.152.773,14.428,14.428,0,0,0,2.885,1.456c5.2,2.231,6.57,2.914,8.325,4.1.952.626,4.193,2.44,7.226,3.985a71.867,71.867,0,0,0,16.442,6.186c1.725.356,1.755.326,3.867-.745a90.364,90.364,0,0,0,11.21-7.434c3.567-2.885,4.369-3.42,6.63-4.461,2.885-1.308,5.769-1.872,10.854-2.051,5-.208,4.966-.208,1.516,2.557a19,19,0,0,1-9.038,4.283c-8.951,1.486-9.634,1.723-14.065,4.667-1.753,1.16-4.013,2.557-5.055,3.061-2.29,1.161-2.051,1.31,2.468,1.519,6.72.326,17.869-1.369,23.162-3.539,3.954-1.606,4.817-2.2,8.177-5.412,1.577-1.517,3.837-3.568,5.026-4.608a21.969,21.969,0,0,0,5.44-7.048c.357-.8,1.16-2.32,1.755-3.389a15.151,15.151,0,0,0,1.486-3.717c.209-.982.685-2.647,1.041-3.718a28.592,28.592,0,0,0,1.041-4.756,22.136,22.136,0,0,1,1.517-5.738c1.01-2.529,1.336-3.9,2.2-9.277.387-2.349,4.847-9.783,5.768-9.6.417.09.506.891.713,5.59a40.648,40.648,0,0,1-.058,7.018c-.478,2.5-2.321,5.916-5,9.277a38.217,38.217,0,0,0-3.27,4.667,36.8,36.8,0,0,0-2.17,5.44,7.69,7.69,0,0,0,1.4-1.427c1.606-1.872,7.135-7.641,9.752-10.168a27.694,27.694,0,0,1,4.46-3.3A15.468,15.468,0,0,0,175,179.324a42.015,42.015,0,0,1,4.191-4.432c1.666-1.367,10.972-6.72,11.687-6.72.564,0,.654.834.208,1.7-.268.446-1.16,2.231-1.993,3.956a21.789,21.789,0,0,1-6.244,8.206,25.552,25.552,0,0,1-9.663,5.709,74.76,74.76,0,0,0-7.552,3.419c-3.152,1.7-3.628,2.082-6.928,5.562-4.224,4.46-5.086,5.649-7.256,9.9l-1.636,3.211,1.13-.712a121.614,121.614,0,0,1,11.984-6.007c24.917-9.783,26.164-10.378,32.41-15.284,4.013-3.152,6.274-5.56,7.939-8.415,1.366-2.288,1.486-2.674,1.814-5.588.475-4.224.446-5.055-.239-6.9-.713-1.933-1.636-3.361-4.043-6.275-1.013-1.219-2.231-2.794-2.677-3.508-.475-.715-2.676-3.27-4.9-5.649-4.311-4.639-5.918-7.048-6.484-9.664-.148-.834-.475-3.628-.654-6.185-.326-4.015-.3-4.728.061-4.966a1.657,1.657,0,0,1,.624-.268,13.972,13.972,0,0,1,1.545,2.379,49.471,49.471,0,0,0,4.074,5.56,48.1,48.1,0,0,1,3.45,4.489,24.943,24.943,0,0,1,2.616,8.058c.415,4.4,1.01,5.649,5.5,11.269,1.4,1.756,1.456,1.814,1.278.893-.089-.534-.654-2.587-1.219-4.549-2.885-9.931-3.063-11.21-3.122-21.259l-.061-6.989.982-2.349a24.46,24.46,0,0,0,1.547-6.214,24.631,24.631,0,0,1,2.527-8.236c1.071-2.409,1.933-4.519,1.933-4.7,0-.387.921-.743,1.189-.448.475.507,1.486,7.969,1.486,10.883,0,4.193-.506,5.827-3.479,11.3a58.014,58.014,0,0,0-3.419,7.434,12.358,12.358,0,0,0-.743,6.155,38.206,38.206,0,0,0,2.26,11.447c1.9,5.976,2.2,7.641,2.051,12.518l-.089,4.282,1.992-4.013a71.813,71.813,0,0,0,8.117-28.545c.267-2.944.654-6.572.891-8.089a156.75,156.75,0,0,1,5.56-21.646c.506-1.218.595-2.17.595-5.351-.028-7.078-1.278-9.753-4.966-10.585-1.456-.326-2.051-.3-4.46.178a11.311,11.311,0,0,1-7.048-.446,9.936,9.936,0,0,1-6.183-4.966c-1.458-2.527-2.023-4.132-1.606-4.549.208-.208,1.071.059,2.587.743,2.2,1.011,3.509,1.369,8.771,2.379A19.505,19.505,0,0,1,219.4,90.6a7.132,7.132,0,0,0,1.7,1.1c.147-.178-3.479-5.887-5.412-8.445a78.492,78.492,0,0,0-6.244-6.809c-4.817-4.786-5.858-6.333-6.779-10.139-.478-1.873-1.132-8.415-.893-8.8.357-.593,1.16,0,4.788,3.539,5.44,5.382,6.065,6.512,7.819,14.361.893,3.895,1.249,4.728,3.122,7.285,5.234,7.076,7.761,13.055,8.119,19.3l.208,3.241,1.547-3.241c2.824-5.888,3.8-11.687,3.567-21.022-.178-6.661-.595-9.158-2.438-14.72-1.844-5.529-5.588-12.309-10.228-18.582-1.1-1.517-1.249-1.606-2.766-1.784-.862-.089-3.6-.624-6.035-1.219-2.469-.595-5.531-1.308-6.87-1.636-3.21-.743-5.233-1.606-9.336-3.895a24.26,24.26,0,0,1-6.541-5.055c-3.152-3.152-5.353-6.3-5.353-7.643,0-.862.415-.862,2.736.031,1.041.386,2.676.952,3.628,1.247,3.091.923,8.175,4.817,12.7,9.694A21.519,21.519,0,0,0,204.8,41.3c1.4.773,10.435,3.331,10.7,3.033.3-.3-2.794-3.478-6.244-6.422-2.081-1.784-5.887-5.56-8.473-8.356-2.587-2.824-6.661-7.076-9.04-9.454-4.013-3.985-4.43-4.521-5.827-7.287C184.369,9.721,181.842,1.93,182.021.74c.071-.486.239-.733.5-.74Z"
                  transform="translate(0)" fill="none"/>
        </clipPath>
        <linearGradient id="linear-gradient" x1="1.028" y1="1.017" x2="1.022" y2="1.017"
                        gradientUnits="objectBoundingBox">
            <stop offset="0" stop-color="#a87a57"/>
            <stop offset="0.064" stop-color="#ac7f5b"/>
            <stop offset="0.197" stop-color="#dfa176"/>
            <stop offset="0.341" stop-color="#af805e"/>
            <stop offset="1" stop-color="#c8a37b"/>
        </linearGradient>
        <clipPath id="clip-path-2">
            <path id="Path_2058" data-name="Path 2058"
                  d="M2.618.476a1.71,1.71,0,0,1-.952,3.092A2.236,2.236,0,0,1,0,1.784C0,1.13.982,0,1.577,0A2.382,2.382,0,0,1,2.618.476"
                  fill="none"/>
        </clipPath>
        <linearGradient id="linear-gradient-2" x1="15.082" y1="55.203" x2="14.707" y2="55.203"
                        xlink:href="#linear-gradient"/>
        <clipPath id="clip-path-3">
            <path id="Path_2059" data-name="Path 2059"
                  d="M2.015.61a1.273,1.273,0,0,1,.168.6v.043a1.1,1.1,0,0,1-1.952.7A1.418,1.418,0,0,1,.053.758.992.992,0,0,1,1.034,0a1.105,1.105,0,0,1,.982.61"
                  transform="translate(0 0)" fill="none"/>
        </clipPath>
        <linearGradient id="linear-gradient-3" x1="1" y1="60.031" x2="0.34" y2="60.031" xlink:href="#linear-gradient"/>
        <clipPath id="clip-path-4">
            <path id="Path_2060" data-name="Path 2060"
                  d="M3.507.408a2.932,2.932,0,0,1-.8,4.074C.653,5.581-.923,2.787.622.795A2.332,2.332,0,0,1,2.42,0,1.39,1.39,0,0,1,3.507.408"
                  fill="none"/>
        </clipPath>
        <linearGradient id="linear-gradient-4" x1="1.307" y1="28.346" x2="1.032" y2="28.346"
                        xlink:href="#linear-gradient"/>
        <clipPath id="clip-path-5">
            <path id="Path_2061" data-name="Path 2061"
                  d="M2.272.335A1.574,1.574,0,0,1,1.055,2.892C.162,2.772-.225,1.941.132.96A1.4,1.4,0,0,1,1.449,0a1.143,1.143,0,0,1,.823.335"
                  transform="translate(0 0)" fill="none"/>
        </clipPath>
        <linearGradient id="linear-gradient-5" x1="15.537" y1="42.35" x2="15.1" y2="42.35"
                        xlink:href="#linear-gradient"/>
        <clipPath id="clip-path-6">
            <path id="Path_2062" data-name="Path 2062"
                  d="M3.029.406a2.786,2.786,0,0,1,.119,3.122,1.9,1.9,0,0,1-2.676.239A2.778,2.778,0,0,1,.531.586,2.033,2.033,0,0,1,1.988,0,1.321,1.321,0,0,1,3.029.406"
                  transform="translate(0)" fill="none"/>
        </clipPath>
        <linearGradient id="linear-gradient-6" x1="14.728" y1="27.01" x2="14.351" y2="27.01"
                        xlink:href="#linear-gradient"/>
        <clipPath id="clip-path-7">
            <path id="Path_2063" data-name="Path 2063"
                  d="M3.219.593A1.991,1.991,0,0,1,2.03,3.984c-.862.208-1.247,0-1.753-.923A1.993,1.993,0,0,1,1.881,0,2.188,2.188,0,0,1,3.219.593"
                  transform="translate(0)" fill="none"/>
        </clipPath>
        <linearGradient id="linear-gradient-7" x1="39.386" y1="11.947" x2="39.082" y2="11.947"
                        xlink:href="#linear-gradient"/>
        <clipPath id="clip-path-8">
            <path id="Path_2064" data-name="Path 2064"
                  d="M2.31.4a1.735,1.735,0,0,1,.237,1.13c-.059.535-.3.713-1.041.773C.7,2.389.465,2.271.2,1.646-.071,1.052-.071.783.227.427A1.386,1.386,0,0,1,1.285,0,1.378,1.378,0,0,1,2.31.4"
                  transform="translate(0)" fill="none"/>
        </clipPath>
        <linearGradient id="linear-gradient-8" x1="45.935" y1="17.345" x2="45.381" y2="17.345"
                        xlink:href="#linear-gradient"/>
        <clipPath id="clip-path-9">
            <path id="Path_2065" data-name="Path 2065"
                  d="M3.061.541a1.716,1.716,0,0,1,.506,1.012c0,.565-1.338,2.022-1.842,2.022A1.933,1.933,0,0,1,0,1.821,1.845,1.845,0,0,1,1.848,0,1.6,1.6,0,0,1,3.061.541"
                  fill="none"/>
        </clipPath>
        <linearGradient id="linear-gradient-9" x1="37.308" y1="10.692" x2="36.893" y2="10.692"
                        xlink:href="#linear-gradient"/>
        <clipPath id="clip-path-10">
            <path id="Path_2066" data-name="Path 2066"
                  d="M2.438.565A1.31,1.31,0,0,1,.922,2.646,1.622,1.622,0,0,1,.088.595,1,1,0,0,1,1.124,0,1.781,1.781,0,0,1,2.438.565"
                  transform="translate(0 0)" fill="none"/>
        </clipPath>
        <linearGradient id="linear-gradient-10" x1="14.376" y1="9.919" x2="13.964" y2="9.919"
                        xlink:href="#linear-gradient"/>
        <clipPath id="clip-path-11">
            <path id="Path_2067" data-name="Path 2067"
                  d="M3.565.607A1.892,1.892,0,0,1,2.2,3.877,1.944,1.944,0,0,1,.473.666,1.8,1.8,0,0,1,1.975,0a2.273,2.273,0,0,1,1.59.607"
                  transform="translate(0)" fill="none"/>
        </clipPath>
        <linearGradient id="linear-gradient-11" x1="11.787" y1="7.711" x2="11.515" y2="7.711"
                        xlink:href="#linear-gradient"/>
        <clipPath id="clip-path-12">
            <path id="Path_2068" data-name="Path 2068"
                  d="M3.23.335A2.008,2.008,0,0,1,2.217,3.576C.255,4.319-.933,1.406.939.424A3.332,3.332,0,0,1,2.4,0,1.023,1.023,0,0,1,3.23.335"
                  transform="translate(0)" fill="none"/>
        </clipPath>
        <linearGradient id="linear-gradient-12" x1="28.356" y1="0.827" x2="28.064" y2="0.827"
                        xlink:href="#linear-gradient"/>
    </defs>
    <g id="Group_1484" data-name="Group 1484" transform="matrix(-0.191, -0.982, 0.982, -0.191, 46.057, 282.285)">
        <g id="Group_376" data-name="Group 376" transform="translate(0 0)">
            <g id="Group_375" data-name="Group 375" clip-path="url(#clip-path)">
                <rect id="Rectangle_125" data-name="Rectangle 125" width="242.064" height="237.69"
                      transform="translate(-0.427 0)" fill="url(#linear-gradient)"/>
            </g>
        </g>
        <g id="Group_378" data-name="Group 378" transform="translate(188.799 44.776)">
            <g id="Group_377" data-name="Group 377" transform="translate(0 0)" clip-path="url(#clip-path-2)">
                <rect id="Rectangle_126" data-name="Rectangle 126" width="3.954" height="3.568"
                      transform="translate(0 0)" fill="url(#linear-gradient-2)"/>
            </g>
        </g>
        <g id="Group_380" data-name="Group 380" transform="translate(246.252 71.82)">
            <g id="Group_379" data-name="Group 379" transform="translate(0 0)" clip-path="url(#clip-path-3)">
                <rect id="Rectangle_127" data-name="Rectangle 127" width="2.248" height="2.828"
                      transform="translate(-0.066 0)" fill="url(#linear-gradient-3)"/>
            </g>
        </g>
        <g id="Group_382" data-name="Group 382" transform="translate(242.322 83.409)">
            <g id="Group_381" data-name="Group 381" transform="translate(0)" clip-path="url(#clip-path-4)">
                <rect id="Rectangle_128" data-name="Rectangle 128" width="5.382" height="5.581"
                      transform="translate(-0.923 0)" fill="url(#linear-gradient-4)"/>
            </g>
        </g>
        <g id="Group_384" data-name="Group 384" transform="translate(195.982 111.7)">
            <g id="Group_383" data-name="Group 383" transform="translate(0 0)" clip-path="url(#clip-path-5)">
                <rect id="Rectangle_129" data-name="Rectangle 129" width="3.39" height="3.07"
                      transform="translate(-0.225 0)" fill="url(#linear-gradient-5)"/>
            </g>
        </g>
        <g id="Group_386" data-name="Group 386" transform="translate(190.795 121.499)">
            <g id="Group_385" data-name="Group 385" transform="translate(0 0)" clip-path="url(#clip-path-6)">
                <rect id="Rectangle_130" data-name="Rectangle 130" width="3.926" height="4.451"
                      transform="translate(-0.182 0)" fill="url(#linear-gradient-6)"/>
            </g>
        </g>
        <g id="Group_388" data-name="Group 388" transform="translate(56.832 191.663)">
            <g id="Group_387" data-name="Group 387" transform="translate(0 0)" clip-path="url(#clip-path-7)">
                <rect id="Rectangle_131" data-name="Rectangle 131" width="4.877" height="4.191"
                      transform="translate(-0.468 0)" fill="url(#linear-gradient-7)"/>
            </g>
        </g>
        <g id="Group_390" data-name="Group 390" transform="translate(125.535 200.304)">
            <g id="Group_389" data-name="Group 389" transform="translate(0 0)" clip-path="url(#clip-path-8)">
                <rect id="Rectangle_132" data-name="Rectangle 132" width="2.677" height="2.389"
                      transform="translate(-0.071 0)" fill="url(#linear-gradient-8)"/>
            </g>
        </g>
        <g id="Group_392" data-name="Group 392" transform="translate(115.357 203.549)">
            <g id="Group_391" data-name="Group 391" transform="translate(0 0)" clip-path="url(#clip-path-9)">
                <rect id="Rectangle_133" data-name="Rectangle 133" width="3.567" height="3.574"
                      transform="translate(0 0)" fill="url(#linear-gradient-9)"/>
            </g>
        </g>
        <g id="Group_394" data-name="Group 394" transform="translate(196.888 210.097)">
            <g id="Group_393" data-name="Group 393" transform="translate(0 0)" clip-path="url(#clip-path-10)">
                <rect id="Rectangle_134" data-name="Rectangle 134" width="3.598" height="3.181"
                      transform="translate(-0.179 0)" fill="url(#linear-gradient-10)"/>
            </g>
        </g>
        <g id="Group_396" data-name="Group 396" transform="translate(184.938 211.87)">
            <g id="Group_395" data-name="Group 395" transform="translate(0 0)" clip-path="url(#clip-path-11)">
                <rect id="Rectangle_135" data-name="Rectangle 135" width="5.44" height="3.877"
                      transform="translate(-0.628 0)" fill="url(#linear-gradient-11)"/>
            </g>
        </g>
        <g id="Group_398" data-name="Group 398" transform="translate(105.199 238.07)">
            <g id="Group_397" data-name="Group 397" transform="translate(0 0)" clip-path="url(#clip-path-12)">
                <rect id="Rectangle_136" data-name="Rectangle 136" width="5.084" height="4.319"
                      transform="translate(-0.933 0)" fill="url(#linear-gradient-12)"/>
            </g>
        </g>
    </g>
</svg>
